{
.appVersion = "3192";
.storedFileType = com.glyphsapp.glyphspackage;
.formatVersion = 3;
DisplayStrings = (
"E/Placeholder EINE
H/Placeholder ientu
H/Placeholder HHHOOHOHO
Hnnn/Placeholder nnn
/Placeholder ii/Placeholder iivioi
Ooo/Placeholder oonov/Placeholder v
n/Placeholder nbuonvie
/Placeholder nuamon
/Placeholder/Placeholder/Placeholder anitasion
-ᬅᬦᬳ/ka_tedung-bali/ta_tedung-bali GGCCScSs scs
SSs s c css",
"Yong Bargita
Yong Rargita
Yong Kargita
Yong Sagita
Yong Nargita
Yong Gargita
Yong Caregita
Yong Orgita
Yong Yargita
Yong Hargita
Yong Wargita
Yong Urgita
Yong Vargita
Yong Sagita
Yong Argita
Yong Dargita
Yong Orgita
Yong Ergita
Yong Fargita
Yong Largita
Yong Margita
Yong Pargita
Yong Qargita
Yong Orgita
Yong Sargita
Yong Targita
Yong Ergita
Yong Fergita
Yong Xargita
Yong Hargita
Yong Zargita
Yong Nargita



MASOSLINE",
"ᬳᬗᬤᬓᬲᬧᬢᬦᬓᬦᬲᬭᬳᬦᬫᬩᬢᬕᬯᬲᬮᬯᬭᬫᬕᬯᬫᬯᬫᬜᬩᬦᬫᬓᬤᬳᬫᬓᬮ᭞ᬫᬸᬯᬄᬳᬦᭂᬕᭂᬦ᭞ᬫᬮᬧᬮᬧᬦ᭞ᬮᬬᬦᬦᬲᬓᬾᬂᬳᬗᬃᬫᬾᬢᬩᬜᬸ᭞ᬫᬸᬯᬄᬳᬗ
ᬗᭀᬦ᭞ᬫᬯᬄᬳᬗᬶᬭᬶᬲ᭞ᬬᬦᬲᬶᬭᬳᬫᬸᬭᬸᬕᬲᬮᬶᬢᬢᬸᬗᬕᬮ᭞ᬤᭀᬱᬕᬸᬗᬃᬢᬣ᭞᭒᭕᭐᭐᭞ᬭᬶᬂᬲᬯᬶᬚᬶᬯᬶ᭞ᬢᬶᬗᬓᬳᬶᬂᬳᬜᭂᬧᬶᬲᬶᬭᬳᬫᬲᬗᬓᭂᬦᬢᬗᭂᬭᬦᬳᬫᬩᬸᬓᬂᬓᬭᭀᬢᬧᬶᬦᬶᬂᬤᬮᬦ᭞ᬭᬶᬂᬩᬦᬢᭂᬲᬾ
᭞ᬫᬯᬄᬬᬦᬦᬯᭀᬂᬮᬬᬦ᭞ᬳᬗᬢᭂᬭᬓᭂᬦᬚᬭᬦᬫᬫᭀᬦᬤᭀᬂ᭞ᬲᬫᬶᬬᬯᭀᬗᬶᬓᬬᬦᬲᬓᬶᬂᬢᬫᬩᬸᬳᬾ᭞ᬬᬦᬬᬯᬸᬲᬫᬜᬚᬶᬂᬭᬶᬂᬍᬫᬄᬲᬚᬭᭀᬦᬶᬂᬲᬲᭂᬧᬾᬦ᭞ᬯᬦᬂᬓᬢᬦᬤᬲᬕᬕᬯᬦᬾ᭞ᬳᬦᬩᬸᬲ᭠
ᬕᬸᬂᬳᬕᬸᬂᬳᬃᬢᬣ᭞ᬯᬶᬚᬶᬯᬶᬚᬶᬦᭂᬦ᭞ᬫᬓᬤᭀᬰᬦᬾ᭞ᬳᬸᬯᬓᬦᬲᬕᬕᬯᬾᬦᬾ᭞ᬬᬦᬯᬸᬲᬦᬯᬸᬭ᭟ᬬᬦᬬᬮᬗᬕᬦᬓᬤᭂᬄᬫᬯᬧᬓᬱᬮᬸᬫᬶᬯᬢ᭞ᬓᬳᬋᬧᬾᬢᬦᬧᬯᬾᬄᬳᬢᬢᬦᬤᬦ᭞ᬯᬦᬂᬩᬜᬚᬦᬦᭂᬦ᭞
",
"

Pangujanan ᬧᬗᬸᬚᬦᬦ

Nengah Jimbaran ᬕᬕᬸᬭᬶᬢᬦ

Babad Gumi ᬩᬩᬤᬕᬳᬸᬫᬶ

Gguritan Nngah Jimba ᬕᬕᬸᬭᬶᬢᬦᬦᭂᬗᬄᬚᬶᬫᬩᬭᬦ

Gguritan Rusak Bajar ᬕᬕᬸᬭᬶᬢᬦᬭᬸᬲᬓᬩᬜᬚᬃ",
"ᬗ/_repa_ ᬳ/_tedung_bali_ ᬶᬾ/_taling_tenas ᬾᬉᬉ",
"/Placeholder ᬅ/Placeholder ᬆ/Placeholder ᬳ/Placeholder ᬦ/Placeholder ᬘ/Placeholder ᬭ/Placeholder ᬓ/Placeholder ᬤ/Placeholder ᬢ/Placeholder ᬲ/Placeholder ᬯ/Placeholder ᬮ/Placeholder ᬫ/Placeholder ᬕ/Placeholder ᬩ/Placeholder ᬗ/Placeholder ᬧ/Placeholder ᬚ/Placeholder ᬬ/Placeholder ᬜ/Placeholder/ya_tedung-bali -

ᬗᬉᬳᬳᬳ/Placeholder ᬳ

-ᬏᬉᬑ

ᬩᬳᬡᬡ/_tedung_bali_ ᬵ



",
"ᬍᬅᬩᬉᬍᬐᬑᬑᬬ"
);
axes = (
{
name = Weight;
tag = wght;
}
);
classes = (
{
automatic = 1;
code = B;
name = Uppercase;
}
);
date = "2022-12-13 05:20:48 +0000";

glyphs = (
{
color = 9;
glyphname = A;
layers = (
{
background = {
shapes = (
{
angle = 180;
pos = (603,700);
ref = V;
}
);
};
layerId = m009;
shapes = (
{
closed = 1;
nodes = (
(99,0,l),
(162,205,l),
(172,245,l),
(304,675,l),
(278,675,l),
(418,245,l),
(427,205,l),
(495,0,l),
(587,0,l),
(349,700,l),
(236,700,l),
(7,0,l)
);
},
{
closed = 1;
nodes = (
(455,187,l),
(436,262,l),
(161,262,l),
(141,187,l)
);
}
);
width = 594;
}
);
metricRight = "=|";
unicode = 65;
},
{
color = 9;
glyphname = B;
layers = (
{
anchors = (
{
name = bar_ver;
pos = (276,359);
}
);
background = {
shapes = (
{
pos = (7,0);
ref = E;
},
{
closed = 1;
nodes = (
(315,326,l),
(368,326,ls),
(441,326,o),
(482,287,o),
(482,201,cs),
(482,116,o),
(441,76,o),
(368,76,cs),
(315,76,l)
);
},
{
pos = (7,0);
ref = H;
}
);
};
layerId = m009;
shapes = (
{
closed = 1;
nodes = (
(340,0,ls),
(498,0,o),
(562,92,o),
(562,201,cs),
(562,297,o),
(509,354,o),
(436,373,c),
(436,376,l),
(487,399,o),
(523,448,o),
(523,522,cs),
(523,636,o),
(440,700,o),
(320,700,cs),
(82,700,l),
(82,0,l)
);
},
{
closed = 1;
nodes = (
(169,346,l),
(148,327,l),
(327,327,ls),
(428,327,o),
(475,288,o),
(475,203,cs),
(475,120,o),
(431,76,o),
(317,76,cs),
(131,76,l),
(169,38,l)
);
},
{
closed = 1;
nodes = (
(169,662,l),
(131,624,l),
(310,624,ls),
(394,624,o),
(437,591,o),
(437,517,cs),
(437,442,o),
(392,401,o),
(304,401,cs),
(144,401,l),
(169,378,l)
);
}
);
width = 605;
},
{
anchors = (
{
name = bottom;
pos = (353,0);
},
{
name = top;
pos = (353,700);
}
);
associatedMasterId = m009;
background = {
shapes = (
{
closed = 0;
nodes = (
(621,312,l),
(645,281,o),
(657,243,o),
(657,198,c),
(657,157,o),
(647,121,o),
(626,91,c),
(605,61,o),
(576,38,o),
(539,23,c),
(502,8,o),
(460,0,o),
(413,0,c),
(185,0,l),
(185,118,l),
(381,118,l),
(420,118,o),
(450,126,o),
(469,142,c),
(488,158,o),
(498,180,o),
(498,209,c),
(498,239,o),
(487,261,o),
(466,276,c),
(445,291,o),
(415,298,o),
(377,298,c),
(185,298,l),
(185,407,l),
(368,407,l),
(387,407,o),
(403,411,o),
(418,418,c),
(432,425,o),
(443,436,o),
(451,449,c),
(459,462,o),
(463,477,o),
(463,494,c),
(463,522,o),
(454,544,o),
(435,559,c),
(416,574,o),
(391,582,o),
(360,582,c),
(185,582,l),
(185,700,l),
(378,700,l),
(426,700,o),
(467,692,o),
(501,675,c),
(535,658,o),
(561,636,o),
(578,608,c),
(595,579,o),
(604,547,o),
(604,510,c),
(604,483,o),
(599,458,o),
(590,437,c),
(581,416,o),
(569,398,o),
(554,383,c),
(538,369,o),
(523,357,o),
(506,349,c)
);
},
{
closed = 1;
nodes = (
(57,0,l),
(209,0,l),
(209,700,l),
(57,700,l)
);
}
);
};
layerId = "041D36F7-0399-4962-A461-FD44F4F7D82C";
name = "28 Oct 22 11.55";
shapes = (
{
closed = 1;
nodes = (
(414,0,ls),
(557,0,o),
(657,80,o),
(657,197,cs),
(657,281,o),
(605,349,o),
(517,374,c),
(516,368,l),
(575,402,o),
(604,452,o),
(604,514,cs),
(604,625,o),
(512,700,o),
(377,700,cs),
(183,700,l),
(183,585,l),
(360,585,ls),
(426,585,o),
(463,554,o),
(463,500,cs),
(463,444,o),
(423,407,o),
(361,407,cs),
(183,407,l),
(183,298,l),
(392,298,ls),
(462,298,o),
(502,266,o),
(502,209,cs),
(502,148,o),
(456,115,o),
(377,115,cs),
(183,115,l),
(183,0,l)
);
},
{
closed = 1;
nodes = (
(218,0,l),
(218,700,l),
(68,700,l),
(68,0,l)
);
}
);
width = 687;
}
);
metricLeft = H;
unicode = 66;
},
{
color = 9;
glyphname = C;
layers = (
{
anchors = (
{
name = bar_hor_dbl;
pos = (202,363);
},
{
name = tail_Q;
pos = (376,43);
}
);
background = {
shapes = (
{
ref = O;
}
);
};
layerId = m009;
shapes = (
{
closed = 1;
nodes = (
(430,-10,o),
(511,2,o),
(584,62,c),
(580,19,l),
(514,152,l),
(549,136,l),
(496,88,o),
(435,69,o),
(374,69,cs),
(233,69,o),
(130,167,o),
(130,352,cs),
(130,555,o),
(249,631,o),
(373,631,cs),
(446,631,o),
(506,604,o),
(554,551,c),
(516,543,l),
(580,658,l),
(585,630,l),
(526,688,o),
(452,710,o),
(370,710,cs),
(197,710,o),
(40,599,o),
(40,350,cs),
(40,123,o),
(172,-10,o),
(370,-10,cs)
);
}
);
width = 606;
}
);
metricLeft = O;
unicode = 67;
},
{
color = 9;
glyphname = D;
layers = (
{
background = {
shapes = (
{
pos = (-81,0);
ref = O;
}
);
};
layerId = m009;
shapes = (
{
closed = 1;
nodes = (
(285,0,ls),
(502,0,o),
(616,128,o),
(616,350,cs),
(616,572,o),
(502,700,o),
(285,700,cs),
(82,700,l),
(82,0,l)
);
},
{
closed = 1;
nodes = (
(169,668,l),
(131,622,l),
(285,622,ls),
(440,622,o),
(529,536,o),
(529,350,cs),
(529,165,o),
(440,78,o),
(285,78,cs),
(131,78,l),
(169,40,l)
);
}
);
width = 656;
}
);
metricLeft = H;
metricRight = O;
unicode = 68;
},
{
color = 9;
glyphname = E;
layers = (
{
.lastUpdate = 705314937.605;
background = {
shapes = (
{
closed = 1;
nodes = (
(468,327,l),
(468,405,l),
(139,405,l),
(139,327,l)
);
}
);
};
layerId = m009;
shapes = (
{
alignment = -1;
pos = (-14,0);
ref = _part.stem_E;
},
{
pos = (-4,0);
ref = _bottom_E;
},
{
pos = (-4,0);
ref = _top_E;
},
{
pos = (-3,16);
ref = _center_E;
}
);
width = 532;
}
);
metricLeft = H;
unicode = 69;
},
{
color = 9;
glyphname = G;
layers = (
{
background = {
shapes = (
{
pos = (1,-1100);
ref = C;
},
{
closed = 1;
nodes = (
(463,-1110,o),
(556,-1069,o),
(614,-994,c),
(603,-1029,l),
(605,-738,l),
(383,-738,l),
(383,-808,l),
(568,-808,l),
(531,-763,l),
(531,-1030,l),
(548,-969,l),
(493,-1019,o),
(442,-1038,o),
(380,-1038,cs),
(246,-1038,o),
(139,-948,o),
(139,-750,cs),
(139,-550,o),
(248,-465,o),
(378,-465,cs),
(436,-465,o),
(502,-482,o),
(563,-543,c),
(521,-560,l),
(591,-425,l),
(594,-477,l),
(536,-418,o),
(458,-390,o),
(375,-390,cs),
(191,-390,o),
(51,-526,o),
(51,-750,cs),
(51,-974,o),
(190,-1110,o),
(366,-1110,cs)
);
},
{
closed = 1;
nodes = (
(638,-977,l),
(688,-1029,l),
(627,-1064,o),
(602,-1039,o),
(603,-969,cs),
(605,-733,l),
(371,-733,l),
(371,-803,l),
(568,-803,l),
(537,-758,l),
(536,-798,ls),
(532,-966,o),
(452,-1038,o),
(352,-1038,cs),
(239,-1038,o),
(138,-947,o),
(138,-757,cs),
(138,-550,o),
(248,-465,o),
(378,-465,cs),
(436,-465,o),
(502,-482,o),
(563,-543,c),
(507,-560,l),
(576,-425,l),
(594,-477,l),
(536,-418,o),
(458,-390,o),
(375,-390,cs),
(191,-390,o),
(50,-526,o),
(50,-757,cs),
(50,-974,o),
(187,-1110,o),
(344,-1110,cs),
(411,-1110,o),
(494,-1085,o),
(534,-979,c),
(569,-988,l),
(544,-964,l),
(525,-1059,o),
(551,-1110,o),
(622,-1110,cs),
(652,-1110,o),
(673,-1101,o),
(692,-1088,c),
(685,-1133,l)
);
},
{
ref = C;
}
);
};
layerId = m009;
shapes = (
{
closed = 1;
nodes = (
(449,-10,o),
(504,25,o),
(543,84,c),
(545,84,l),
(561,0,l),
(626,0,l),
(628,366,l),
(396,366,l),
(396,290,l),
(583,290,l),
(553,325,l),
(551,238,ls),
(549,141,o),
(481,66,o),
(369,66,cs),
(229,66,o),
(130,168,o),
(130,353,cs),
(130,545,o),
(240,631,o),
(380,631,cs),
(462,631,o),
(527,601,o),
(574,549,c),
(536,543,l),
(600,658,l),
(604,626,l),
(546,687,o),
(462,710,o),
(378,710,cs),
(197,710,o),
(40,594,o),
(40,350,cs),
(40,118,o),
(184,-10,o),
(355,-10,cs)
);
}
);
width = 676;
}
);
metricLeft = O;
unicode = 71;
},
{
color = 9;
glyphname = H;
layers = (
{
background = {
shapes = (
{
pos = (-21,0);
ref = O;
}
);
};
layerId = m009;
shapes = (
{
closed = 1;
nodes = (
(169,0,l),
(169,341,l),
(149,318,l),
(517,318,l),
(504,337,l),
(504,0,l),
(591,0,l),
(591,700,l),
(504,700,l),
(504,375,l),
(521,396,l),
(149,396,l),
(169,372,l),
(169,700,l),
(82,700,l),
(82,0,l)
);
}
);
width = 673;
}
);
metricRight = "=|";
unicode = 72;
},
{
color = 9;
glyphname = I;
layers = (
{
layerId = m009;
shapes = (
{
closed = 1;
nodes = (
(169,0,l),
(169,700,l),
(82,700,l),
(82,0,l)
);
}
);
width = 251;
}
);
metricLeft = H;
metricRight = H;
unicode = 73;
},
{
color = 9;
glyphname = J;
layers = (
{
background = {
shapes = (
{
pos = (-49,0);
ref = S;
}
);
};
layerId = m009;
shapes = (
{
closed = 1;
nodes = (
(309,-10,o),
(385,55,o),
(385,200,cs),
(385,700,l),
(298,700,l),
(298,211,ls),
(298,122,o),
(271,68,o),
(185,68,cs),
(125,68,o),
(72,95,o),
(11,150,c),
(66,152,l),
(-6,33,l),
(-21,72,l),
(51,9,o),
(121,-10,o),
(185,-10,cs)
);
}
);
width = 450;
},
{
associatedMasterId = m009;
background = {
shapes = (
{
pos = (-291,-33);
ref = O;
}
);
};
layerId = "22E1EDE1-F2B9-428D-89A2-F8360D613A45";
name = "26 Apr 23 14.04";
shapes = (
{
closed = 1;
nodes = (
(272,-10,o),
(347,42,o),
(347,190,cs),
(347,700,l),
(260,700,l),
(260,198,ls),
(260,96,o),
(226,69,o),
(166,69,cs),
(116,69,o),
(68,92,o),
(3,143,c),
(55,156,l),
(-20,23,l),
(-31,72,l),
(30,21,o),
(98,-10,o),
(178,-10,cs)
);
}
);
width = 412;
},
{
associatedMasterId = m009;
background = {
shapes = (
{
pos = (-49,0);
ref = S;
}
);
};
layerId = "94D5F574-793A-4ED9-BE76-93CBC6D2564F";
name = "27 Apr 23 10.24";
shapes = (
{
closed = 1;
nodes = (
(261,-10,o),
(347,41,o),
(347,186,cs),
(347,700,l),
(260,700,l),
(260,188,ls),
(260,95,o),
(217,68,o),
(155,68,cs),
(107,68,o),
(62,86,o),
(24,109,c),
(70,136,l),
(-8,-14,l),
(-12,40,l),
(36,10,o),
(100,-10,o),
(161,-10,cs)
);
}
);
width = 412;
}
);
metricRight = U;
unicode = 74;
},
{
color = 9;
glyphname = K;
layers = (
{
background = {
shapes = (
{
ref = H;
}
);
};
layerId = m009;
shapes = (
{
closed = 1;
nodes = (
(169,0,l),
(169,205,ls),
(169,214,o),
(171,221,o),
(177,228,cs),
(285,356,l),
(311,382,l),
(574,700,l),
(471,700,l),
(166,332,l),
(169,319,l),
(169,700,l),
(82,700,l),
(82,0,l)
);
},
{
closed = 1;
nodes = (
(587,0,l),
(320,434,l),
(262,367,l),
(484,0,l)
);
}
);
width = 583;
}
);
metricLeft = H;
unicode = 75;
},
{
color = 9;
glyphname = M;
layers = (
{
background = {
shapes = (
{
pos = (130,0);
ref = V;
}
);
};
layerId = m009;
shapes = (
{
closed = 1;
nodes = (
(166,0,l),
(166,657,l),
(148,657,l),
(361,0,l),
(474,0,l),
(691,657,l),
(671,657,l),
(671,0,l),
(756,0,l),
(756,700,l),
(616,700,l),
(406,53,l),
(427,53,l),
(221,700,l),
(82,700,l),
(82,0,l)
);
}
);
width = 838;
},
{
associatedMasterId = m009;
background = {
shapes = (
{
pos = (91,0);
ref = V;
}
);
};
layerId = "C6209AE7-CD7A-406B-A077-906990906F06";
name = "18 Apr 23 15.53";
shapes = (
{
closed = 1;
nodes = (
(160,0,l),
(160,377,ls),
(160,508,o),
(148,588,o),
(139,615,c),
(147,619,l),
(360,0,l),
(444,0,l),
(661,619,l),
(667,617,l),
(661,591,o),
(650,506,o),
(650,377,cs),
(650,0,l),
(735,0,l),
(735,700,l),
(604,700,l),
(422,179,ls),
(411,146,o),
(407,113,o),
(405,95,c),
(400,95,l),
(399,113,o),
(395,142,o),
(380,187,cs),
(205,700,l),
(75,700,l),
(75,0,l)
);
}
);
width = 810;
}
);
metricLeft = H;
metricRight = H;
unicode = 77;
},
{
color = 9;
glyphname = N;
layers = (
{
background = {
shapes = (
{
ref = H;
}
);
};
layerId = m009;
shapes = (
{
closed = 1;
nodes = (
(167,0,l),
(167,629,l),
(127,629,l),
(495,0,l),
(591,0,l),
(591,700,l),
(506,700,l),
(506,81,l),
(543,71,l),
(178,700,l),
(82,700,l),
(82,0,l)
);
}
);
width = 673;
},
{
associatedMasterId = m009;
background = {
shapes = (
{
pos = (-5,0);
ref = H;
}
);
};
layerId = "4B8B70EA-52B5-47E9-90A1-CAF6BDCB405D";
name = "18 Apr 23 15.55";
shapes = (
{
closed = 1;
nodes = (
(160,0,l),
(160,447,ls),
(160,515,o),
(152,544,o),
(143,561,c),
(150,564,l),
(508,0,l),
(588,0,l),
(588,700,l),
(504,700,l),
(504,249,ls),
(504,194,o),
(510,156,o),
(525,131,c),
(519,127,l),
(156,700,l),
(75,700,l),
(75,0,l)
);
}
);
width = 663;
}
);
metricLeft = H;
metricRight = H;
unicode = 78;
},
{
color = 9;
glyphname = O;
layers = (
{
anchors = (
{
name = tail_Q;
pos = (389,41);
}
);
background = {
shapes = (
{
pos = (37,0);
ref = H;
}
);
};
layerId = m009;
shapes = (
{
closed = 1;
nodes = (
(553,-10,o),
(692,116,o),
(692,350,cs),
(692,582,o),
(557,710,o),
(370,710,cs),
(179,710,o),
(40,575,o),
(40,350,cs),
(40,126,o),
(175,-10,o),
(368,-10,cs)
);
},
{
closed = 1;
nodes = (
(238,68,o),
(129,161,o),
(129,353,cs),
(129,542,o),
(233,632,o),
(368,632,cs),
(501,632,o),
(603,546,o),
(603,350,cs),
(603,151,o),
(500,68,o),
(373,68,cs)
);
}
);
width = 732;
}
);
metricRight = "=|";
unicode = 79;
},
{
color = 9;
glyphname = P;
layers = (
{
background = {
shapes = (
{
pos = (7,0);
ref = R;
}
);
};
layerId = m009;
shapes = (
{
closed = 1;
nodes = (
(169,0,l),
(169,307,l),
(124,290,l),
(320,290,ls),
(459,290,o),
(530,385,o),
(530,494,cs),
(530,637,o),
(440,700,o),
(319,700,cs),
(82,700,l),
(82,0,l)
);
},
{
closed = 1;
nodes = (
(169,640,l),
(150,622,l),
(317,622,ls),
(411,622,o),
(444,571,o),
(444,503,cs),
(444,409,o),
(396,368,o),
(298,368,cs),
(152,368,l),
(169,340,l)
);
}
);
width = 563;
}
);
metricLeft = H;
unicode = 80;
},
{
color = 9;
glyphname = Q;
layers = (
{
anchors = (
{
name = tail_Q;
pos = (389,41);
}
);
background = {
shapes = (
{
ref = R;
}
);
};
layerId = m009;
shapes = (
{
closed = 1;
nodes = (
(553,-10,o),
(692,116,o),
(692,350,cs),
(692,582,o),
(557,710,o),
(370,710,cs),
(179,710,o),
(40,575,o),
(40,350,cs),
(40,126,o),
(175,-10,o),
(368,-10,cs)
);
},
{
closed = 1;
nodes = (
(238,66,o),
(128,161,o),
(128,353,cs),
(128,542,o),
(233,632,o),
(368,632,cs),
(501,632,o),
(604,546,o),
(604,350,cs),
(604,151,o),
(500,66,o),
(373,66,cs)
);
},
{
closed = 1;
nodes = (
(657,3,l),
(647,-42,l),
(543,77,l),
(536,89,l),
(433,217,l),
(469,216,l),
(380,139,l),
(371,170,l),
(465,57,l),
(479,40,l),
(601,-114,l),
(551,-107,l)
);
}
);
width = 732;
},
{
.lastUpdate = 705211047.096;
associatedMasterId = m009;
background = {
shapes = (
{
ref = R;
}
);
};
layerId = "229C0EB5-1FD5-41FB-8082-67BB23A0F5E7";
name = "27 Apr 23 09.18";
shapes = (
{
ref = O;
},
{
pos = (5,-2);
ref = _tail_Q;
}
);
width = 732;
},
{
anchors = (
{
name = tail_Q;
pos = (389,41);
}
);
associatedMasterId = m009;
background = {
shapes = (
{
ref = R;
}
);
};
layerId = "5E2298A2-51E6-4827-997F-3BAB3E54B2E3";
name = "27 Apr 23 15.45";
shapes = (
{
closed = 1;
nodes = (
(553,-10,o),
(692,116,o),
(692,350,cs),
(692,582,o),
(557,710,o),
(370,710,cs),
(179,710,o),
(40,575,o),
(40,350,cs),
(40,126,o),
(175,-10,o),
(368,-10,cs)
);
},
{
closed = 1;
nodes = (
(238,66,o),
(128,161,o),
(128,353,cs),
(128,542,o),
(233,632,o),
(368,632,cs),
(501,632,o),
(604,546,o),
(604,350,cs),
(604,151,o),
(500,66,o),
(373,66,cs)
);
},
{
closed = 1;
nodes = (
(614,7,l),
(619,-26,l),
(562,49,l),
(545,68,l),
(423,226,l),
(447,227,l),
(370,102,l),
(381,157,l),
(461,57,l),
(474,40,l),
(578,-97,l),
(551,-94,l)
);
}
);
width = 732;
}
);
unicode = 81;
},
{
color = 9;
glyphname = R;
layers = (
{
background = {
shapes = (
{
ref = P;
}
);
};
layerId = m009;
shapes = (
{
closed = 1;
nodes = (
(169,0,l),
(169,317,l),
(154,294,l),
(288,294,ls),
(298,294,o),
(305,290,o),
(310,281,cs),
(455,0,l),
(551,0,l),
(370,336,l),
(331,294,l),
(461,294,o),
(530,387,o),
(530,503,cs),
(530,634,o),
(440,700,o),
(319,700,cs),
(82,700,l),
(82,0,l)
);
},
{
closed = 1;
nodes = (
(169,640,l),
(150,622,l),
(317,622,ls),
(411,622,o),
(444,571,o),
(444,500,cs),
(444,414,o),
(401,370,o),
(311,370,cs),
(152,370,l),
(169,360,l)
);
}
);
width = 568;
},
{
associatedMasterId = m009;
background = {
shapes = (
{
ref = P;
}
);
};
layerId = "9F941856-7ED4-45FF-846C-85AB398DD0B2";
name = "26 Apr 23 14.01";
shapes = (
{
closed = 1;
nodes = (
(169,0,l),
(169,317,l),
(154,294,l),
(331,294,ls),
(461,294,o),
(530,387,o),
(530,503,cs),
(530,634,o),
(440,700,o),
(319,700,cs),
(82,700,l),
(82,0,l)
);
},
{
closed = 1;
nodes = (
(169,640,l),
(150,622,l),
(317,622,ls),
(411,622,o),
(444,571,o),
(444,500,cs),
(444,414,o),
(401,372,o),
(311,372,cs),
(152,372,l),
(169,360,l)
);
},
{
closed = 1;
nodes = (
(551,0,l),
(370,336,l),
(284,330,l),
(455,0,l)
);
}
);
width = 568;
}
);
metricLeft = H;
unicode = 82;
},
{
color = 9;
glyphname = S;
layers = (
{
anchors = (
{
name = bar_ver;
pos = (262,359);
}
);
background = {
shapes = (
{
pos = (-38,0);
ref = E;
},
{
closed = 0;
nodes = (
(356,379,ls),
(299,400,o),
(217,407,o),
(177,430,cs)
);
},
{
closed = 0;
nodes = (
(105,373,ls),
(153,339,o),
(244,329,o),
(297,316,cs)
);
}
);
};
layerId = m009;
shapes = (
{
closed = 1;
nodes = (
(75,16,o),
(159,-10,o),
(240,-10,cs),
(365,-10,o),
(466,54,o),
(466,194,cs),
(466,453,o),
(133,356,o),
(133,521,cs),
(133,590,o),
(186,632,o),
(265,632,cs),
(334,632,o),
(391,604,o),
(449,540,c),
(389,539,l),
(463,674,l),
(477,619,l),
(414,687,o),
(339,710,o),
(262,710,cs),
(154,710,o),
(48,642,o),
(48,521,cs),
(48,272,o),
(381,391,o),
(381,194,cs),
(381,112,o),
(324,69,o),
(244,69,cs),
(177,69,o),
(107,93,o),
(30,150,c),
(74,152,l),
(5,33,l),
(-2,72,l)
);
}
);
width = 503;
},
{
anchors = (
{
name = bar_ver;
pos = (262,359);
}
);
associatedMasterId = m009;
layerId = "56A61E6C-94BD-4A99-B8F4-5D9E8894A4A8";
name = "26 Apr 23 10.12";
shapes = (
{
closed = 1;
nodes = (
(390,-10,o),
(474,63,o),
(474,181,cs),
(474,418,o),
(130,382,o),
(130,536,cs),
(130,597,o),
(183,632,o),
(257,632,cs),
(331,632,o),
(389,598,o),
(447,540,c),
(389,539,l),
(463,674,l),
(476,612,l),
(412,684,o),
(333,710,o),
(258,710,cs),
(131,710,o),
(44,634,o),
(44,525,cs),
(44,311,o),
(386,356,o),
(385,178,cs),
(385,115,o),
(344,69,o),
(258,69,cs),
(184,69,o),
(107,101,o),
(28,163,c),
(75,185,l),
(-2,50,l),
(-4,87,l),
(71,25,o),
(164,-10,o),
(260,-10,cs)
);
}
);
width = 503;
},
{
anchors = (
{
name = bar_ver;
pos = (262,359);
}
);
associatedMasterId = m009;
background = {
shapes = (
{
pos = (-38,0);
ref = E;
},
{
closed = 0;
nodes = (
(356,379,ls),
(299,400,o),
(217,407,o),
(177,430,cs)
);
},
{
closed = 0;
nodes = (
(105,373,ls),
(153,339,o),
(244,329,o),
(297,316,cs)
);
}
);
};
layerId = "30F418DD-79CD-4328-B78A-206FEA2619E3";
name = "27 Apr 23 09.03";
shapes = (
{
closed = 1;
nodes = (
(75,16,o),
(159,-10,o),
(240,-10,cs),
(370,-10,o),
(469,54,o),
(469,194,cs),
(469,456,o),
(134,358,o),
(134,521,cs),
(134,590,o),
(187,632,o),
(265,632,cs),
(334,632,o),
(393,599,o),
(449,540,c),
(389,539,l),
(463,674,l),
(477,619,l),
(418,680,o),
(339,710,o),
(262,710,cs),
(147,710,o),
(46,644,o),
(46,521,cs),
(46,267,o),
(380,389,o),
(380,194,cs),
(380,114,o),
(324,76,o),
(243,76,cs),
(178,76,o),
(107,99,o),
(30,156,c),
(74,152,l),
(5,33,l),
(-2,72,l)
);
}
);
width = 503;
},
{
anchors = (
{
name = bar_ver;
pos = (262,359);
}
);
associatedMasterId = m009;
background = {
shapes = (
{
pos = (-38,0);
ref = E;
},
{
closed = 0;
nodes = (
(356,379,ls),
(299,400,o),
(217,407,o),
(177,430,cs)
);
},
{
closed = 0;
nodes = (
(105,373,ls),
(153,339,o),
(244,329,o),
(297,316,cs)
);
}
);
};
layerId = "D1565F51-7F5E-4F7E-9223-5B93C6FB93C3";
name = "28 Apr 23 10.49";
shapes = (
{
closed = 1;
nodes = (
(75,16,o),
(159,-10,o),
(240,-10,cs),
(365,-10,o),
(466,54,o),
(466,194,cs),
(466,453,o),
(133,356,o),
(133,521,cs),
(133,590,o),
(186,632,o),
(265,632,cs),
(334,632,o),
(393,599,o),
(449,540,c),
(389,539,l),
(463,674,l),
(477,619,l),
(418,680,o),
(339,710,o),
(262,710,cs),
(156,710,o),
(48,644,o),
(48,521,cs),
(48,272,o),
(381,391,o),
(381,194,cs),
(381,112,o),
(324,69,o),
(244,69,cs),
(177,69,o),
(107,93,o),
(30,150,c),
(74,152,l),
(5,33,l),
(-2,72,l)
);
}
);
width = 503;
}
);
unicode = 83;
},
{
color = 9;
glyphname = T;
layers = (
{
background = {
shapes = (
{
pos = (-25,0);
ref = E;
}
);
};
layerId = m009;
shapes = (
{
closed = 1;
nodes = (
(317,0,l),
(317,655,l),
(301,622,l),
(534,622,l),
(534,700,l),
(3,700,l),
(3,622,l),
(250,622,l),
(230,652,l),
(230,0,l)
);
}
);
width = 537;
}
);
metricRight = "=|";
unicode = 84;
},
{
color = 9;
glyphname = U;
layers = (
{
background = {
shapes = (
{
pos = (-17,0);
ref = H;
}
);
};
layerId = m009;
shapes = (
{
closed = 1;
nodes = (
(477,-10,o),
(574,70,o),
(574,225,cs),
(574,700,l),
(487,700,l),
(487,220,ls),
(487,105,o),
(418,68,o),
(319,68,cs),
(214,68,o),
(152,123,o),
(152,220,cs),
(152,700,l),
(65,700,l),
(65,210,ls),
(65,77,o),
(161,-10,o),
(321,-10,cs)
);
}
);
width = 639;
}
);
metricRight = "=|";
unicode = 85;
},
{
color = 9;
glyphname = V;
layers = (
{
background = {
shapes = (
{
pos = (-102,0);
ref = O;
},
{
pos = (-50,0);
ref = H;
}
);
};
layerId = m009;
shapes = (
{
closed = 1;
nodes = (
(343,0,l),
(567,700,l),
(472,700,l),
(281,69,l),
(290,69,l),
(99,700,l),
(5,700,l),
(229,0,l)
);
}
);
width = 572;
},
{
associatedMasterId = m009;
background = {
shapes = (
{
pos = (-73,0);
ref = O;
}
);
};
layerId = "72139302-36F7-4333-A485-81431A7C09C5";
name = "18 Apr 23 15.57";
shapes = (
{
closed = 1;
nodes = (
(360,0,l),
(603,700,l),
(508,700,l),
(341,202,ls),
(323,147,o),
(315,112,o),
(311,86,c),
(304,86,l),
(303,104,o),
(294,148,o),
(279,194,cs),
(110,700,l),
(14,700,l),
(257,0,l)
);
}
);
width = 620;
}
);
metricRight = "=|";
unicode = 86;
},
{
color = 9;
glyphname = W;
layers = (
{
layerId = m009;
shapes = (
{
closed = 1;
nodes = (
(289,0,l),
(443,628,l),
(430,630,l),
(590,0,l),
(702,0,l),
(866,700,l),
(773,700,l),
(629,52,l),
(656,56,l),
(493,700,l),
(382,700,l),
(227,66,l),
(248,66,l),
(103,700,l),
(9,700,l),
(180,0,l)
);
}
);
width = 875;
},
{
associatedMasterId = m009;
layerId = "4F30171D-32C1-4D64-A38C-9AB3E1C5D5AE";
name = "18 Apr 23 16.07";
shapes = (
{
closed = 1;
nodes = (
(327,0,l),
(436,493,ls),
(445,536,o),
(450,581,o),
(452,611,c),
(458,611,l),
(460,574,o),
(463,544,o),
(475,494,cs),
(598,0,l),
(721,0,l),
(886,700,l),
(796,700,l),
(678,184,ls),
(665,126,o),
(661,99,o),
(660,80,c),
(653,80,l),
(653,104,o),
(647,139,o),
(636,185,cs),
(510,700,l),
(398,700,l),
(284,184,ls),
(272,126,o),
(266,99,o),
(265,80,c),
(258,80,l),
(258,104,o),
(253,139,o),
(242,185,cs),
(121,700,l),
(30,700,l),
(201,0,l)
);
}
);
width = 917;
}
);
metricRight = "=|";
unicode = 87;
},
{
color = 9;
glyphname = X;
layers = (
{
background = {
shapes = (
{
pos = (-18,0);
ref = V;
},
{
pos = (-12,0);
ref = A;
}
);
};
layerId = m009;
shapes = (
{
closed = 1;
nodes = (
(596,0,l),
(330,378,l),
(295,423,l),
(105,700,l),
(4,700,l),
(245,358,l),
(278,315,l),
(494,0,l)
);
},
{
closed = 1;
nodes = (
(85,0,l),
(303,327,l),
(252,388,l),
(-18,0,l)
);
},
{
closed = 1;
nodes = (
(561,700,l),
(461,700,l),
(267,412,l),
(320,354,l)
);
}
);
width = 571;
}
);
unicode = 88;
},
{
color = 9;
glyphname = Y;
layers = (
{
anchors = (
{
name = bar_hor_dbl;
pos = (318,179);
}
);
background = {
shapes = (
{
pos = (-27,0);
ref = V;
}
);
};
layerId = m009;
shapes = (
{
closed = 1;
nodes = (
(319,0,l),
(319,346,l),
(309,279,l),
(562,700,l),
(464,700,l),
(260,344,l),
(295,341,l),
(92,700,l),
(-6,700,l),
(245,275,l),
(233,346,l),
(233,0,l)
);
}
);
width = 556;
}
);
metricRight = "=|";
unicode = 89;
},
{
color = 9;
glyphname = Z;
layers = (
{
background = {
shapes = (
{
pos = (11,0);
ref = E;
}
);
};
layerId = m009;
shapes = (
{
closed = 1;
nodes = (
(496,0,l),
(496,80,l),
(74,80,l),
(100,41,l),
(490,622,l),
(490,700,l),
(52,700,l),
(52,620,l),
(447,620,l),
(413,661,l),
(22,79,l),
(22,0,l)
);
}
);
width = 515;
}
);
unicode = 90;
},
{
export = 0;
glyphname = K.0036;
layers = (
{
background = {
shapes = (
{
pos = (7,0);
ref = K;
}
);
};
layerId = m009;
shapes = (
{
closed = 1;
nodes = (
(169,0,l),
(169,700,l),
(82,700,l),
(82,0,l)
);
},
{
closed = 1;
nodes = (
(285,392,l),
(157,392,l),
(157,317,l),
(221,317,ls),
(276,317,o),
(290,302,o),
(319,257,cs),
(434,77,ls),
(467,25,o),
(492,-10,o),
(543,-10,cs),
(571,-10,o),
(591,-1,o),
(610,12,c),
(614,-33,l),
(565,123,l),
(606,71,l),
(560,44,o),
(540,59,o),
(516,97,cs),
(375,319,ls),
(355,351,o),
(330,356,o),
(299,356,c),
(299,359,l),
(319,364,o),
(336,378,o),
(354,403,cs),
(566,700,l),
(469,700,l),
(239,377,l)
);
}
);
width = 579;
}
);
metricLeft = H;
},
{
export = 0;
glyphname = C.001;
layers = (
{
anchors = (
{
name = bar_hor_dbl;
pos = (187,355);
},
{
name = tail_Q;
pos = (376,43);
}
);
background = {
shapes = (
{
pos = (-10,0);
ref = O;
}
);
};
layerId = m009;
shapes = (
{
closed = 1;
nodes = (
(434,-10,o),
(514,14,o),
(571,71,c),
(568,19,l),
(500,150,l),
(549,138,l),
(478,79,o),
(416,65,o),
(365,65,cs),
(237,65,o),
(128,152,o),
(128,352,cs),
(128,554,o),
(236,635,o),
(365,635,cs),
(433,635,o),
(485,612,o),
(544,566,c),
(504,549,l),
(571,682,l),
(574,631,l),
(517,686,o),
(441,710,o),
(364,710,cs),
(180,710,o),
(40,574,o),
(40,350,cs),
(40,126,o),
(179,-10,o),
(359,-10,cs)
);
}
);
width = 599;
}
);
metricLeft = O;
},
{
export = 0;
glyphname = G.001;
layers = (
{
background = {
shapes = (
{
pos = (-10,0);
ref = G;
}
);
};
layerId = m009;
shapes = (
{
closed = 1;
nodes = (
(479,-10,o),
(554,44,o),
(600,98,c),
(584,22,l),
(584,374,l),
(512,374,l),
(512,80,l),
(525,124,l),
(478,87,o),
(419,67,o),
(359,67,cs),
(235,67,o),
(128,152,o),
(128,350,cs),
(128,550,o),
(237,633,o),
(357,633,cs),
(417,633,o),
(478,612,o),
(531,573,c),
(564,640,l),
(509,686,o),
(438,710,o),
(361,710,cs),
(180,710,o),
(40,574,o),
(40,350,cs),
(40,126,o),
(179,-10,o),
(361,-10,cs)
);
}
);
width = 629;
}
);
metricLeft = O;
},
{
export = 0;
glyphname = G.002;
layers = (
{
background = {
shapes = (
{
pos = (-9,0);
ref = C;
},
{
closed = 1;
nodes = (
(453,-10,o),
(546,31,o),
(604,106,c),
(593,71,l),
(595,362,l),
(373,362,l),
(373,292,l),
(558,292,l),
(521,337,l),
(521,70,l),
(538,131,l),
(483,81,o),
(432,62,o),
(370,62,cs),
(236,62,o),
(129,152,o),
(129,350,cs),
(129,550,o),
(238,635,o),
(368,635,cs),
(426,635,o),
(492,618,o),
(553,557,c),
(511,540,l),
(581,675,l),
(584,623,l),
(526,682,o),
(448,710,o),
(365,710,cs),
(181,710,o),
(41,574,o),
(41,350,cs),
(41,126,o),
(180,-10,o),
(356,-10,cs)
);
},
{
closed = 1;
nodes = (
(628,123,l),
(678,71,l),
(617,36,o),
(592,61,o),
(593,131,cs),
(595,367,l),
(361,367,l),
(361,297,l),
(558,297,l),
(527,342,l),
(526,302,ls),
(522,134,o),
(442,62,o),
(342,62,cs),
(229,62,o),
(128,153,o),
(128,343,cs),
(128,550,o),
(238,635,o),
(368,635,cs),
(426,635,o),
(492,618,o),
(553,557,c),
(497,540,l),
(566,675,l),
(584,623,l),
(526,682,o),
(448,710,o),
(365,710,cs),
(181,710,o),
(40,574,o),
(40,343,cs),
(40,126,o),
(177,-10,o),
(334,-10,cs),
(401,-10,o),
(484,15,o),
(524,121,c),
(559,112,l),
(534,136,l),
(515,41,o),
(541,-10,o),
(612,-10,cs),
(642,-10,o),
(663,-1,o),
(682,12,c),
(675,-33,l)
);
}
);
};
layerId = m009;
shapes = (
{
closed = 1;
nodes = (
(628,123,l),
(678,71,l),
(617,36,o),
(592,61,o),
(593,131,cs),
(595,367,l),
(361,367,l),
(361,297,l),
(558,297,l),
(527,342,l),
(526,302,ls),
(522,134,o),
(442,62,o),
(342,62,cs),
(229,62,o),
(128,153,o),
(128,343,cs),
(128,550,o),
(238,635,o),
(368,635,cs),
(426,635,o),
(492,618,o),
(553,557,c),
(497,540,l),
(566,675,l),
(584,623,l),
(526,682,o),
(448,710,o),
(365,710,cs),
(181,710,o),
(40,574,o),
(40,343,cs),
(40,126,o),
(177,-10,o),
(334,-10,cs),
(401,-10,o),
(484,15,o),
(524,121,c),
(559,112,l),
(534,136,l),
(515,41,o),
(541,-10,o),
(612,-10,cs),
(642,-10,o),
(663,-1,o),
(682,12,c),
(675,-33,l)
);
}
);
width = 689;
}
);
metricLeft = O;
},
{
export = 0;
glyphname = G.003;
layers = (
{
background = {
shapes = (
{
pos = (-9,-1100);
ref = C;
},
{
closed = 1;
nodes = (
(453,-1110,o),
(546,-1069,o),
(604,-994,c),
(593,-1029,l),
(595,-738,l),
(373,-738,l),
(373,-808,l),
(558,-808,l),
(521,-763,l),
(521,-1030,l),
(538,-969,l),
(483,-1019,o),
(432,-1038,o),
(370,-1038,cs),
(236,-1038,o),
(129,-948,o),
(129,-750,cs),
(129,-550,o),
(238,-465,o),
(368,-465,cs),
(426,-465,o),
(492,-482,o),
(553,-543,c),
(511,-560,l),
(581,-425,l),
(584,-477,l),
(526,-418,o),
(448,-390,o),
(365,-390,cs),
(181,-390,o),
(41,-526,o),
(41,-750,cs),
(41,-974,o),
(180,-1110,o),
(356,-1110,cs)
);
},
{
closed = 1;
nodes = (
(628,-977,l),
(678,-1029,l),
(617,-1064,o),
(592,-1039,o),
(593,-969,cs),
(595,-733,l),
(361,-733,l),
(361,-803,l),
(558,-803,l),
(527,-758,l),
(526,-798,ls),
(522,-966,o),
(442,-1038,o),
(342,-1038,cs),
(229,-1038,o),
(128,-947,o),
(128,-757,cs),
(128,-550,o),
(238,-465,o),
(368,-465,cs),
(426,-465,o),
(492,-482,o),
(553,-543,c),
(497,-560,l),
(566,-425,l),
(584,-477,l),
(526,-418,o),
(448,-390,o),
(365,-390,cs),
(181,-390,o),
(40,-526,o),
(40,-757,cs),
(40,-974,o),
(177,-1110,o),
(334,-1110,cs),
(401,-1110,o),
(484,-1085,o),
(524,-979,c),
(559,-988,l),
(534,-964,l),
(515,-1059,o),
(541,-1110,o),
(612,-1110,cs),
(642,-1110,o),
(663,-1101,o),
(682,-1088,c),
(675,-1133,l)
);
},
{
pos = (-10,0);
ref = C;
}
);
};
layerId = m009;
shapes = (
{
closed = 1;
nodes = (
(628,123,l),
(678,71,l),
(617,36,o),
(592,61,o),
(593,131,cs),
(595,367,l),
(361,367,l),
(361,294,l),
(558,294,l),
(527,342,l),
(526,302,ls),
(522,140,o),
(443,68,o),
(349,68,cs),
(232,68,o),
(128,170,o),
(128,350,cs),
(128,542,o),
(243,632,o),
(369,632,cs),
(436,632,o),
(501,607,o),
(553,555,c),
(523,541,l),
(587,656,l),
(584,626,l),
(527,682,o),
(448,710,o),
(368,710,cs),
(203,710,o),
(40,594,o),
(40,349,cs),
(40,125,o),
(179,-10,o),
(332,-10,cs),
(392,-10,o),
(468,11,o),
(511,115,c),
(543,112,l),
(518,136,l),
(515,41,o),
(541,-10,o),
(612,-10,cs),
(642,-10,o),
(663,-1,o),
(682,12,c),
(675,-33,l)
);
}
);
width = 689;
}
);
metricLeft = O;
},
{
export = 0;
glyphname = K.001;
layers = (
{
background = {
shapes = (
{
closed = 1;
nodes = (
(169,0,l),
(169,700,l),
(82,700,l),
(82,0,l)
);
},
{
closed = 1;
nodes = (
(581,0,l),
(240,366,l),
(241,322,l),
(556,700,l),
(466,700,l),
(167,345,l),
(167,332,l),
(479,0,l)
);
}
);
};
layerId = m009;
shapes = (
{
closed = 1;
nodes = (
(169,0,l),
(169,700,l),
(82,700,l),
(82,0,l)
);
},
{
closed = 1;
nodes = (
(581,0,l),
(240,366,l),
(241,322,l),
(556,700,l),
(466,700,l),
(167,345,l),
(167,332,l),
(479,0,l)
);
}
);
width = 591;
}
);
metricLeft = H;
},
{
export = 0;
glyphname = M.001;
layers = (
{
background = {
shapes = (
{
pos = (-2,0);
ref = H;
}
);
};
layerId = m009;
shapes = (
{
closed = 1;
nodes = (
(165,0,l),
(165,377,ls),
(165,521,o),
(155,569,o),
(143,587,c),
(114,564,l),
(162,586,l),
(152,589,l),
(399,0,l),
(455,0,l),
(704,590,l),
(692,588,l),
(709,582,l),
(701,556,o),
(693,506,o),
(693,377,cs),
(693,0,l),
(777,0,l),
(777,700,l),
(647,700,l),
(683,731,l),
(452,176,ls),
(435,136,o),
(432,119,o),
(431,110,c),
(425,110,l),
(424,118,o),
(423,132,o),
(404,177,cs),
(172,731,l),
(212,700,l),
(82,700,l),
(82,0,l)
);
}
);
width = 859;
}
);
metricLeft = H;
metricRight = H;
},
{
export = 0;
glyphname = O.001;
layers = (
{
anchors = (
{
name = tail_Q;
pos = (396,41);
}
);
background = {
shapes = (
{
pos = (44,0);
ref = H;
}
);
};
layerId = m009;
shapes = (
{
closed = 1;
nodes = (
(553,-10,o),
(693,118,o),
(693,350,cs),
(693,583,o),
(553,710,o),
(372,710,cs),
(189,710,o),
(50,575,o),
(50,350,cs),
(50,124,o),
(188,-10,o),
(371,-10,cs)
);
},
{
closed = 1;
nodes = (
(247,76,o),
(139,164,o),
(139,350,cs),
(139,536,o),
(242,624,o),
(372,624,cs),
(500,624,o),
(603,537,o),
(603,350,cs),
(603,155,o),
(500,76,o),
(373,76,cs)
);
}
);
width = 743;
}
);
metricRight = "=|";
},
{
export = 0;
glyphname = R.001;
layers = (
{
background = {
shapes = (
{
closed = 1;
nodes = (
(309,315,ls),
(445,315,o),
(522,392,o),
(522,505,cs),
(522,622,o),
(446,700,o),
(309,700,cs),
(134,700,l),
(134,627,l),
(309,627,ls),
(401,627,o),
(435,586,o),
(435,506,cs),
(435,432,o),
(397,388,o),
(309,388,cs),
(134,388,l),
(134,315,l)
);
},
{
closed = 1;
nodes = (
(560,0,l),
(483,231,ls),
(452,324,o),
(421,347,o),
(335,347,cs),
(264,347,l),
(264,315,l),
(286,315,ls),
(345,315,o),
(374,286,o),
(399,209,cs),
(466,0,l)
);
},
{
closed = 1;
nodes = (
(169,0,l),
(169,700,l),
(82,700,l),
(82,0,l)
);
}
);
};
layerId = m009;
shapes = (
{
closed = 1;
nodes = (
(309,315,ls),
(445,315,o),
(521,392,o),
(521,506,cs),
(521,622,o),
(446,700,o),
(309,700,cs),
(134,700,l),
(134,627,l),
(309,627,ls),
(401,627,o),
(436,586,o),
(436,507,cs),
(436,432,o),
(397,388,o),
(309,388,cs),
(134,388,l),
(134,315,l)
);
},
{
closed = 1;
nodes = (
(169,0,l),
(169,700,l),
(82,700,l),
(82,0,l)
);
},
{
closed = 1;
nodes = (
(558,0,l),
(389,351,l),
(304,351,l),
(468,0,l)
);
}
);
width = 571;
}
);
metricLeft = H;
},
{
export = 0;
glyphname = R.002;
layers = (
{
background = {
shapes = (
{
pos = (346,0);
ref = l;
}
);
};
layerId = m009;
shapes = (
{
closed = 1;
nodes = (
(565,-10,o),
(584,-2,o),
(609,19,c),
(600,-32,l),
(560,92,l),
(589,75,l),
(562,45,o),
(510,54,o),
(510,106,cs),
(510,234,ls),
(510,313,o),
(473,344,o),
(431,351,c),
(431,353,l),
(493,370,o),
(543,431,o),
(543,513,cs),
(543,623,o),
(454,700,o),
(307,700,cs),
(82,700,l),
(82,0,l),
(169,0,l),
(169,328,l),
(151,310,l),
(334,310,ls),
(397,310,o),
(425,280,o),
(425,223,cs),
(425,124,ls),
(425,28,o),
(467,-10,o),
(534,-10,cs)
);
},
{
closed = 1;
nodes = (
(169,645,l),
(151,627,l),
(307,627,ls),
(407,627,o),
(459,579,o),
(459,503,cs),
(459,428,o),
(410,380,o),
(330,380,cs),
(153,380,l),
(169,365,l)
);
}
);
width = 599;
}
);
metricLeft = H;
},
{
export = 0;
glyphname = R.003;
layers = (
{
background = {
shapes = (
{
pos = (7,0);
ref = P;
}
);
};
layerId = m009;
shapes = (
{
closed = 1;
nodes = (
(169,0,l),
(169,328,l),
(151,310,l),
(301,310,ls),
(382,310,o),
(409,291,o),
(434,204,cs),
(493,0,l),
(584,0,l),
(508,255,ls),
(493,304,o),
(474,335,o),
(438,351,c),
(438,353,l),
(507,374,o),
(549,435,o),
(549,513,cs),
(549,627,o),
(460,700,o),
(313,700,cs),
(82,700,l),
(82,0,l)
);
},
{
closed = 1;
nodes = (
(169,648,l),
(151,630,l),
(313,630,ls),
(413,630,o),
(465,578,o),
(465,504,cs),
(465,432,o),
(416,377,o),
(336,377,cs),
(153,377,l),
(169,362,l)
);
}
);
width = 594;
}
);
metricLeft = H;
},
{
export = 0;
glyphname = R.004;
layers = (
{
background = {
shapes = (
{
pos = (346,0);
ref = l;
}
);
};
layerId = m009;
shapes = (
{
closed = 1;
nodes = (
(565,-10,o),
(584,-2,o),
(609,19,c),
(600,-32,l),
(560,92,l),
(589,75,l),
(562,45,o),
(510,54,o),
(510,106,cs),
(510,234,ls),
(510,313,o),
(473,344,o),
(431,351,c),
(431,353,l),
(493,370,o),
(543,431,o),
(543,513,cs),
(543,623,o),
(454,700,o),
(307,700,cs),
(82,700,l),
(82,0,l),
(169,0,l),
(169,328,l),
(151,310,l),
(334,310,ls),
(397,310,o),
(425,280,o),
(425,223,cs),
(425,124,ls),
(425,28,o),
(467,-10,o),
(534,-10,cs)
);
},
{
closed = 1;
nodes = (
(169,645,l),
(151,627,l),
(307,627,ls),
(407,627,o),
(459,579,o),
(459,503,cs),
(459,428,o),
(410,380,o),
(330,380,cs),
(153,380,l),
(169,365,l)
);
}
);
width = 599;
}
);
metricLeft = H;
},
{
export = 0;
glyphname = R.005;
layers = (
{
background = {
shapes = (
{
pos = (7,0);
ref = B;
}
);
};
layerId = m009;
shapes = (
{
closed = 1;
nodes = (
(587,68,l),
(602,61,l),
(563,46,o),
(544,59,o),
(535,97,cs),
(499,248,ls),
(488,295,o),
(473,331,o),
(423,341,c),
(422,346,l),
(493,369,o),
(531,431,o),
(531,516,cs),
(531,634,o),
(442,700,o),
(315,700,cs),
(82,700,l),
(82,0,l),
(169,0,l),
(169,333,l),
(144,308,l),
(286,308,ls),
(371,308,o),
(401,287,o),
(422,198,cs),
(451,77,ls),
(466,15,o),
(494,-10,o),
(554,-10,cs),
(571,-10,o),
(595,-7,o),
(613,3,c),
(611,-12,l)
);
},
{
closed = 1;
nodes = (
(169,640,l),
(150,622,l),
(317,622,ls),
(411,622,o),
(444,571,o),
(444,511,cs),
(444,428,o),
(396,384,o),
(298,384,cs),
(152,384,l),
(169,356,l)
);
}
);
width = 629;
}
);
metricLeft = H;
},
{
export = 0;
glyphname = R.006;
layers = (
{
background = {
shapes = (
{
pos = (7,0);
ref = B;
}
);
};
layerId = m009;
shapes = (
{
closed = 1;
nodes = (
(169,0,l),
(169,333,l),
(144,308,l),
(284,308,ls),
(369,308,o),
(409,287,o),
(431,207,cs),
(488,0,l),
(578,0,l),
(512,238,ls),
(496,295,o),
(471,329,o),
(421,339,c),
(421,344,l),
(493,369,o),
(531,431,o),
(531,516,cs),
(531,631,o),
(442,700,o),
(315,700,cs),
(82,700,l),
(82,0,l)
);
},
{
closed = 1;
nodes = (
(169,640,l),
(150,622,l),
(317,622,ls),
(411,622,o),
(444,571,o),
(444,511,cs),
(444,428,o),
(396,384,o),
(298,384,cs),
(152,384,l),
(169,356,l)
);
}
);
width = 600;
}
);
metricLeft = H;
},
{
export = 0;
glyphname = S.002;
layers = (
{
anchors = (
{
name = bar_ver;
pos = (267,359);
}
);
layerId = m009;
shapes = (
{
closed = 1;
nodes = (
(394,-10,o),
(489,66,o),
(489,186,cs),
(489,304,o),
(397,354,o),
(291,397,cs),
(208,431,o),
(130,458,o),
(130,532,cs),
(130,593,o),
(182,633,o),
(263,633,cs),
(330,633,o),
(401,605,o),
(457,556,c),
(419,539,l),
(483,674,l),
(486,623,l),
(429,679,o),
(351,710,o),
(268,710,cs),
(138,710,o),
(48,632,o),
(48,522,cs),
(48,417,o),
(130,368,o),
(252,318,cs),
(345,280,o),
(404,250,o),
(404,176,cs),
(404,105,o),
(349,67,o),
(245,67,cs),
(168,67,o),
(113,87,o),
(36,142,c),
(75,160,l),
(15,25,l),
(15,64,l),
(74,16,o),
(154,-10,o),
(244,-10,cs)
);
}
);
width = 521;
}
);
},
{
export = 0;
glyphname = X.001;
layers = (
{
background = {
shapes = (
{
pos = (-109,0);
ref = O;
}
);
};
layerId = m009;
shapes = (
{
closed = 1;
nodes = (
(70,0,l),
(281,327,l),
(305,357,l),
(530,700,l),
(441,700,l),
(259,414,l),
(235,386,l),
(-26,0,l)
);
},
{
closed = 1;
nodes = (
(551,0,l),
(304,381,l),
(257,320,l),
(458,0,l)
);
},
{
closed = 1;
nodes = (
(274,415,l),
(100,700,l),
(9,700,l),
(233,353,l)
);
}
);
width = 557;
}
);
},
{
export = 0;
glyphname = K.ss01.001;
layers = (
{
background = {
shapes = (
{
closed = 1;
nodes = (
(581,0,l),
(248,369,l),
(255,325,l),
(561,700,l),
(466,700,l),
(167,345,l),
(167,332,l),
(479,0,l)
);
},
{
closed = 1;
nodes = (
(169,0,l),
(169,700,l),
(82,700,l),
(82,0,l)
);
},
{
closed = 1;
nodes = (
(582,-800,l),
(239,-416,l),
(239,-446,l),
(561,-100,l),
(462,-100,l),
(164,-424,l),
(163,-443,l),
(482,-800,l)
);
},
{
closed = 1;
nodes = (
(169,-800,l),
(169,-100,l),
(82,-100,l),
(82,-800,l)
);
}
);
};
layerId = m009;
shapes = (
{
closed = 1;
nodes = (
(169,0,l),
(169,283,l),
(148,200,l),
(285,365,l),
(313,395,l),
(576,700,l),
(467,700,l),
(138,314,l),
(195,315,l),
(132,365,l),
(139,323,l),
(160,348,o),
(169,352,o),
(169,420,cs),
(169,700,l),
(82,700,l),
(82,0,l)
);
},
{
closed = 1;
nodes = (
(589,0,l),
(318,434,l),
(264,360,l),
(488,0,l)
);
}
);
width = 591;
}
);
metricLeft = H;
},
{
color = 9;
glyphname = a;
layers = (
{
background = {
shapes = (
{
closed = 1;
nodes = (
(480,123,l),
(530,71,l),
(469,36,o),
(445,61,o),
(445,131,cs),
(445,338,ls),
(445,473,o),
(382,555,o),
(241,555,cs),
(175,555,o),
(100,536,o),
(32,489,c),
(43,541,l),
(101,404,l),
(48,415,l),
(117,461,o),
(176,481,o),
(232,481,cs),
(320,481,o),
(360,426,o),
(360,336,cs),
(360,123,l),
(366,113,l),
(366,44,o),
(391,-10,o),
(464,-10,cs),
(494,-10,o),
(515,-1,o),
(534,12,c),
(527,-33,l)
);
},
{
closed = 1;
nodes = (
(270,-10,o),
(331,29,o),
(359,90,c),
(372,89,l),
(375,191,l),
(360,191,l),
(360,129,o),
(299,65,o),
(207,65,cs),
(153,65,o),
(119,103,o),
(119,157,cs),
(119,226,o),
(176,252,o),
(239,252,cs),
(291,252,o),
(342,237,o),
(377,222,c),
(390,293,l),
(327,313,o),
(275,322,o),
(226,322,cs),
(113,322,o),
(33,262,o),
(33,154,cs),
(33,54,o),
(102,-10,o),
(192,-10,cs)
);
},
{
closed = 1;
nodes = (
(502,-817,o),
(483,-787,o),
(483,-754,cs),
(483,-564,ls),
(483,-418,o),
(391,-345,o),
(230,-345,cs),
(137,-345,o),
(49,-369,o),
(-25,-418,c),
(-13,-355,l),
(57,-523,l),
(14,-520,l),
(82,-479,o),
(147,-460,o),
(208,-460,cs),
(279,-460,o),
(337,-486,o),
(337,-561,cs),
(337,-723,l),
(357,-772,l),
(357,-861,o),
(406,-910,o),
(483,-910,cs),
(522,-910,o),
(562,-898,o),
(597,-879,c),
(592,-954,l),
(534,-740,l),
(579,-784,l)
);
},
{
closed = 1;
nodes = (
(283,-910,o),
(364,-839,o),
(391,-722,c),
(337,-661,l),
(330,-743,o),
(277,-796,o),
(202,-796,cs),
(156,-796,o),
(130,-776,o),
(130,-737,cs),
(130,-688,o),
(170,-662,o),
(240,-662,cs),
(277,-662,o),
(317,-669,o),
(355,-680,c),
(365,-591,l),
(324,-576,o),
(268,-565,o),
(213,-565,cs),
(77,-565,o),
(-12,-633,o),
(-12,-746,cs),
(-12,-848,o),
(62,-910,o),
(169,-910,cs)
);
}
);
};
layerId = m009;
shapes = (
{
closed = 1;
nodes = (
(493,81,l),
(530,77,l),
(512,65,o),
(496,59,o),
(482,59,cs),
(457,59,o),
(445,76,o),
(445,121,cs),
(445,338,ls),
(445,473,o),
(375,555,o),
(235,555,cs),
(158,555,o),
(91,534,o),
(12,480,c),
(38,541,l),
(97,404,l),
(63,423,l),
(109,456,o),
(166,479,o),
(230,479,cs),
(317,479,o),
(364,434,o),
(364,336,cs),
(364,270,l),
(370,256,l),
(370,123,l),
(366,113,l),
(366,44,o),
(391,-10,o),
(464,-10,cs),
(494,-10,o),
(515,-1,o),
(534,12,c),
(527,-33,l)
);
},
{
closed = 1;
nodes = (
(268,-10,o),
(331,22,o),
(365,81,c),
(375,80,l),
(379,233,l),
(364,233,l),
(358,120,o),
(296,63,o),
(220,63,cs),
(163,63,o),
(119,94,o),
(119,156,cs),
(119,228,o),
(179,255,o),
(246,255,cs),
(294,255,o),
(340,242,o),
(377,224,c),
(390,286,l),
(337,312,o),
(282,324,o),
(232,324,cs),
(118,324,o),
(32,260,o),
(32,153,cs),
(32,53,o),
(102,-10,o),
(200,-10,cs)
);
}
);
width = 521;
},
{
anchors = (
{
name = bottom;
pos = (308,0);
},
{
name = ogonek;
pos = (570,0);
},
{
name = top;
pos = (308,545);
}
);
associatedMasterId = m009;
background = {
shapes = (
{
closed = 1;
nodes = (
(437,0,l),
(423,107,l),
(423,362,l),
(423,380,o),
(418,395,o),
(408,406,c),
(397,418,o),
(382,426,o),
(362,431,c),
(342,437,o),
(318,439,o),
(290,439,c),
(286,439,l),
(283,439,l),
(254,439,o),
(223,436,o),
(191,429,c),
(158,422,o),
(133,414,o),
(113,404,c),
(77,508,l),
(104,521,o),
(140,533,o),
(184,542,c),
(228,551,o),
(275,555,o),
(324,555,c),
(401,555,o),
(461,541,o),
(505,512,c),
(548,484,o),
(570,433,o),
(570,361,c),
(570,0,l)
);
},
{
closed = 1;
nodes = (
(222,-10,l),
(190,-10,o),
(160,-4,o),
(132,9,c),
(104,21,o),
(81,40,o),
(64,64,c),
(47,88,o),
(39,117,o),
(39,149,c),
(39,152,l),
(39,199,o),
(57,238,o),
(95,269,c),
(133,299,o),
(189,318,o),
(263,324,c),
(452,340,l),
(452,254,l),
(298,240,l),
(265,237,o),
(241,229,o),
(224,217,c),
(207,205,o),
(199,188,o),
(199,168,c),
(199,143,o),
(207,125,o),
(222,112,c),
(238,99,o),
(259,93,o),
(284,93,c),
(308,93,o),
(330,98,o),
(351,108,c),
(372,118,o),
(389,133,o),
(403,151,c),
(416,170,o),
(423,193,o),
(423,220,c),
(476,178,l),
(466,134,o),
(449,98,o),
(424,70,c),
(399,42,o),
(369,21,o),
(335,9,c),
(301,-4,o),
(266,-10,o),
(229,-10,c)
);
}
);
};
layerId = "90AA5CBF-A596-42C0-9008-AC44A3E9C24E";
name = "28 Oct 22 11.52";
shapes = (
{
closed = 1;
nodes = (
(590,95,o),
(570,106,o),
(570,146,cs),
(570,356,ls),
(570,482,o),
(480,555,o),
(323,555,cs),
(225,555,o),
(119,527,o),
(38,479,c),
(84,537,l),
(136,379,l),
(71,372,l),
(154,419,o),
(222,440,o),
(288,440,cs),
(360,440,o),
(424,414,o),
(424,339,cs),
(424,128,ls),
(424,39,o),
(474,-10,o),
(546,-10,cs),
(594,-10,o),
(638,12,o),
(676,46,c),
(646,-69,l),
(607,151,l),
(637,109,l)
);
},
{
closed = 1;
nodes = (
(357,-10,o),
(447,63,o),
(476,178,c),
(422,239,l),
(415,150,o),
(359,89,o),
(275,89,cs),
(224,89,o),
(192,117,o),
(192,160,cs),
(192,233,o),
(281,261,o),
(442,233,c),
(452,307,l),
(210,362,o),
(40,296,o),
(40,151,cs),
(40,53,o),
(117,-10,o),
(232,-10,cs)
);
}
);
width = 642;
}
);
unicode = 97;
},
{
color = 9;
glyphname = b;
layers = (
{
.lastUpdate = 705313099.951;
background = {
shapes = (
{
pos = (19,545);
ref = n;
scale = (1,-1);
}
);
};
layerId = m009;
shapes = (
{
closed = 1;
nodes = (
(147,0,l),
(167,76,l),
(168,118,l),
(156,151,l),
(156,443,l),
(167,450,l),
(167,750,l),
(82,750,l),
(82,0,l)
);
},
{
pos = (4,0);
ref = _perut_b;
}
);
width = 603;
},
{
anchors = (
{
name = bottom;
pos = (343,0);
},
{
name = top;
pos = (343,750);
}
);
associatedMasterId = m009;
background = {
shapes = (
{
closed = 1;
nodes = (
(377,110,o),
(403,117,o),
(426,132,c),
(449,147,o),
(467,166,o),
(480,190,c),
(492,214,o),
(498,240,o),
(498,267,c),
(498,273,l),
(498,303,o),
(492,330,o),
(479,354,c),
(466,377,o),
(449,396,o),
(426,410,c),
(403,424,o),
(377,430,o),
(348,430,c),
(317,430,o),
(291,423,o),
(268,409,c),
(246,394,o),
(229,375,o),
(217,351,c),
(205,327,o),
(200,301,o),
(200,272,c),
(200,263,l),
(200,234,o),
(206,208,o),
(219,185,c),
(231,162,o),
(249,143,o),
(271,130,c),
(294,117,o),
(319,110,o),
(347,110,c)
);
},
{
closed = 1;
nodes = (
(344,-10,o),
(310,-4,o),
(279,8,c),
(249,21,o),
(224,37,o),
(204,58,c),
(184,79,o),
(168,102,o),
(158,128,c),
(158,410,l),
(166,437,o),
(179,461,o),
(198,482,c),
(217,504,o),
(242,521,o),
(272,533,c),
(302,545,o),
(336,552,o),
(374,552,c),
(427,552,o),
(474,539,o),
(515,514,c),
(556,489,o),
(587,455,o),
(610,413,c),
(633,370,o),
(644,324,o),
(644,273,c),
(644,264,l),
(644,211,o),
(633,163,o),
(610,122,c),
(587,81,o),
(555,48,o),
(515,25,c),
(475,1,o),
(431,-10,o),
(383,-10,c)
);
},
{
closed = 1;
nodes = (
(53,0,l),
(53,740,l),
(200,740,l),
(200,106,l),
(187,0,l)
);
}
);
};
layerId = "39D93B3F-3BBE-4227-9F9A-0897DBA04697";
name = "28 Oct 22 12.03";
shapes = (
{
closed = 1;
nodes = (
(167,0,l),
(199,106,l),
(199,740,l),
(53,740,l),
(53,0,l)
);
},
{
closed = 1;
nodes = (
(522,-10,o),
(637,99,o),
(637,276,cs),
(637,447,o),
(532,555,o),
(392,555,cs),
(303,555,o),
(232,511,o),
(187,441,c),
(182,103,l),
(232,27,o),
(298,-10,o),
(387,-10,cs)
);
},
{
closed = 1;
nodes = (
(263,107,o),
(206,177,o),
(206,272,cs),
(206,367,o),
(263,435,o),
(349,435,cs),
(432,435,o),
(488,376,o),
(488,274,cs),
(488,169,o),
(428,107,o),
(346,107,cs)
);
}
);
width = 660;
}
);
metricLeft = h;
metricRight = o;
unicode = 98;
},
{
color = 9;
glyphname = c;
layers = (
{
anchors = (
{
name = bar_ver;
pos = (307,273);
}
);
background = {
shapes = (
{
ref = o;
}
);
};
layerId = m009;
shapes = (
{
closed = 1;
nodes = (
(366,-10,o),
(429,8,o),
(479,67,c),
(488,13,l),
(410,140,l),
(444,136,l),
(405,89,o),
(366,66,o),
(305,66,cs),
(195,66,o),
(128,147,o),
(128,275,cs),
(128,409,o),
(204,479,o),
(301,479,cs),
(363,479,o),
(414,451,o),
(454,405,c),
(411,403,l),
(483,538,l),
(486,474,l),
(444,527,o),
(374,555,o),
(299,555,cs),
(156,555,o),
(42,453,o),
(42,274,cs),
(42,97,o),
(149,-10,o),
(298,-10,cs)
);
}
);
width = 492;
}
);
metricLeft = o;
unicode = 99;
},
{
color = 9;
glyphname = d;
layers = (
{
.lastUpdate = 705306305.422;
background = {
shapes = (
{
pos = (600,0);
ref = b;
scale = (-1,1);
}
);
};
layerId = m009;
shapes = (
{
closed = 1;
nodes = (
(518,0,l),
(518,750,l),
(433,750,l),
(433,450,l),
(444,443,l),
(444,151,l),
(431,119,l),
(431,83,l),
(453,0,l)
);
},
{
pos = (-10,0);
ref = _perut_d;
}
);
width = 600;
}
);
metricLeft = o;
metricRight = "=|h";
unicode = 100;
},
{
color = 9;
glyphname = e;
layers = (
{
background = {
shapes = (
{
pos = (-7,0);
ref = c;
}
);
};
layerId = m009;
shapes = (
{
closed = 1;
nodes = (
(385,-10,o),
(447,18,o),
(499,82,c),
(489,41,l),
(428,137,l),
(458,143,l),
(414,87,o),
(366,63,o),
(306,63,cs),
(195,63,o),
(125,146,o),
(125,257,c),
(102,252,l),
(537,252,l),
(494,205,l),
(518,446,o),
(431,555,o),
(280,555,cs),
(129,555,o),
(42,432,o),
(42,278,cs),
(42,95,o),
(151,-10,o),
(302,-10,cs)
);
},
{
closed = 1;
nodes = (
(125,416,o),
(186,481,o),
(280,481,cs),
(372,481,o),
(424,417,o),
(416,287,c),
(441,320,l),
(111,320,l),
(127,284,l)
);
}
);
width = 536;
}
);
metricLeft = o;
unicode = 101;
},
{
color = 9;
glyphname = f;
layers = (
{
background = {
shapes = (
{
pos = (-16,186);
ref = r;
}
);
};
layerId = m009;
shapes = (
{
closed = 1;
nodes = (
(188,0,l),
(188,487,l),
(178,470,l),
(299,470,l),
(299,545,l),
(175,545,l),
(186,535,l),
(186,591,ls),
(186,657,o),
(212,685,o),
(257,685,cs),
(289,685,o),
(315,674,o),
(335,658,c),
(325,663,l),
(367,745,l),
(372,719,l),
(346,743,o),
(311,761,o),
(255,761,cs),
(166,761,o),
(103,700,o),
(103,600,cs),
(103,563,ls),
(103,550,o),
(98,545,o),
(85,545,cs),
(18,545,l),
(18,470,l),
(114,470,l),
(103,486,l),
(103,0,l)
);
}
);
width = 310;
}
);
unicode = 102;
},
{
color = 9;
glyphname = g;
layers = (
{
background = {
shapes = (
{
closed = 1;
nodes = (
(388,-245,o),
(486,-166,o),
(486,-58,cs),
(486,-20,o),
(474,14,o),
(448,40,cs),
(373,115,o),
(220,75,o),
(166,102,cs),
(153,109,o),
(148,118,o),
(148,131,cs),
(148,155,o),
(166,173,o),
(220,206,c),
(155,234,l),
(74,186,o),
(56,141,o),
(56,108,cs),
(56,83,o),
(66,54,o),
(98,36,c),
(55,8,o),
(16,-38,o),
(16,-99,cs),
(16,-191,o),
(98,-245,o),
(234,-245,cs)
);
},
{
closed = 1;
nodes = (
(160,-176,o),
(108,-143,o),
(108,-82,cs),
(108,-44,o),
(132,-10,o),
(172,16,c),
(247,9,o),
(335,21,o),
(372,-15,cs),
(386,-29,o),
(394,-49,o),
(394,-73,cs),
(394,-131,o),
(343,-176,o),
(244,-176,cs)
);
},
{
closed = 1;
nodes = (
(336,186,o),
(427,246,o),
(427,368,cs),
(427,484,o),
(344,555,o),
(236,555,cs),
(123,555,o),
(44,473,o),
(44,364,cs),
(44,247,o),
(132,186,o),
(235,186,cs)
);
},
{
closed = 1;
nodes = (
(171,253,o),
(125,300,o),
(125,371,cs),
(125,446,o),
(177,486,o),
(236,486,cs),
(302,486,o),
(347,454,o),
(347,376,cs),
(347,292,o),
(296,253,o),
(236,253,cs)
);
},
{
closed = 1;
nodes = (
(371,473,o),
(395,483,o),
(418,483,cs),
(449,483,o),
(477,464,o),
(503,437,c),
(459,440,l),
(519,563,l),
(519,524,l),
(491,545,o),
(464,555,o),
(434,555,cs),
(381,555,o),
(344,525,o),
(324,472,c),
(364,437,l)
);
}
);
};
layerId = m009;
shapes = (
{
closed = 1;
nodes = (
(336,187,o),
(427,246,o),
(427,368,cs),
(427,484,o),
(344,555,o),
(236,555,cs),
(123,555,o),
(44,473,o),
(44,364,cs),
(44,247,o),
(132,187,o),
(235,187,cs)
);
},
{
closed = 1;
nodes = (
(171,253,o),
(125,300,o),
(125,371,cs),
(125,446,o),
(177,486,o),
(236,486,cs),
(302,486,o),
(347,454,o),
(347,376,cs),
(347,292,o),
(296,253,o),
(236,253,cs)
);
},
{
closed = 1;
nodes = (
(368,527,o),
(386,546,o),
(415,546,cs),
(435,546,o),
(458,537,o),
(477,520,c),
(452,502,l),
(509,630,l),
(518,585,l),
(484,613,o),
(454,623,o),
(424,623,cs),
(369,623,o),
(330,589,o),
(311,517,c),
(357,492,l)
);
},
{
closed = 1;
nodes = (
(401,-244,o),
(486,-163,o),
(486,-56,cs),
(486,-2,o),
(465,33,o),
(435,54,cs),
(383,90,o),
(306,83,o),
(217,88,cs),
(161,92,o),
(144,108,o),
(144,132,cs),
(144,160,o),
(170,175,o),
(220,206,c),
(158,231,l),
(91,195,o),
(59,157,o),
(59,110,cs),
(59,60,o),
(103,29,o),
(150,18,cs),
(208,5,o),
(302,14,o),
(349,1,cs),
(379,-7,o),
(399,-27,o),
(399,-66,cs),
(399,-137,o),
(335,-179,o),
(242,-179,cs),
(156,-179,o),
(108,-139,o),
(108,-86,cs),
(108,-44,o),
(136,-1,o),
(213,40,c),
(128,49,l),
(64,16,o),
(20,-42,o),
(20,-99,cs),
(20,-183,o),
(93,-244,o),
(236,-244,cs)
);
}
);
width = 481;
},
{
associatedMasterId = m009;
background = {
shapes = (
{
closed = 1;
nodes = (
(388,-245,o),
(486,-166,o),
(486,-58,cs),
(486,-20,o),
(474,14,o),
(448,40,cs),
(373,115,o),
(220,75,o),
(166,102,cs),
(153,109,o),
(148,118,o),
(148,131,cs),
(148,155,o),
(166,173,o),
(220,206,c),
(155,234,l),
(74,186,o),
(56,141,o),
(56,108,cs),
(56,83,o),
(66,54,o),
(98,36,c),
(55,8,o),
(16,-38,o),
(16,-99,cs),
(16,-191,o),
(98,-245,o),
(234,-245,cs)
);
},
{
closed = 1;
nodes = (
(160,-176,o),
(108,-143,o),
(108,-82,cs),
(108,-44,o),
(132,-10,o),
(172,16,c),
(247,9,o),
(335,21,o),
(372,-15,cs),
(386,-29,o),
(394,-49,o),
(394,-73,cs),
(394,-131,o),
(343,-176,o),
(244,-176,cs)
);
},
{
closed = 1;
nodes = (
(336,186,o),
(427,246,o),
(427,368,cs),
(427,484,o),
(344,555,o),
(236,555,cs),
(123,555,o),
(44,473,o),
(44,364,cs),
(44,247,o),
(132,186,o),
(235,186,cs)
);
},
{
closed = 1;
nodes = (
(171,253,o),
(125,300,o),
(125,371,cs),
(125,446,o),
(177,486,o),
(236,486,cs),
(302,486,o),
(347,454,o),
(347,376,cs),
(347,292,o),
(296,253,o),
(236,253,cs)
);
},
{
closed = 1;
nodes = (
(371,473,o),
(395,483,o),
(418,483,cs),
(449,483,o),
(477,464,o),
(503,437,c),
(459,440,l),
(519,563,l),
(519,524,l),
(491,545,o),
(464,555,o),
(434,555,cs),
(381,555,o),
(344,525,o),
(324,472,c),
(364,437,l)
);
}
);
};
layerId = "D8169FD8-8EE0-4282-A629-AF6AB8D8A2E6";
name = "27 Apr 23 16.04";
shapes = (
{
closed = 1;
nodes = (
(336,187,o),
(427,246,o),
(427,368,cs),
(427,484,o),
(344,555,o),
(236,555,cs),
(123,555,o),
(44,473,o),
(44,364,cs),
(44,247,o),
(132,187,o),
(235,187,cs)
);
},
{
closed = 1;
nodes = (
(171,253,o),
(125,300,o),
(125,371,cs),
(125,446,o),
(177,486,o),
(236,486,cs),
(302,486,o),
(347,454,o),
(347,376,cs),
(347,292,o),
(296,253,o),
(236,253,cs)
);
},
{
closed = 1;
nodes = (
(356,528,o),
(377,546,o),
(406,546,cs),
(426,546,o),
(449,537,o),
(468,520,c),
(441,502,l),
(498,630,l),
(509,585,l),
(475,613,o),
(445,622,o),
(414,622,cs),
(362,622,o),
(318,589,o),
(300,517,c),
(348,492,l)
);
},
{
closed = 1;
nodes = (
(401,-244,o),
(486,-163,o),
(486,-56,cs),
(486,-2,o),
(465,33,o),
(435,54,cs),
(383,90,o),
(306,83,o),
(217,88,cs),
(161,92,o),
(144,108,o),
(144,132,cs),
(144,160,o),
(170,175,o),
(220,206,c),
(158,231,l),
(91,195,o),
(59,157,o),
(59,110,cs),
(59,60,o),
(103,28,o),
(150,17,cs),
(208,4,o),
(302,14,o),
(349,1,cs),
(379,-7,o),
(399,-27,o),
(399,-66,cs),
(399,-137,o),
(335,-179,o),
(242,-179,cs),
(156,-179,o),
(108,-139,o),
(108,-86,cs),
(108,-44,o),
(136,-1,o),
(213,40,c),
(150,60,l),
(57,24,o),
(20,-42,o),
(20,-99,cs),
(20,-183,o),
(93,-244,o),
(236,-244,cs)
);
}
);
width = 495;
},
{
associatedMasterId = m009;
background = {
shapes = (
{
closed = 1;
nodes = (
(388,-245,o),
(486,-166,o),
(486,-58,cs),
(486,-20,o),
(474,14,o),
(448,40,cs),
(373,115,o),
(220,75,o),
(166,102,cs),
(153,109,o),
(148,118,o),
(148,131,cs),
(148,155,o),
(166,173,o),
(220,206,c),
(155,234,l),
(74,186,o),
(56,141,o),
(56,108,cs),
(56,83,o),
(66,54,o),
(98,36,c),
(55,8,o),
(16,-38,o),
(16,-99,cs),
(16,-191,o),
(98,-245,o),
(234,-245,cs)
);
},
{
closed = 1;
nodes = (
(160,-176,o),
(108,-143,o),
(108,-82,cs),
(108,-44,o),
(132,-10,o),
(172,16,c),
(247,9,o),
(335,21,o),
(372,-15,cs),
(386,-29,o),
(394,-49,o),
(394,-73,cs),
(394,-131,o),
(343,-176,o),
(244,-176,cs)
);
},
{
closed = 1;
nodes = (
(336,186,o),
(427,246,o),
(427,368,cs),
(427,484,o),
(344,555,o),
(236,555,cs),
(123,555,o),
(44,473,o),
(44,364,cs),
(44,247,o),
(132,186,o),
(235,186,cs)
);
},
{
closed = 1;
nodes = (
(171,253,o),
(125,300,o),
(125,371,cs),
(125,446,o),
(177,486,o),
(236,486,cs),
(302,486,o),
(347,454,o),
(347,376,cs),
(347,292,o),
(296,253,o),
(236,253,cs)
);
},
{
closed = 1;
nodes = (
(371,473,o),
(395,483,o),
(418,483,cs),
(449,483,o),
(477,464,o),
(503,437,c),
(459,440,l),
(519,563,l),
(519,524,l),
(491,545,o),
(464,555,o),
(434,555,cs),
(381,555,o),
(344,525,o),
(324,472,c),
(364,437,l)
);
}
);
};
layerId = "D1BA8DDE-B896-45BE-958C-B97141596550";
name = "27 Apr 23 16.09";
shapes = (
{
closed = 1;
nodes = (
(395,-244,o),
(480,-163,o),
(480,-56,cs),
(480,-2,o),
(459,33,o),
(429,54,cs),
(377,90,o),
(306,83,o),
(217,88,cs),
(161,92,o),
(144,108,o),
(144,132,cs),
(144,160,o),
(170,175,o),
(220,206,c),
(158,231,l),
(91,195,o),
(59,157,o),
(59,110,cs),
(59,60,o),
(103,28,o),
(150,17,cs),
(208,4,o),
(296,14,o),
(343,1,cs),
(373,-7,o),
(393,-27,o),
(393,-66,cs),
(393,-137,o),
(329,-179,o),
(242,-179,cs),
(156,-179,o),
(108,-139,o),
(108,-86,cs),
(108,-44,o),
(136,-1,o),
(213,40,c),
(150,60,l),
(57,24,o),
(20,-42,o),
(20,-99,cs),
(20,-183,o),
(93,-244,o),
(236,-244,cs)
);
},
{
closed = 1;
nodes = (
(336,187,o),
(427,246,o),
(427,368,cs),
(427,484,o),
(344,555,o),
(236,555,cs),
(123,555,o),
(44,473,o),
(44,364,cs),
(44,247,o),
(132,187,o),
(235,187,cs)
);
},
{
closed = 1;
nodes = (
(171,253,o),
(125,300,o),
(125,371,cs),
(125,446,o),
(177,486,o),
(236,486,cs),
(302,486,o),
(347,454,o),
(347,376,cs),
(347,292,o),
(296,253,o),
(236,253,cs)
);
},
{
closed = 1;
nodes = (
(413,492,o),
(474,484,o),
(518,459,c),
(482,441,l),
(513,590,l),
(554,535,l),
(465,568,o),
(367,555,o),
(310,532,c),
(358,482,l)
);
}
);
width = 495;
},
{
associatedMasterId = m009;
background = {
shapes = (
{
closed = 1;
nodes = (
(388,-245,o),
(486,-166,o),
(486,-58,cs),
(486,-20,o),
(474,14,o),
(448,40,cs),
(373,115,o),
(220,75,o),
(166,102,cs),
(153,109,o),
(148,118,o),
(148,131,cs),
(148,155,o),
(166,173,o),
(220,206,c),
(155,234,l),
(74,186,o),
(56,141,o),
(56,108,cs),
(56,83,o),
(66,54,o),
(98,36,c),
(55,8,o),
(16,-38,o),
(16,-99,cs),
(16,-191,o),
(98,-245,o),
(234,-245,cs)
);
},
{
closed = 1;
nodes = (
(160,-176,o),
(108,-143,o),
(108,-82,cs),
(108,-44,o),
(132,-10,o),
(172,16,c),
(247,9,o),
(335,21,o),
(372,-15,cs),
(386,-29,o),
(394,-49,o),
(394,-73,cs),
(394,-131,o),
(343,-176,o),
(244,-176,cs)
);
},
{
closed = 1;
nodes = (
(336,186,o),
(427,246,o),
(427,368,cs),
(427,484,o),
(344,555,o),
(236,555,cs),
(123,555,o),
(44,473,o),
(44,364,cs),
(44,247,o),
(132,186,o),
(235,186,cs)
);
},
{
closed = 1;
nodes = (
(171,253,o),
(125,300,o),
(125,371,cs),
(125,446,o),
(177,486,o),
(236,486,cs),
(302,486,o),
(347,454,o),
(347,376,cs),
(347,292,o),
(296,253,o),
(236,253,cs)
);
},
{
closed = 1;
nodes = (
(371,473,o),
(395,483,o),
(418,483,cs),
(449,483,o),
(477,464,o),
(503,437,c),
(459,440,l),
(519,563,l),
(519,524,l),
(491,545,o),
(464,555,o),
(434,555,cs),
(381,555,o),
(344,525,o),
(324,472,c),
(364,437,l)
);
}
);
};
layerId = "3AFD9FA9-1F4C-4F63-B2E6-4CEAC68294F4";
name = "27 Apr 23 16.25";
shapes = (
{
closed = 1;
nodes = (
(395,-244,o),
(480,-163,o),
(480,-56,cs),
(480,-2,o),
(459,33,o),
(429,54,cs),
(377,90,o),
(306,83,o),
(217,88,cs),
(161,92,o),
(144,108,o),
(144,132,cs),
(144,160,o),
(170,175,o),
(220,206,c),
(158,231,l),
(91,195,o),
(59,157,o),
(59,110,cs),
(59,60,o),
(103,28,o),
(150,17,cs),
(208,4,o),
(296,14,o),
(343,1,cs),
(373,-7,o),
(393,-27,o),
(393,-66,cs),
(393,-137,o),
(329,-179,o),
(242,-179,cs),
(156,-179,o),
(108,-139,o),
(108,-86,cs),
(108,-44,o),
(136,-1,o),
(213,40,c),
(150,60,l),
(57,24,o),
(20,-42,o),
(20,-99,cs),
(20,-183,o),
(93,-244,o),
(236,-244,cs)
);
},
{
closed = 1;
nodes = (
(336,187,o),
(427,246,o),
(427,368,cs),
(427,484,o),
(344,555,o),
(236,555,cs),
(123,555,o),
(44,473,o),
(44,364,cs),
(44,247,o),
(132,187,o),
(235,187,cs)
);
},
{
closed = 1;
nodes = (
(171,253,o),
(125,300,o),
(125,371,cs),
(125,446,o),
(177,486,o),
(236,486,cs),
(302,486,o),
(347,454,o),
(347,376,cs),
(347,292,o),
(296,253,o),
(236,253,cs)
);
},
{
closed = 1;
nodes = (
(494,476,l),
(494,545,l),
(295,545,l),
(331,476,l)
);
}
);
width = 495;
},
{
associatedMasterId = m009;
background = {
shapes = (
{
closed = 1;
nodes = (
(388,-245,o),
(486,-166,o),
(486,-58,cs),
(486,-20,o),
(474,14,o),
(448,40,cs),
(373,115,o),
(220,75,o),
(166,102,cs),
(153,109,o),
(148,118,o),
(148,131,cs),
(148,155,o),
(166,173,o),
(220,206,c),
(155,234,l),
(74,186,o),
(56,141,o),
(56,108,cs),
(56,83,o),
(66,54,o),
(98,36,c),
(55,8,o),
(16,-38,o),
(16,-99,cs),
(16,-191,o),
(98,-245,o),
(234,-245,cs)
);
},
{
closed = 1;
nodes = (
(160,-176,o),
(108,-143,o),
(108,-82,cs),
(108,-44,o),
(132,-10,o),
(172,16,c),
(247,9,o),
(335,21,o),
(372,-15,cs),
(386,-29,o),
(394,-49,o),
(394,-73,cs),
(394,-131,o),
(343,-176,o),
(244,-176,cs)
);
},
{
closed = 1;
nodes = (
(336,186,o),
(427,246,o),
(427,368,cs),
(427,484,o),
(344,555,o),
(236,555,cs),
(123,555,o),
(44,473,o),
(44,364,cs),
(44,247,o),
(132,186,o),
(235,186,cs)
);
},
{
closed = 1;
nodes = (
(171,253,o),
(125,300,o),
(125,371,cs),
(125,446,o),
(177,486,o),
(236,486,cs),
(302,486,o),
(347,454,o),
(347,376,cs),
(347,292,o),
(296,253,o),
(236,253,cs)
);
},
{
closed = 1;
nodes = (
(371,473,o),
(395,483,o),
(418,483,cs),
(449,483,o),
(477,464,o),
(503,437,c),
(459,440,l),
(519,563,l),
(519,524,l),
(491,545,o),
(464,555,o),
(434,555,cs),
(381,555,o),
(344,525,o),
(324,472,c),
(364,437,l)
);
}
);
};
layerId = "8EF0D45E-B1D5-4DB7-8F08-7514A5233096";
name = "27 Apr 23 16.39";
shapes = (
{
closed = 1;
nodes = (
(336,187,o),
(427,246,o),
(427,368,cs),
(427,484,o),
(344,555,o),
(236,555,cs),
(123,555,o),
(44,473,o),
(44,364,cs),
(44,247,o),
(132,187,o),
(235,187,cs)
);
},
{
closed = 1;
nodes = (
(171,253,o),
(125,300,o),
(125,371,cs),
(125,446,o),
(177,486,o),
(236,486,cs),
(302,486,o),
(347,454,o),
(347,376,cs),
(347,292,o),
(296,253,o),
(236,253,cs)
);
},
{
closed = 1;
nodes = (
(368,527,o),
(386,546,o),
(415,546,cs),
(435,546,o),
(458,537,o),
(477,520,c),
(452,502,l),
(509,630,l),
(518,585,l),
(484,613,o),
(454,623,o),
(424,623,cs),
(369,623,o),
(327,589,o),
(308,517,c),
(357,492,l)
);
},
{
closed = 1;
nodes = (
(401,-244,o),
(486,-163,o),
(486,-56,cs),
(486,-2,o),
(465,33,o),
(435,54,cs),
(383,90,o),
(306,83,o),
(217,88,cs),
(161,92,o),
(144,108,o),
(144,132,cs),
(144,160,o),
(170,175,o),
(220,206,c),
(158,231,l),
(91,195,o),
(59,157,o),
(59,110,cs),
(59,60,o),
(103,28,o),
(150,17,cs),
(208,4,o),
(302,14,o),
(349,1,cs),
(379,-7,o),
(399,-27,o),
(399,-66,cs),
(399,-137,o),
(335,-179,o),
(242,-179,cs),
(156,-179,o),
(108,-139,o),
(108,-86,cs),
(108,-44,o),
(136,-1,o),
(213,40,c),
(150,60,l),
(57,24,o),
(20,-42,o),
(20,-99,cs),
(20,-183,o),
(93,-244,o),
(236,-244,cs)
);
}
);
width = 487;
}
);
unicode = 103;
},
{
color = 9;
glyphname = i;
layers = (
{
background = {
shapes = (
{
closed = 1;
nodes = (
(36,609,l),
(192,609,l),
(192,740,l),
(36,740,l)
);
},
{
closed = 1;
nodes = (
(42,0,l),
(188,0,l),
(188,542,l),
(42,542,l)
);
}
);
};
guides = (
{
angle = 90;
pos = (209,201);
},
{
angle = 270;
pos = (41,201);
},
{
pos = (183,568);
}
);
layerId = m009;
shapes = (
{
closed = 1;
nodes = (
(170,662,l),
(170,750,l),
(75,750,l),
(75,662,l)
);
},
{
closed = 1;
nodes = (
(165,0,l),
(165,545,l),
(80,545,l),
(80,0,l)
);
}
);
width = 245;
}
);
metricRight = "=|";
unicode = 105;
},
{
color = 9;
glyphname = j;
layers = (
{
background = {
shapes = (
{
angle = 180;
pos = (238,500);
ref = f;
}
);
};
layerId = m009;
shapes = (
{
closed = 1;
nodes = (
(110,-215,o),
(165,-175,o),
(165,-78,cs),
(165,545,l),
(80,545,l),
(80,-82,ls),
(80,-123,o),
(61,-139,o),
(32,-139,cs),
(13,-139,o),
(-9,-131,o),
(-35,-117,c),
(-16,-114,l),
(-63,-201,l),
(-61,-185,l),
(-41,-201,o),
(1,-215,o),
(40,-215,cs)
);
},
{
closed = 1;
nodes = (
(170,662,l),
(170,750,l),
(75,750,l),
(75,662,l)
);
}
);
width = 245;
}
);
unicode = 106;
},
{
color = 9;
glyphname = k;
layers = (
{
anchors = (
{
name = connect;
pos = (167,0);
}
);
background = {
shapes = (
{
pos = (35,0);
ref = x;
},
{
pos = (8,0);
ref = n;
}
);
};
layerId = m009;
shapes = (
{
closed = 1;
nodes = (
(167,0,l),
(167,163,ls),
(167,172,o),
(170,179,o),
(176,186,cs),
(263,284,l),
(241,291,l),
(417,0,l),
(516,0,l),
(301,345,l),
(298,319,l),
(504,545,l),
(402,545,l),
(153,270,l),
(167,249,l),
(167,750,l),
(82,750,l),
(82,0,l)
);
}
);
width = 514;
},
{
anchors = (
{
name = connect;
pos = (167,0);
}
);
associatedMasterId = m009;
background = {
shapes = (
{
pos = (35,0);
ref = x;
},
{
pos = (8,0);
ref = n;
}
);
};
layerId = "4232D962-BAF4-43CD-8B17-9A1956212D7F";
name = "27 Apr 23 18.05";
shapes = (
{
closed = 1;
nodes = (
(167,0,l),
(167,163,ls),
(167,172,o),
(170,179,o),
(176,186,cs),
(259,279,l),
(230,276,l),
(417,0,l),
(518,0,l),
(289,330,l),
(285,303,l),
(504,545,l),
(402,545,l),
(153,270,l),
(167,249,l),
(167,750,l),
(82,750,l),
(82,0,l)
);
}
);
width = 514;
}
);
metricLeft = h;
unicode = 107;
},
{
color = 9;
glyphname = l;
layers = (
{
background = {
shapes = (
{
pos = (-288,0);
ref = a;
}
);
};
layerId = m009;
shapes = (
{
closed = 1;
nodes = (
(201,-10,o),
(228,-5,o),
(250,12,c),
(237,-7,l),
(211,75,l),
(236,69,l),
(221,63,o),
(205,60,o),
(192,60,cs),
(170,60,o),
(156,71,o),
(156,107,cs),
(156,750,l),
(71,750,l),
(71,108,ls),
(71,34,o),
(108,-10,o),
(176,-10,cs)
);
}
);
width = 237;
}
);
unicode = 108;
},
{
color = 9;
glyphname = m;
layers = (
{
.lastUpdate = 705306305.377;
anchors = (
{
name = connect;
pos = (518,0);
}
);
background = {
shapes = (
{
pos = (1,0);
ref = n;
},
{
pos = (324,0);
ref = n;
}
);
};
layerId = m009;
shapes = (
{
closed = 1;
nodes = (
(841,0,l),
(841,344,ls),
(841,468,o),
(773,555,o),
(659,555,cs),
(652,555,ls),
(585,555,o),
(522,521,o),
(482,462,c),
(470,462,l),
(473,332,l),
(504,351,l),
(517,435,o),
(571,479,o),
(638,479,cs),
(710,479,o),
(756,436,o),
(756,335,cs),
(756,0,l)
);
},
{
alignment = -1;
pos = (46,0);
ref = _part.stem;
},
{
closed = 1;
nodes = (
(504,0,l),
(504,414,l),
(492,414,l),
(478,510,o),
(403,555,o),
(330,555,cs),
(321,555,ls),
(254,555,o),
(196,509,o),
(170,468,c),
(157,468,l),
(159,332,l),
(167,332,l),
(182,412,o),
(226,479,o),
(306,479,cs),
(385,479,o),
(420,423,o),
(420,339,cs),
(420,0,l)
);
}
);
width = 909;
}
);
metricLeft = n;
metricRight = n;
unicode = 109;
},
{
color = 9;
glyphname = o;
layers = (
{
background = {
shapes = (
{
pos = (37,0);
ref = n;
}
);
};
layerId = m009;
shapes = (
{
closed = 1;
nodes = (
(441,-10,o),
(552,89,o),
(552,273,cs),
(552,454,o),
(441,555,o),
(297,555,cs),
(153,555,o),
(42,451,o),
(42,273,cs),
(42,93,o),
(153,-10,o),
(297,-10,cs)
);
},
{
closed = 1;
nodes = (
(210,66,o),
(129,121,o),
(129,273,cs),
(129,427,o),
(210,479,o),
(297,479,cs),
(384,479,o),
(465,427,o),
(465,273,cs),
(465,119,o),
(386,66,o),
(297,66,cs)
);
}
);
width = 594;
}
);
metricRight = "=|";
unicode = 111;
},
{
color = 9;
glyphname = p;
layers = (
{
.lastUpdate = 705306305.413;
background = {
shapes = (
{
pos = (24,0);
ref = b;
}
);
};
guides = (
{
pos = (1043,869);
}
);
layerId = m009;
shapes = (
{
closed = 1;
nodes = (
(167,-205,l),
(167,95,l),
(156,102,l),
(156,394,l),
(172,427,l),
(172,449,l),
(146,545,l),
(82,545,l),
(82,-205,l)
);
},
{
pos = (4,0);
ref = _perut_b;
}
);
width = 603;
}
);
metricLeft = n;
metricRight = o;
unicode = 112;
},
{
color = 9;
glyphname = q;
layers = (
{
.lastUpdate = 705306305.384;
background = {
shapes = (
{
pos = (566,0);
ref = p;
scale = (-1,1);
}
);
};
layerId = m009;
shapes = (
{
closed = 1;
nodes = (
(516,-205,l),
(516,545,l),
(452,545,l),
(431,469,l),
(431,437,l),
(442,413,l),
(442,102,l),
(431,95,l),
(431,-205,l)
);
},
{
pos = (-10,0);
ref = _perut_d;
}
);
width = 598;
}
);
metricLeft = o;
metricRight = "=|n";
unicode = 113;
},
{
color = 9;
glyphname = r;
layers = (
{
anchors = (
{
name = connect;
pos = (167,0);
}
);
background = {
shapes = (
{
ref = n;
}
);
};
layerId = m009;
shapes = (
{
closed = 1;
nodes = (
(167,0,l),
(167,332,ls),
(167,405,o),
(204,473,o),
(271,473,cs),
(308,473,o),
(337,452,o),
(354,413,c),
(315,408,l),
(394,565,l),
(398,498,l),
(368,541,o),
(329,555,o),
(291,555,cs),
(240,555,o),
(199,531,o),
(168,480,c),
(165,480,l),
(145,545,l),
(82,545,l),
(82,0,l)
);
}
);
width = 366;
}
);
metricLeft = n;
unicode = 114;
},
{
color = 9;
glyphname = s;
layers = (
{
background = {
shapes = (
{
pos = (-85,0);
ref = c;
}
);
};
layerId = m009;
shapes = (
{
closed = 1;
nodes = (
(347,-10,o),
(401,60,o),
(401,151,cs),
(401,357,o),
(117,275,o),
(117,399,cs),
(117,454,o),
(163,481,o),
(220,481,cs),
(276,481,o),
(327,459,o),
(364,416,c),
(327,403,l),
(398,538,l),
(397,487,l),
(355,533,o),
(290,556,o),
(226,556,cs),
(96,556,o),
(38,477,o),
(38,398,cs),
(38,190,o),
(318,291,o),
(318,148,cs),
(318,104,o),
(291,66,o),
(211,66,cs),
(153,66,o),
(95,86,o),
(36,130,c),
(72,129,l),
(12,22,l),
(-4,59,l),
(64,11,o),
(131,-10,o),
(211,-10,cs)
);
}
);
width = 421;
},
{
associatedMasterId = m009;
background = {
shapes = (
{
pos = (-65,0);
ref = c;
}
);
};
layerId = "D4BC3C3D-9187-4D9C-B000-D473FDBDD0D3";
name = "24 Apr 23 11.16";
shapes = (
{
closed = 1;
nodes = (
(354,-10,o),
(412,75,o),
(412,148,cs),
(412,344,o),
(121,287,o),
(124,409,cs),
(125,454,o),
(165,483,o),
(233,483,cs),
(286,483,o),
(344,465,o),
(399,415,c),
(347,403,l),
(409,538,l),
(412,494,l),
(379,521,o),
(321,555,o),
(237,555,cs),
(132,555,o),
(45,501,o),
(45,400,cs),
(45,214,o),
(331,279,o),
(331,145,cs),
(331,102,o),
(302,63,o),
(225,63,cs),
(146,63,o),
(71,104,o),
(25,146,c),
(71,147,l),
(0,20,l),
(-9,76,l),
(49,26,o),
(127,-10,o),
(222,-10,cs)
);
}
);
width = 440;
},
{
associatedMasterId = m009;
background = {
shapes = (
{
pos = (433,0);
ref = a;
scale = (-1,1);
}
);
};
layerId = "DBB1F33A-B970-4841-9DFA-D89DB7A3562A";
name = "28 Apr 23 10.44";
shapes = (
{
closed = 1;
nodes = (
(345,-10,o),
(401,65,o),
(401,148,cs),
(401,341,o),
(114,298,o),
(117,411,cs),
(118,453,o),
(153,481,o),
(218,481,cs),
(271,481,o),
(329,458,o),
(364,416,c),
(332,403,l),
(401,538,l),
(397,487,l),
(361,523,o),
(305,555,o),
(221,555,cs),
(112,555,o),
(36,493,o),
(36,402,cs),
(36,220,o),
(316,273,o),
(316,145,cs),
(316,102,o),
(285,64,o),
(213,64,cs),
(130,64,o),
(55,108,o),
(9,150,c),
(83,149,l),
(12,22,l),
(-25,75,l),
(33,26,o),
(121,-10,o),
(208,-10,cs)
);
}
);
width = 421;
},
{
associatedMasterId = m009;
background = {
shapes = (
{
pos = (-85,0);
ref = c;
}
);
};
layerId = "86809259-95F5-4196-A8E2-E06F65CBA56A";
name = "28 Apr 23 11.24";
shapes = (
{
closed = 1;
nodes = (
(322,-10,o),
(401,45,o),
(401,150,cs),
(401,357,o),
(115,274,o),
(117,400,cs),
(118,444,o),
(154,479,o),
(224,479,cs),
(285,479,o),
(333,452,o),
(364,416,c),
(327,403,l),
(398,538,l),
(397,487,l),
(360,527,o),
(300,555,o),
(225,555,cs),
(113,555,o),
(38,491,o),
(38,398,cs),
(38,190,o),
(318,291,o),
(318,148,cs),
(318,94,o),
(276,67,o),
(212,67,cs),
(158,67,o),
(96,85,o),
(36,130,c),
(72,129,l),
(12,22,l),
(-4,59,l),
(65,10,o),
(137,-10,o),
(220,-10,cs)
);
}
);
width = 421;
}
);
unicode = 115;
},
{
color = 9;
glyphname = t;
layers = (
{
background = {
shapes = (
{
pos = (15,751);
ref = f;
scale = (1,-1);
}
);
};
layerId = m009;
shapes = (
{
closed = 1;
nodes = (
(286,-10,o),
(324,-3,o),
(360,16,c),
(348,-7,l),
(318,89,l),
(345,87,l),
(316,73,o),
(285,65,o),
(257,65,cs),
(218,65,o),
(184,78,o),
(184,146,cs),
(184,484,l),
(172,470,l),
(334,470,l),
(334,545,l),
(175,545,l),
(183,531,l),
(183,690,l),
(100,690,l),
(100,563,ls),
(100,550,o),
(95,545,o),
(82,545,cs),
(14,545,l),
(14,470,l),
(108,470,l),
(99,495,l),
(99,144,ls),
(99,23,o),
(174,-10,o),
(247,-10,cs)
);
}
);
width = 344;
},
{
associatedMasterId = m009;
background = {
shapes = (
{
closed = 1;
nodes = (
(253,-10,o),
(269,-6,o),
(292,8,c),
(289,-7,l),
(265,68,l),
(276,64,l),
(230,44,o),
(207,73,o),
(207,108,cs),
(207,750,l),
(122,750,l),
(122,112,ls),
(122,37,o),
(160,-10,o),
(232,-10,cs)
);
}
);
};
layerId = "D6F56CFB-2345-40DD-9CC0-06A16C225C4A";
name = "25 Apr 23 17.11";
shapes = (
{
closed = 1;
nodes = (
(235,-10,o),
(271,-8,o),
(292,9,c),
(286,-7,l),
(260,76,l),
(276,71,l),
(205,46,o),
(156,72,o),
(156,137,cs),
(156,489,l),
(144,475,l),
(267,475,l),
(267,545,l),
(147,545,l),
(155,531,l),
(155,690,l),
(72,690,l),
(72,539,l),
(80,545,l),
(17,545,l),
(17,475,l),
(80,475,l),
(71,482,l),
(71,150,ls),
(71,54,o),
(117,-10,o),
(216,-10,cs)
);
}
);
width = 287;
}
);
unicode = 116;
},
{
color = 9;
glyphname = u;
layers = (
{
layerId = m009;
shapes = (
{
closed = 1;
nodes = (
(249,-10,ls),
(312,-10,o),
(369,25,o),
(406,77,c),
(420,77,l),
(417,213,l),
(409,213,l),
(401,148,o),
(351,66,o),
(267,66,cs),
(195,66,o),
(153,109,o),
(153,210,cs),
(153,545,l),
(68,545,l),
(68,200,ls),
(68,76,o),
(132,-10,o),
(241,-10,cs)
);
},
{
closed = 1;
nodes = (
(494,0,l),
(494,545,l),
(409,545,l),
(409,79,l),
(429,0,l)
);
}
);
width = 576;
}
);
metricLeft = "=|n";
metricRight = "=|n";
unicode = 117;
},
{
color = 9;
glyphname = v;
layers = (
{
anchors = (
{
name = ytail;
pos = (258,0);
}
);
background = {
shapes = (
{
pos = (-28,0);
ref = V;
},
{
pos = (-39,0);
ref = o;
}
);
};
layerId = m009;
shapes = (
{
closed = 1;
nodes = (
(314,0,l),
(505,545,l),
(412,545,l),
(257,62,l),
(258,64,l),
(104,545,l),
(10,545,l),
(201,0,l)
);
}
);
width = 515;
}
);
metricRight = "=|";
unicode = 118;
},
{
color = 9;
glyphname = w;
layers = (
{
background = {
shapes = (
{
pos = (4,0);
ref = v;
}
);
};
layerId = m009;
shapes = (
{
closed = 1;
nodes = (
(271,0,l),
(386,515,l),
(356,515,l),
(482,0,l),
(593,0,l),
(742,545,l),
(655,545,l),
(531,62,l),
(541,64,l),
(425,545,l),
(327,545,l),
(215,62,l),
(225,64,l),
(102,545,l),
(13,545,l),
(162,0,l)
);
}
);
width = 755;
},
{
anchors = (
{
name = ytail;
pos = (247,0);
}
);
associatedMasterId = m009;
background = {
shapes = (
{
pos = (13,0);
ref = v;
}
);
};
layerId = "17E2EF85-0121-4951-B15F-07863FD7F2D0";
name = "24 Apr 23 14.52";
shapes = (
{
closed = 1;
nodes = (
(279,0,l),
(403,522,l),
(373,510,l),
(495,0,l),
(604,0,l),
(748,545,l),
(654,545,l),
(534,38,l),
(558,45,l),
(441,545,l),
(339,545,l),
(225,52,l),
(241,54,l),
(127,545,l),
(33,545,l),
(172,0,l)
);
}
);
width = 781;
}
);
metricRight = "=|";
unicode = 119;
},
{
color = 9;
glyphname = x;
layers = (
{
background = {
shapes = (
{
pos = (-11,0);
ref = v;
}
);
};
layerId = m009;
shapes = (
{
closed = 1;
nodes = (
(99,0,l),
(261,242,l),
(285,267,l),
(477,545,l),
(383,545,l),
(237,321,l),
(214,296,l),
(-1,0,l)
);
},
{
closed = 1;
nodes = (
(500,0,l),
(285,299,l),
(234,245,l),
(401,0,l)
);
},
{
closed = 1;
nodes = (
(264,321,l),
(113,545,l),
(15,545,l),
(212,268,l)
);
}
);
width = 495;
}
);
unicode = 120;
},
{
color = 9;
glyphname = y;
layers = (
{
background = {
shapes = (
{
closed = 1;
nodes = (
(6,-156,l),
(25,-169,o),
(46,-178,o),
(73,-178,cs),
(138,-178,o),
(165,-124,o),
(165,-55,c),
(173,-45,l),
(173,168,ls),
(173,262,o),
(215,316,o),
(317,316,cs),
(380,316,o),
(434,296,o),
(506,252,c),
(466,258,l),
(513,373,l),
(524,318,l),
(464,361,o),
(377,387,o),
(302,387,cs),
(161,387,o),
(97,305,o),
(97,170,cs),
(97,-41,ls),
(97,-114,o),
(71,-138,o),
(10,-103,c),
(60,-45,l),
(13,-201,l)
);
},
{
closed = 1;
nodes = (
(443,-178,o),
(521,-112,o),
(521,-13,cs),
(521,92,o),
(433,152,o),
(310,152,cs),
(257,152,o),
(211,141,o),
(177,129,c),
(157,129,l),
(157,65,l),
(192,84,o),
(249,94,o),
(295,94,cs),
(372,94,o),
(435,66,o),
(435,-12,cs),
(435,-73,o),
(396,-116,o),
(328,-116,cs),
(230,-116,o),
(173,-25,o),
(173,54,c),
(159,54,l),
(159,-76,l),
(168,-76,l),
(196,-137,o),
(263,-178,o),
(342,-178,cs)
);
}
);
};
layerId = m009;
shapes = (
{
closed = 1;
nodes = (
(189,-215,o),
(236,-145,o),
(275,-35,cs),
(479,545,l),
(386,545,l),
(231,62,l),
(267,64,l),
(104,545,l),
(10,545,l),
(223,-42,l),
(225,40,l),
(193,-35,ls),
(156,-122,o),
(134,-139,o),
(88,-139,cs),
(63,-139,o),
(41,-131,o),
(15,-117,c),
(34,-114,l),
(-13,-201,l),
(-11,-185,l),
(9,-201,o),
(47,-215,o),
(90,-215,cs)
);
}
);
width = 489;
},
{
anchors = (
{
name = bottom;
pos = (266,0);
},
{
name = top;
pos = (266,545);
}
);
associatedMasterId = m009;
background = {
shapes = (
{
closed = 1;
nodes = (
(104,-186,o),
(87,-184,o),
(68,-178,c),
(49,-173,o),
(33,-168,o),
(20,-161,c),
(41,-60,l),
(42,-60,o),
(44,-60,o),
(45,-61,c),
(46,-61,o),
(48,-61,o),
(49,-61,c),
(63,-65,o),
(77,-66,o),
(91,-66,c),
(111,-66,o),
(128,-63,o),
(140,-57,c),
(153,-50,o),
(163,-40,o),
(171,-25,c),
(180,-10,o),
(188,10,o),
(196,37,c),
(206,73,l),
(324,73,l),
(315,1,l),
(300,-33,l),
(297,-38,o),
(294,-43,o),
(292,-47,c),
(290,-52,o),
(288,-57,o),
(286,-61,c),
(272,-94,o),
(257,-118,o),
(243,-136,c),
(228,-153,o),
(211,-166,o),
(192,-174,c),
(172,-182,o),
(148,-186,o),
(120,-186,c)
);
},
{
closed = 1;
nodes = (
(195,1,l),
(-34,545,l),
(107,545,l),
(269,158,l),
(249,158,l),
(398,545,l),
(541,545,l),
(315,1,l)
);
}
);
};
layerId = "465E898B-A340-4BA7-806E-E5599B776A13";
name = "28 Oct 22 12.01";
shapes = (
{
closed = 1;
nodes = (
(221,-186,o),
(266,-134,o),
(320,0,cs),
(541,545,l),
(388,545,l),
(253,144,l),
(270,144,l),
(120,545,l),
(-33,545,l),
(195,0,l),
(233,0,l),
(195,37,l),
(201,-49,o),
(144,-67,o),
(106,-67,cs),
(58,-67,o),
(17,-50,o),
(-7,-39,c),
(52,-20,l),
(13,-197,l),
(-15,-146,l),
(23,-166,o),
(79,-186,o),
(125,-186,cs)
);
}
);
width = 508;
}
);
metricRight = v;
unicode = 121;
},
{
color = 9;
glyphname = z;
layers = (
{
background = {
shapes = (
{
pos = (4,0);
ref = x;
}
);
};
layerId = m009;
shapes = (
{
closed = 1;
nodes = (
(429,0,l),
(429,76,l),
(77,76,l),
(102,40,l),
(429,472,l),
(429,545,l),
(53,545,l),
(53,469,l),
(386,469,l),
(361,505,l),
(34,74,l),
(34,0,l)
);
}
);
width = 449;
}
);
unicode = 122;
},
{
export = 0;
glyphname = r.001;
layers = (
{
anchors = (
{
name = connect;
pos = (167,0);
}
);
background = {
shapes = (
{
pos = (8,0);
ref = n;
}
);
};
layerId = m009;
shapes = (
{
closed = 1;
nodes = (
(167,0,l),
(167,461,l),
(147,545,l),
(82,545,l),
(82,0,l)
);
},
{
closed = 1;
nodes = (
(167,305,l),
(176,421,o),
(223,467,o),
(341,467,c),
(341,555,l),
(269,555,o),
(205,525,o),
(175,461,c),
(159,461,l),
(159,305,l)
);
}
);
width = 348;
}
);
metricLeft = n;
},
{
color = 9;
glyphname = "akara-bali";
layers = (
{
.lastUpdate = 705314872.629;
anchors = (
{
name = bottom;
pos = (1072,0);
},
{
name = class0;
pos = (1112,0);
},
{
name = top;
pos = (375,650);
}
);
background = {
shapes = (
{
closed = 1;
nodes = (
(443,-10,o),
(511,44,o),
(511,132,cs),
(511,190,o),
(481,243,o),
(401,250,c),
(401,253,l),
(455,272,o),
(476,307,o),
(476,357,cs),
(476,420,o),
(429,448,o),
(385,448,cs),
(341,448,o),
(298,431,o),
(258,382,c),
(278,348,l),
(314,381,o),
(333,394,o),
(369,394,cs),
(395,394,o),
(410,380,o),
(410,351,cs),
(410,314,o),
(372,261,o),
(298,261,c),
(298,227,l),
(403,227,o),
(442,195,o),
(442,138,cs),
(442,89,o),
(397,60,o),
(328,60,cs),
(226,60,o),
(145,126,o),
(145,270,cs),
(145,404,o),
(232,507,o),
(384,507,cs),
(464,507,o),
(530,488,o),
(616,404,c),
(642,437,l),
(542,541,o),
(466,557,o),
(376,557,cs),
(202,557,o),
(78,435,o),
(78,275,cs),
(78,93,o),
(203,-10,o),
(333,-10,cs)
);
},
{
closed = 1;
nodes = (
(890,-10,o),
(954,73,o),
(954,216,cs),
(954,522,l),
(934,498,l),
(974,498,ls),
(1014,498,o),
(1036,478,o),
(1036,436,cs),
(1036,0,l),
(1089,0,l),
(1089,420,ls),
(1089,509,o),
(1058,545,o),
(968,545,cs),
(901,545,l),
(901,222,ls),
(901,118,o),
(858,69,o),
(758,69,cs),
(684,69,o),
(638,102,o),
(600,169,c),
(567,138,l),
(617,37,o),
(684,-10,o),
(770,-10,cs)
);
},
{
closed = 1;
nodes = (
(1164,195,l),
(913,332,ls),
(879,351,o),
(852,358,o),
(830,358,cs),
(784,358,o),
(756,323,o),
(756,288,cs),
(756,243,o),
(796,196,o),
(826,176,c),
(842,199,l),
(824,210,o),
(809,232,o),
(809,255,cs),
(809,280,o),
(831,303,o),
(857,303,cs),
(871,303,o),
(889,297,o),
(913,285,cs),
(1151,159,l)
);
}
);
};
layerId = m009;
shapes = (
{
alignment = -1;
pos = (-82,0);
ref = _ha_geluungan_ha;
},
{
pos = (15,0);
ref = _akara;
},
{
pos = (4,0);
ref = _akara_bangkiang;
},
{
pos = (4,0);
ref = _cecek_bangkiang;
}
);
width = 1112;
}
);
metricRight = "ha-bali";
unicode = 6917;
},
{
color = 9;
glyphname = "ukara-bali";
lastChange = "2023-05-08 09:58:17 +0000";
layers = (
{
.lastUpdate = 705227135.679;
background = {
shapes = (
{
closed = 1;
nodes = (
(260,-386,l),
(260,-310,l),
(189,-310,ls),
(90,-310,o),
(54,-258,o),
(54,-197,cs),
(54,7,o),
(444,150,o),
(444,382,cs),
(444,478,o),
(375,555,o),
(286,555,cs),
(179,555,o),
(135,463,o),
(136,377,c),
(177,377,l),
(176,438,o),
(220,487,o),
(280,487,cs),
(329,487,o),
(374,440,o),
(374,375,cs),
(374,184,o),
(-24,33,o),
(-24,-205,cs),
(-24,-315,o),
(65,-386,o),
(190,-386,cs)
);
},
{
closed = 1;
nodes = (
(260,-386,l),
(260,-205,ls),
(260,-116,o),
(307,-68,o),
(394,-68,cs),
(479,-68,o),
(524,-115,o),
(524,-205,cs),
(524,-386,l),
(580,-386,l),
(580,-206,ls),
(580,-65,o),
(523,0,o),
(400,0,cs),
(272,0,o),
(204,-71,o),
(204,-206,cs),
(204,-386,l)
);
}
);
};
layerId = m009;
shapes = (
{
closed = 1;
nodes = (
(268,-769,cs),
(297,-769,o),
(300,-731,o),
(285,-713,cs),
(222,-640,o),
(197,-569,o),
(197,-486,cs),
(197,-394,o),
(245,-321,o),
(346,-321,cs),
(464,-321,o),
(515,-423,o),
(515,-534,cs),
(515,-612,o),
(500,-685,o),
(475,-750,c),
(517,-769,l),
(562,-689,o),
(584,-601,o),
(584,-510,cs),
(584,-369,o),
(508,-243,o),
(353,-243,cs),
(211,-243,o),
(130,-351,o),
(130,-480,cs),
(130,-557,o),
(159,-639,o),
(222,-712,c),
(250,-699,l),
(144,-699,o),
(61,-611,o),
(61,-483,cs),
(61,-188,o),
(514,-14,o),
(514,321,cs),
(514,465,o),
(428,555,o),
(309,555,cs),
(190,555,o),
(116,462,o),
(115,358,c),
(113,357,l),
(85,414,o),
(86,483,o),
(91,542,c),
(108,525,l),
(-4,525,l),
(15,535,l),
(15,421,o),
(50,333,o),
(135,255,c),
(122,258,l),
(184,285,l),
(178,267,l),
(153,365,o),
(180,487,o),
(298,487,cs),
(395,487,o),
(431,400,o),
(431,314,cs),
(431,10,o),
(-13,-153,o),
(-13,-483,cs),
(-13,-656,o),
(111,-769,o)
);
}
);
width = 561;
},
{
.lastUpdate = 705233193.842;
associatedMasterId = m009;
background = {
shapes = (
{
closed = 1;
nodes = (
(255,-386,l),
(255,-310,l),
(184,-310,ls),
(85,-310,o),
(49,-258,o),
(49,-197,cs),
(49,7,o),
(439,150,o),
(439,382,cs),
(439,478,o),
(370,555,o),
(281,555,cs),
(174,555,o),
(130,463,o),
(131,377,c),
(172,377,l),
(171,438,o),
(215,487,o),
(275,487,cs),
(324,487,o),
(369,440,o),
(369,375,cs),
(369,184,o),
(-29,33,o),
(-29,-205,cs),
(-29,-315,o),
(60,-386,o),
(185,-386,cs)
);
},
{
closed = 1;
nodes = (
(255,-386,l),
(255,-205,ls),
(255,-116,o),
(302,-68,o),
(389,-68,cs),
(474,-68,o),
(519,-115,o),
(519,-205,cs),
(519,-386,l),
(575,-386,l),
(575,-206,ls),
(575,-65,o),
(518,0,o),
(395,0,cs),
(267,0,o),
(199,-71,o),
(199,-206,cs),
(199,-386,l)
);
}
);
};
layerId = "B60F32FE-4655-4CA3-9E5E-09F6151ACD19";
name = "8 May 23 15.53";
shapes = (
{
closed = 1;
nodes = (
(-3,-312,o),
(132,-386,o),
(209,-386,cs),
(239,-386,o),
(249,-375,o),
(249,-363,cs),
(249,-350,o),
(244,-343,o),
(227,-317,cs),
(201,-278,o),
(189,-236,o),
(189,-198,cs),
(189,-126,o),
(233,-68,o),
(314,-68,cs),
(407,-68,o),
(445,-143,o),
(445,-326,cs),
(445,-386,l),
(520,-386,l),
(520,-326,ls),
(520,-90,o),
(448,0,o),
(315,0,cs),
(190,0,o),
(128,-89,o),
(128,-186,cs),
(128,-228,o),
(140,-273,o),
(164,-311,c),
(162,-314,l),
(105,-291,o),
(67,-231,o),
(67,-157,cs),
(67,67,o),
(440,131,o),
(440,382,cs),
(440,487,o),
(372,555,o),
(276,555,c),
(265,490,l),
(324,490,o),
(359,452,o),
(359,382,cs),
(359,170,o),
(-3,112,o),
(-3,-161,cs)
);
},
{
pos = (20,0);
ref = _taling_tenas;
}
);
width = 480;
},
{
associatedMasterId = m009;
background = {
shapes = (
{
closed = 1;
nodes = (
(248,-386,l),
(248,-310,l),
(177,-310,ls),
(78,-310,o),
(42,-258,o),
(42,-197,cs),
(42,7,o),
(432,150,o),
(432,382,cs),
(432,478,o),
(363,555,o),
(274,555,cs),
(167,555,o),
(123,463,o),
(124,377,c),
(165,377,l),
(164,438,o),
(208,487,o),
(268,487,cs),
(317,487,o),
(362,440,o),
(362,375,cs),
(362,184,o),
(-36,33,o),
(-36,-205,cs),
(-36,-315,o),
(53,-386,o),
(178,-386,cs)
);
},
{
closed = 1;
nodes = (
(248,-386,l),
(248,-205,ls),
(248,-116,o),
(295,-68,o),
(382,-68,cs),
(467,-68,o),
(512,-115,o),
(512,-205,cs),
(512,-386,l),
(568,-386,l),
(568,-206,ls),
(568,-65,o),
(511,0,o),
(388,0,cs),
(260,0,o),
(192,-71,o),
(192,-206,cs),
(192,-386,l)
);
}
);
};
layerId = "89BA0E76-1873-4F03-B36E-6CEE98C3AFBB";
name = "8 May 23 16.17";
shapes = (
{
closed = 1;
nodes = (
(252,-769,o),
(262,-758,o),
(262,-746,cs),
(262,-733,o),
(257,-726,o),
(240,-700,cs),
(213,-659,o),
(188,-582,o),
(188,-517,cs),
(188,-414,o),
(249,-346,o),
(349,-346,cs),
(352,-346,ls),
(450,-346,o),
(517,-424,o),
(517,-542,cs),
(517,-611,o),
(498,-688,o),
(474,-750,c),
(516,-769,l),
(563,-685,o),
(583,-598,o),
(583,-534,cs),
(583,-363,o),
(494,-270,o),
(353,-270,cs),
(350,-270,ls),
(230,-270,o),
(120,-350,o),
(120,-501,cs),
(120,-586,o),
(149,-653,o),
(189,-712,c),
(187,-715,l),
(127,-676,o),
(64,-561,o),
(64,-439,cs),
(64,-128,o),
(502,-44,o),
(502,325,cs),
(502,465,o),
(417,555,o),
(295,555,cs),
(179,555,o),
(104,462,o),
(103,358,c),
(101,357,l),
(72,416,o),
(74,487,o),
(79,542,c),
(96,525,l),
(-16,525,l),
(3,535,l),
(3,421,o),
(38,333,o),
(123,255,c),
(110,258,l),
(172,285,l),
(166,267,l),
(137,379,o),
(178,487,o),
(286,487,cs),
(383,487,o),
(419,400,o),
(419,322,cs),
(419,10,o),
(2,-80,o),
(2,-430,cs),
(2,-590,o),
(112,-769,o),
(222,-769,cs)
);
}
);
width = 560;
}
);
unicode = 6921;
},
{
color = 9;
glyphname = "laLenga-bali";
lastChange = "2023-05-09 03:30:55 +0000";
layers = (
{
.lastUpdate = 705307839.696;
anchors = (
{
name = lelengaTedung;
pos = (1009,-356);
}
);
layerId = m009;
shapes = (
{
closed = 1;
nodes = (
(501,-776,l),
(670,-655,o),
(794,-514,o),
(881,-359,c),
(873,-365,l),
(888,-368,o),
(904,-370,o),
(919,-370,cs),
(956,-370,o),
(992,-365,o),
(1022,-351,c),
(1011,-364,l),
(995,-298,l),
(1017,-306,l),
(999,-311,o),
(978,-314,o),
(940,-314,cs),
(926,-314,o),
(913,-312,o),
(899,-310,c),
(902,-319,l),
(997,-133,o),
(1039,73,o),
(1039,290,cs),
(1039,316,ls),
(1039,481,o),
(955,555,o),
(845,555,c),
(836,479,l),
(893,479,o),
(963,453,o),
(963,306,cs),
(963,290,ls),
(963,63,o),
(923,-127,o),
(834,-300,c),
(854,-295,l),
(723,-240,o),
(586,-89,o),
(396,-89,cs),
(263,-89,o),
(189,-167,o),
(189,-261,cs),
(189,-453,o),
(512,-423,o),
(512,-620,cs),
(512,-655,o),
(501,-699,o),
(475,-753,c),
(468,-729,l),
(521,-780,l)
);
},
{
closed = 1;
nodes = (
(566,-647,l),
(570,-628,o),
(573,-617,o),
(573,-601,cs),
(573,-393,o),
(265,-390,o),
(265,-260,cs),
(265,-196,o),
(315,-158,o),
(393,-158,cs),
(561,-158,o),
(691,-291,o),
(818,-346,c),
(815,-336,l),
(754,-445,o),
(672,-548,o),
(567,-648,c)
);
},
{
pos = (23,0);
ref = _nga_body;
},
{
pos = (23,0);
ref = _nga_top;
}
);
width = 1089;
},
{
anchors = (
{
name = lelengaTedung;
pos = (1009,-356);
}
);
associatedMasterId = m009;
layerId = "04FFB923-97E8-4A61-BC67-7481B0DBA579";
name = "9 May 23 11.30";
shapes = (
{
closed = 1;
nodes = (
(501,-776,l),
(882,-503,o),
(1039,-128,o),
(1039,290,cs),
(1039,316,ls),
(1039,481,o),
(955,555,o),
(845,555,c),
(836,479,l),
(893,479,o),
(963,453,o),
(963,306,cs),
(963,290,ls),
(963,-99,o),
(844,-382,o),
(567,-648,c),
(566,-647,l),
(570,-628,o),
(573,-617,o),
(573,-601,cs),
(573,-393,o),
(265,-390,o),
(265,-260,cs),
(265,-196,o),
(315,-158,o),
(393,-158,cs),
(606,-158,o),
(756,-370,o),
(919,-370,cs),
(956,-370,o),
(992,-365,o),
(1022,-351,c),
(1011,-364,l),
(995,-298,l),
(1017,-306,l),
(999,-311,o),
(978,-314,o),
(940,-314,cs),
(781,-314,o),
(627,-89,o),
(396,-89,cs),
(263,-89,o),
(189,-167,o),
(189,-261,cs),
(189,-453,o),
(512,-423,o),
(512,-620,cs),
(512,-655,o),
(501,-699,o),
(475,-753,c),
(468,-729,l),
(521,-780,l)
);
},
{
pos = (23,0);
ref = _nga_body;
},
{
pos = (23,0);
ref = _nga_top;
}
);
width = 1089;
}
);
metricLeft = "ha-bali";
unicode = 6925;
},
{
color = 9;
glyphname = "ekara-bali";
lastChange = "2023-05-08 09:58:00 +0000";
layers = (
{
.lastUpdate = 705232671.241;
anchors = (
{
name = bottom;
pos = (742,0);
},
{
name = class0;
pos = (781,0);
},
{
name = top;
pos = (388,650);
}
);
layerId = m009;
shapes = (
{
closed = 1;
nodes = (
(295,147,o),
(360,237,o),
(475,237,cs),
(576,237,o),
(656,165,o),
(656,22,cs),
(656,0,l),
(732,0,l),
(732,22,ls),
(732,203,o),
(619,308,o),
(475,308,cs),
(330,308,o),
(231,203,o),
(249,31,c),
(268,49,l),
(194,83,o),
(131,172,o),
(131,277,cs),
(131,403,o),
(221,480,o),
(347,480,cs),
(420,480,o),
(474,455,o),
(520,426,c),
(500,420,l),
(539,494,l),
(539,482,l),
(489,528,o),
(420,555,o),
(339,555,cs),
(190,555,o),
(59,465,o),
(59,285,cs),
(59,156,o),
(128,26,o),
(261,-8,cs),
(292,-16,o),
(299,3,o),
(299,16,cs)
);
}
);
width = 735;
}
);
unicode = 6927;
},
{
glyphname = "aikara-bali";
lastChange = "2023-05-09 08:22:17 +0000";
layers = (
{
.lastUpdate = 705314872.633;
background = {
shapes = (
{
closed = 1;
nodes = (
(636,-383,o),
(636,-278,o),
(690,-278,cs),
(745,-278,o),
(758,-383,o),
(864,-383,cs),
(929,-383,o),
(982,-344,o),
(982,-222,cs),
(982,615,ls),
(982,740,o),
(946,790,o),
(874,790,cs),
(799,790,o),
(761,727,o),
(764,663,cs),
(768,573,o),
(860,516,o),
(944,516,cs),
(1027,516,o),
(1088,562,o),
(1123,633,c),
(1090,664,l),
(1060,609,o),
(1010,581,o),
(952,581,cs),
(898,581,o),
(822,616,o),
(822,676,cs),
(822,707,o),
(843,727,o),
(874,727,cs),
(905,727,o),
(929,706,o),
(929,635,cs),
(929,-224,ls),
(929,-300,o),
(900,-319,o),
(852,-319,cs),
(779,-320,o),
(755,-215,o),
(694,-215,cs),
(628,-215,o),
(615,-322,o),
(557,-319,cs),
(508,-317,o),
(476,-271,o),
(476,-196,cs),
(476,22,o),
(848,119,o),
(848,379,cs),
(848,484,o),
(796,555,o),
(701,555,cs),
(633,555,o),
(590,519,o),
(574,423,c),
(573,423,l),
(560,519,o),
(515,555,o),
(449,555,cs),
(361,555,o),
(299,484,o),
(299,349,cs),
(299,69,l),
(248,71,o),
(218,105,o),
(218,197,cs),
(218,412,ls),
(218,500,o),
(172,555,o),
(107,555,cs),
(31,555,o),
(-5,481,o),
(0,398,c),
(55,398,l),
(55,459,o),
(81,483,o),
(109,483,cs),
(136,483,o),
(167,461,o),
(167,401,cs),
(167,195,ls),
(167,44,o),
(208,0,o),
(299,0,cs),
(354,0,l),
(354,350,ls),
(354,439,o),
(402,487,o),
(454,487,cs),
(507,487,o),
(538,437,o),
(551,333,c),
(597,333,l),
(609,429,o),
(646,487,o),
(707,487,cs),
(755,487,o),
(793,450,o),
(793,380,cs),
(793,176,o),
(413,65,o),
(413,-199,cs),
(413,-301,o),
(460,-383,o),
(545,-383,cs)
);
}
);
};
layerId = m009;
shapes = (
{
closed = 1;
nodes = (
(498,-769,o),
(564,-570,o),
(681,-570,cs),
(812,-570,o),
(803,-769,o),
(977,-769,cs),
(1082,-769,o),
(1145,-704,o),
(1145,-553,cs),
(1145,620,ls),
(1145,765,o),
(1086,815,o),
(1014,815,cs),
(940,815,o),
(894,752,o),
(897,689,cs),
(901,589,o),
(1000,541,o),
(1084,541,cs),
(1167,541,o),
(1228,587,o),
(1263,658,c),
(1235,686,l),
(1197,638,o),
(1160,602,o),
(1102,602,cs),
(1019,602,o),
(962,641,o),
(962,701,cs),
(962,728,o),
(983,748,o),
(1014,748,cs),
(1045,748,o),
(1074,727,o),
(1074,640,cs),
(1074,-535,ls),
(1074,-653,o),
(1040,-697,o),
(978,-698,cs),
(865,-699,o),
(856,-496,o),
(686,-496,cs),
(523,-496,o),
(463,-697,o),
(322,-697,cs),
(242,-697,o),
(181,-631,o),
(181,-516,cs),
(181,-490,ls),
(181,-344,o),
(305,-279,o),
(430,-230,cs),
(702,-123,ls),
(805,-83,o),
(990,-8,o),
(987,208,cs),
(985,353,ls),
(983,473,o),
(922,555,o),
(815,555,c),
(806,479,l),
(873,479,o),
(909,437,o),
(911,348,cs),
(914,211,ls),
(918,29,o),
(752,-27,o),
(683,-54,cs),
(410,-161,ls),
(253,-222,o),
(103,-308,o),
(103,-500,cs),
(103,-525,ls),
(103,-681,o),
(202,-769,o),
(318,-769,cs)
);
},
{
pos = (23,0);
ref = _nga_tenas;
},
{
ref = _okara_tenas;
}
);
width = 1206;
}
);
metricLeft = "ha-bali";
unicode = 6928;
},
{
glyphname = "okara-bali";
lastChange = "2023-05-09 08:21:47 +0000";
layers = (
{
.lastUpdate = 705476579.82;
background = {
shapes = (
{
closed = 0;
nodes = (
(625,-71,l),
(300,-169,l),
(301,-169,ls),
(124,-247,o),
(124,-462,qs),
(124,-571,o),
(181,-645,qs),
(235,-715,o),
(330,-741,q),
(319,-698,o),
(307,-643,o),
(307,-632,qs),
(307,-543,o),
(363,-493,q),
(363,-493,l),
(415,-444,o),
(505,-444,qs),
(764,-444,o),
(764,-624,qs),
(764,-647,o),
(749,-711,o),
(733,-749,q),
(737,-750,o),
(745,-754,o),
(751,-756,q),
(772,-721,o),
(795,-639,o),
(795,-590,qs),
(795,-541,o),
(749,-453,o),
(710,-419,q),
(670,-388,o),
(575,-353,o),
(524,-353,qs),
(406,-353,o),
(342,-425,qs),
(279,-495,o),
(279,-615,qs),
(279,-632,ls),
(279,-636,o),
(280,-650,o),
(281,-663,o),
(282,-676,o),
(282,-680,q),
(247,-666,o),
(195,-617,o),
(179,-588,qs),
(167,-562,o),
(152,-499,o),
(152,-468,qs),
(152,-303,o),
(322,-248,qs),
(649,-141,l)
);
}
);
};
layerId = m009;
shapes = (
{
closed = 1;
nodes = (
(369,-769,o),
(384,-742,o),
(380,-724,cs),
(373,-691,o),
(369,-661,o),
(369,-634,cs),
(369,-487,o),
(473,-422,o),
(622,-422,cs),
(859,-422,o),
(940,-542,o),
(932,-757,c),
(986,-766,l),
(1029,-558,o),
(942,-344,o),
(645,-344,cs),
(426,-344,o),
(304,-464,o),
(304,-624,cs),
(304,-656,o),
(309,-689,o),
(319,-723,c),
(346,-714,l),
(268,-701,o),
(200,-623,o),
(200,-502,cs),
(200,-372,o),
(306,-281,o),
(481,-211,cs),
(702,-123,ls),
(805,-82,o),
(990,-8,o),
(987,208,cs),
(985,353,ls),
(983,473,o),
(922,555,o),
(815,555,c),
(806,479,l),
(873,479,o),
(909,437,o),
(911,348,cs),
(914,211,ls),
(918,29,o),
(752,-27,o),
(683,-54,cs),
(460,-142,ls),
(280,-213,o),
(122,-312,o),
(122,-510,cs),
(122,-699,o),
(275,-769,o),
(334,-769,cs)
);
},
{
pos = (23,0);
ref = _nga_tenas;
},
{
ref = _okara_tenas;
}
);
width = 1033;
},
{
associatedMasterId = m009;
background = {
shapes = (
{
closed = 0;
nodes = (
(655,-71,l),
(330,-169,l),
(331,-169,ls),
(154,-247,o),
(154,-462,qs),
(154,-571,o),
(211,-645,qs),
(265,-715,o),
(360,-741,q),
(349,-698,o),
(337,-643,o),
(337,-632,qs),
(337,-543,o),
(393,-493,q),
(393,-493,l),
(445,-444,o),
(535,-444,qs),
(794,-444,o),
(794,-624,qs),
(794,-647,o),
(779,-711,o),
(763,-749,q),
(767,-750,o),
(775,-754,o),
(781,-756,q),
(802,-721,o),
(825,-639,o),
(825,-590,qs),
(825,-541,o),
(779,-453,o),
(740,-419,q),
(700,-388,o),
(605,-353,o),
(554,-353,qs),
(436,-353,o),
(372,-425,qs),
(309,-495,o),
(309,-615,qs),
(309,-632,ls),
(309,-636,o),
(310,-650,o),
(311,-663,o),
(312,-676,o),
(312,-680,q),
(277,-666,o),
(225,-617,o),
(209,-588,qs),
(197,-562,o),
(182,-499,o),
(182,-468,qs),
(182,-303,o),
(352,-248,qs),
(679,-141,l)
);
}
);
};
layerId = "07D6750F-75E8-4A4D-A3BD-C2D4DF97F477";
name = "9 May 23 14.43";
shapes = (
{
pos = (23,0);
ref = _nga_body;
},
{
pos = (23,0);
ref = _nga_top;
},
{
closed = 1;
nodes = (
(368,-781,o),
(396,-735,o),
(390,-713,cs),
(332,-502,o),
(405,-421,o),
(621,-421,cs),
(921,-421,o),
(907,-615,o),
(855,-750,c),
(897,-769,l),
(988,-606,o),
(997,-343,o),
(624,-343,cs),
(342,-343,o),
(267,-515,o),
(331,-712,c),
(356,-695,l),
(268,-650,o),
(211,-593,o),
(211,-492,cs),
(211,-364,o),
(334,-280,o),
(460,-230,cs),
(732,-123,ls),
(835,-83,o),
(1020,-8,o),
(1017,208,cs),
(1015,353,ls),
(1013,473,o),
(952,555,o),
(845,555,c),
(836,479,l),
(903,479,o),
(939,437,o),
(941,348,cs),
(944,211,ls),
(948,29,o),
(782,-27,o),
(713,-54,cs),
(440,-161,ls),
(301,-215,o),
(133,-313,o),
(133,-491,cs),
(133,-590,o),
(183,-683,o),
(317,-754,cs)
);
}
);
width = 1045;
}
);
metricLeft = "ha-bali";
unicode = 6929;
},
{
glyphname = "naRambat-bali";
lastChange = "2023-05-09 08:55:59 +0000";
layers = (
{
.lastUpdate = 705476579.822;
anchors = (
{
name = ha_bali_core;
pos = (560,291);
},
{
name = ha_tundun_ha;
pos = (841,291);
}
);
layerId = m009;
shapes = (
{
closed = 1;
nodes = (
(292,260,o),
(341,317,o),
(341,402,cs),
(341,452,o),
(373,477,o),
(406,479,cs),
(482,483,o),
(503,377,o),
(590,377,cs),
(670,377,o),
(694,482,o),
(774,481,cs),
(820,480,o),
(841,441,o),
(841,347,cs),
(841,291,l),
(917,291,l),
(917,367,ls),
(917,484,o),
(864,555,o),
(781,555,cs),
(667,555,o),
(660,450,o),
(586,450,cs),
(522,450,o),
(495,555,o),
(404,555,cs),
(328,555,o),
(290,492,o),
(290,402,cs),
(290,354,o),
(265,332,o),
(234,332,cs),
(204,332,o),
(178,356,o),
(178,417,c),
(123,417,l),
(118,334,o),
(154,260,o),
(225,260,cs)
);
},
{
alignment = -1;
pos = (51,0);
ref = _ha_bangkiang;
},
{
alignment = -1;
pos = (81,0);
ref = _ha_geluungan_ha;
}
);
width = 1275;
}
);
metricRight = "ha-bali";
unicode = 6945;
},
{
color = 9;
glyphname = "ca-bali";
layers = (
{
.lastUpdate = 705314872.629;
anchors = (
{
name = bottom;
pos = (857,0);
},
{
name = class0;
pos = (896,0);
},
{
name = top;
pos = (449,650);
}
);
background = {
shapes = (
{
pos = (-31,0);
ref = "na-bali";
},
{
closed = 1;
nodes = (
(616,-10,o),
(689,139,o),
(688,262,c),
(614,262,l),
(615,178,o),
(573,63,o),
(490,63,cs),
(405,63,o),
(395,192,o),
(293,243,c),
(278,247,l),
(265,179,l),
(344,130,o),
(357,-10,o),
(485,-10,cs)
);
}
);
};
layerId = m009;
shapes = (
{
closed = 1;
nodes = (
(610,-10,o),
(700,66,o),
(700,227,c),
(630,226,l),
(630,106,o),
(572,59,o),
(520,59,cs),
(430,59,o),
(393,214,o),
(293,249,c),
(278,253,l),
(265,186,l),
(341,174,o),
(377,-10,o),
(519,-10,cs)
);
},
{
pos = (-8,0);
ref = _ca_awak;
},
{
alignment = -1;
pos = (-8,0);
ref = _na_tenas;
},
{
alignment = -1;
pos = (76,0);
ref = _wa_ca_gelungan;
}
);
width = 897;
},
{
associatedMasterId = m009;
background = {
shapes = (
{
ref = "na-bali";
}
);
};
layerId = "9CA60967-E49B-43B6-800B-F44C17925C18";
name = "4 May 23 12.09";
shapes = (
{
alignment = -1;
pos = (23,0);
ref = _na_tenas;
},
{
alignment = -1;
pos = (107,0);
ref = _wa_ca_gelungan;
},
{
pos = (23,0);
ref = _ca_awak;
},
{
closed = 1;
nodes = (
(617,-10,o),
(711,83,o),
(711,232,c),
(637,232,l),
(637,138,o),
(583,63,o),
(525,63,cs),
(437,63,o),
(426,192,o),
(324,243,c),
(309,247,l),
(296,179,l),
(375,130,o),
(397,-10,o),
(515,-10,cs)
);
}
);
width = 955;
},
{
associatedMasterId = m009;
background = {
shapes = (
{
ref = "na-bali";
}
);
};
layerId = "063E3D61-5F59-402D-99B0-4DF4DCDBECB0";
name = "4 May 23 14.05";
shapes = (
{
alignment = -1;
pos = (23,0);
ref = _na_tenas;
},
{
alignment = -1;
pos = (107,0);
ref = _wa_ca_gelungan;
},
{
pos = (23,0);
ref = _ca_awak;
},
{
closed = 1;
nodes = (
(641,-10,o),
(711,89,o),
(711,232,c),
(637,232,l),
(637,128,o),
(595,63,o),
(538,63,cs),
(453,63,o),
(426,192,o),
(324,243,c),
(309,247,l),
(296,179,l),
(375,130,o),
(408,-10,o),
(536,-10,cs)
);
}
);
width = 955;
}
);
metricLeft = "na-bali";
metricRight = "ha-bali";
unicode = 6936;
},
{
glyphname = "caLaca-bali";
layers = (
{
layerId = m009;
shapes = (
{
closed = 1;
nodes = (
(591,-11,o),
(639,39,o),
(639,127,cs),
(639,522,l),
(619,498,l),
(659,498,ls),
(699,498,o),
(721,478,o),
(721,436,cs),
(721,0,l),
(774,0,l),
(774,420,ls),
(774,509,o),
(743,545,o),
(653,545,cs),
(586,545,l),
(586,125,ls),
(586,68,o),
(561,44,o),
(496,44,cs),
(429,44,o),
(398,67,o),
(398,117,cs),
(398,349,ls),
(398,490,o),
(322,555,o),
(219,555,cs),
(111,555,o),
(31,484,o),
(32,349,cs),
(33,105,ls),
(33,47,o),
(60,-10,o),
(142,-10,cs),
(223,-10,o),
(244,46,o),
(244,89,cs),
(244,214,l),
(191,214,l),
(191,104,ls),
(191,73,o),
(180,41,o),
(140,41,cs),
(109,41,o),
(86,60,o),
(86,97,cs),
(87,350,ls),
(87,439,o),
(146,487,o),
(213,487,cs),
(278,487,o),
(343,440,o),
(343,350,cs),
(343,127,ls),
(343,40,o),
(398,-11,o),
(498,-11,cs)
);
}
);
width = 810;
}
);
unicode = 6937;
},
{
color = 9;
glyphname = "ra-bali";
layers = (
{
.lastUpdate = 705314872.629;
anchors = (
{
name = bottom;
pos = (815,0);
},
{
name = class0;
pos = (854,0);
},
{
name = top;
pos = (407,650);
}
);
background = {
shapes = (
{
pos = (12,0);
ref = "ha-bali";
}
);
};
layerId = m009;
shapes = (
{
closed = 1;
nodes = (
(199,-10,ls),
(374,-10,o),
(451,107,o),
(451,326,cs),
(451,450,o),
(497,479,o),
(579,479,cs),
(664,479,o),
(728,445,o),
(728,291,c),
(734,281,l),
(799,281,l),
(804,291,l),
(804,304,ls),
(804,497,o),
(705,555,o),
(584,555,cs),
(452,555,o),
(379,496,o),
(377,327,cs),
(374,157,o),
(337,57,o),
(207,57,cs),
(172,57,l),
(175,36,l),
(262,121,o),
(310,258,o),
(310,382,cs),
(310,489,o),
(258,555,o),
(168,555,cs),
(76,555,o),
(33,487,o),
(33,430,cs),
(33,392,o),
(44,351,o),
(63,313,c),
(18,322,l),
(149,359,l),
(113,330,l),
(104,359,o),
(96,390,o),
(96,418,cs),
(96,448,o),
(110,489,o),
(161,489,cs),
(212,489,o),
(238,449,o),
(238,378,cs),
(238,206,o),
(140,85,o),
(114,53,cs),
(107,45,o),
(102,35,o),
(102,25,cs),
(102,7,o),
(117,-10,o),
(148,-10,cs)
);
},
{
pos = (-16,0);
ref = _stem_ending;
}
);
width = 854;
},
{
associatedMasterId = m009;
background = {
shapes = (
{
pos = (23,0);
ref = "ha-bali";
}
);
};
layerId = "8E137491-EB32-44E2-ADB1-B00333F67122";
name = "2 May 23 15.34";
shapes = (
{
closed = 1;
nodes = (
(94,-10,l),
(200,-10,ls),
(355,-10,o),
(433,97,o),
(433,267,cs),
(433,397,o),
(456,479,o),
(558,479,cs),
(576,479,ls),
(640,479,o),
(704,445,o),
(704,291,c),
(710,281,l),
(775,281,l),
(780,291,l),
(780,304,ls),
(780,497,o),
(680,555,o),
(581,555,cs),
(553,555,ls),
(414,555,o),
(362,432,o),
(359,269,cs),
(356,128,o),
(308,57,o),
(208,57,cs),
(163,57,l),
(168,36,l),
(282,146,o),
(331,258,o),
(331,382,cs),
(331,489,o),
(270,555,o),
(171,555,cs),
(89,555,o),
(40,512,o),
(40,437,cs),
(40,402,o),
(50,360,o),
(74,313,c),
(29,322,l),
(160,359,l),
(122,330,l),
(111,363,o),
(105,390,o),
(105,420,cs),
(105,457,o),
(129,479,o),
(172,479,cs),
(224,479,o),
(250,447,o),
(249,374,cs),
(248,204,o),
(116,72,o),
(58,16,c),
(60,100,l),
(129,-27,l)
);
},
{
pos = (-40,0);
ref = _stem_ending;
}
);
width = 812;
},
{
associatedMasterId = m009;
background = {
shapes = (
{
pos = (23,0);
ref = "ha-bali";
}
);
};
layerId = "ABC3F996-2737-45CF-9B4E-BC61EC12BE59";
name = "2 May 23 16.58";
shapes = (
{
closed = 1;
nodes = (
(94,-10,l),
(180,-10,ls),
(345,-10,o),
(433,96,o),
(433,296,cs),
(433,396,o),
(456,479,o),
(558,479,cs),
(576,479,ls),
(640,479,o),
(704,445,o),
(704,291,c),
(710,281,l),
(775,281,l),
(780,291,l),
(780,304,ls),
(780,497,o),
(680,555,o),
(581,555,cs),
(553,555,ls),
(414,555,o),
(362,442,o),
(359,269,cs),
(357,128,o),
(308,46,o),
(178,46,cs),
(143,46,l),
(148,36,l),
(245,121,o),
(321,258,o),
(321,382,cs),
(321,489,o),
(270,555,o),
(171,555,cs),
(81,555,o),
(44,499,o),
(44,430,cs),
(44,392,o),
(55,351,o),
(74,313,c),
(29,322,l),
(160,359,l),
(122,330,l),
(113,359,o),
(105,390,o),
(105,418,cs),
(105,458,o),
(121,489,o),
(172,489,cs),
(223,489,o),
(249,449,o),
(249,378,cs),
(249,206,o),
(116,72,o),
(58,16,c),
(60,100,l),
(129,-27,l)
);
},
{
pos = (-40,0);
ref = _stem_ending;
}
);
width = 804;
},
{
associatedMasterId = m009;
background = {
shapes = (
{
pos = (12,0);
ref = "ha-bali";
}
);
};
layerId = "B82C8CC3-467D-4519-8BDD-349B7E2FD67C";
name = "2 May 23 17.29";
shapes = (
{
closed = 1;
nodes = (
(83,-10,l),
(169,-10,ls),
(334,-10,o),
(452,96,o),
(452,296,cs),
(452,396,o),
(475,479,o),
(577,479,cs),
(605,479,ls),
(669,479,o),
(733,445,o),
(733,291,c),
(739,281,l),
(804,281,l),
(809,291,l),
(809,304,ls),
(809,497,o),
(709,555,o),
(610,555,cs),
(572,555,ls),
(433,555,o),
(379,451,o),
(376,288,cs),
(374,137,o),
(297,57,o),
(167,57,cs),
(132,57,l),
(147,36,l),
(244,121,o),
(310,258,o),
(310,382,cs),
(310,489,o),
(259,555,o),
(160,555,cs),
(70,555,o),
(33,499,o),
(33,430,cs),
(33,392,o),
(44,351,o),
(63,313,c),
(18,322,l),
(149,359,l),
(113,330,l),
(104,359,o),
(96,390,o),
(96,418,cs),
(96,458,o),
(110,489,o),
(161,489,cs),
(212,489,o),
(238,449,o),
(238,378,cs),
(238,206,o),
(105,82,o),
(47,26,c),
(49,100,l),
(118,-27,l)
);
},
{
pos = (-11,0);
ref = _stem_ending;
}
);
width = 862;
},
{
associatedMasterId = m009;
background = {
shapes = (
{
pos = (12,0);
ref = "ha-bali";
}
);
};
layerId = "411BA76F-88AD-443D-9F8C-812E24EF5C24";
name = "4 May 23 12.18";
shapes = (
{
closed = 1;
nodes = (
(169,-10,ls),
(334,-10,o),
(452,96,o),
(452,296,cs),
(452,430,o),
(497,479,o),
(579,479,cs),
(652,479,o),
(716,445,o),
(716,291,c),
(722,281,l),
(787,281,l),
(792,291,l),
(792,304,ls),
(792,497,o),
(693,555,o),
(584,555,cs),
(452,555,o),
(379,476,o),
(376,288,cs),
(374,137,o),
(297,57,o),
(167,57,cs),
(132,57,l),
(147,36,l),
(244,121,o),
(310,258,o),
(310,382,cs),
(310,489,o),
(259,555,o),
(160,555,cs),
(70,555,o),
(33,499,o),
(33,430,cs),
(33,392,o),
(44,351,o),
(63,313,c),
(18,322,l),
(149,359,l),
(113,330,l),
(104,359,o),
(96,390,o),
(96,418,cs),
(96,458,o),
(110,489,o),
(161,489,cs),
(212,489,o),
(238,449,o),
(238,378,cs),
(238,206,o),
(105,82,o),
(74,53,cs),
(66,45,o),
(62,36,o),
(62,26,cs),
(62,8,o),
(78,-10,o),
(109,-10,cs)
);
},
{
pos = (-28,0);
ref = _stem_ending;
}
);
width = 845;
}
);
metricRight = "ha-bali";
unicode = 6957;
},
{
color = 9;
glyphname = "ka-bali";
layers = (
{
.lastUpdate = 705314872.629;
anchors = (
{
name = bottom;
pos = (1156,0);
},
{
name = class0;
pos = (1195,0);
},
{
name = top;
pos = (565,650);
}
);
background = {
shapes = (
{
closed = 1;
nodes = (
(611,-10,o),
(657,37,o),
(657,107,cs),
(657,238,o),
(497,285,o),
(387,285,cs),
(280,285,l),
(251,268,l),
(251,242,l),
(274,205,l),
(388,205,ls),
(477,205,o),
(597,182,o),
(597,109,cs),
(597,71,o),
(564,53,o),
(519,53,cs),
(437,53,o),
(374,113,o),
(374,245,cs),
(374,378,o),
(434,478,o),
(567,478,cs),
(681,478,o),
(739,406,o),
(739,264,cs),
(739,70,l),
(790,70,l),
(790,275,ls),
(790,461,o),
(715,555,o),
(579,555,cs),
(410,555,o),
(323,406,o),
(323,248,cs),
(323,87,o),
(410,-10,o),
(528,-10,cs)
);
},
{
closed = 1;
nodes = (
(226,-10,o),
(294,116,o),
(294,387,cs),
(294,500,o),
(248,555,o),
(171,555,cs),
(83,555,o),
(16,481,o),
(16,377,c),
(71,377,l),
(73,447,o),
(111,487,o),
(161,487,cs),
(209,487,o),
(243,450,o),
(243,376,cs),
(243,144,o),
(195,53,o),
(127,53,cs),
(90,53,o),
(71,79,o),
(71,110,cs),
(71,164,o),
(129,203,o),
(217,203,cs),
(259,203,l),
(265,284,l),
(223,284,ls),
(100,284,o),
(12,213,o),
(12,110,cs),
(12,31,o),
(62,-10,o),
(122,-10,cs)
);
},
{
closed = 1;
nodes = (
(859,-10,o),
(897,21,o),
(897,81,cs),
(897,522,l),
(877,498,l),
(917,498,ls),
(957,498,o),
(979,478,o),
(979,436,cs),
(979,0,l),
(1032,0,l),
(1032,420,ls),
(1032,509,o),
(1001,545,o),
(911,545,cs),
(844,545,l),
(844,81,ls),
(844,54,o),
(836,37,o),
(820,37,cs),
(799,37,o),
(790,53,o),
(790,81,c),
(769,107,l),
(759,107,l),
(739,81,l),
(739,21,o),
(774,-10,o),
(816,-10,cs)
);
}
);
};
layerId = m009;
shapes = (
{
alignment = -1;
pos = (-8,0);
ref = _na_tenas;
},
{
alignment = -1;
pos = (-8,0);
ref = _na_baong;
},
{
alignment = -1;
pos = (-8,0);
ref = _na_bangkiang;
},
{
pos = (-29,0);
ref = _ha_bangkiang;
},
{
pos = (1,0);
ref = _ha_geluungan_ha;
},
{
pos = (-8,0);
ref = _na_batis;
}
);
width = 1195;
}
);
metricLeft = "na-bali";
metricRight = "ha-bali";
unicode = 6931;
},
{
glyphname = "kafSasak-bali";
layers = (
{
layerId = m009;
shapes = (
{
closed = 1;
nodes = (
(735,-10,o),
(781,37,o),
(781,107,cs),
(781,238,o),
(621,285,o),
(511,285,cs),
(246,285,l),
(217,258,l),
(217,232,l),
(240,205,l),
(512,205,ls),
(601,205,o),
(721,182,o),
(721,109,cs),
(721,71,o),
(688,53,o),
(643,53,cs),
(561,53,o),
(498,113,o),
(498,245,cs),
(498,378,o),
(558,478,o),
(691,478,cs),
(805,478,o),
(863,406,o),
(863,264,cs),
(863,70,l),
(914,70,l),
(914,275,ls),
(914,461,o),
(839,555,o),
(703,555,cs),
(534,555,o),
(447,406,o),
(447,248,cs),
(447,87,o),
(534,-10,o),
(652,-10,cs)
);
},
{
closed = 1;
nodes = (
(199,3,o),
(267,116,o),
(267,387,cs),
(267,500,o),
(221,555,o),
(144,555,cs),
(56,555,o),
(-11,481,o),
(-11,377,c),
(44,377,l),
(46,447,o),
(84,487,o),
(134,487,cs),
(182,487,o),
(216,450,o),
(216,376,cs),
(216,144,o),
(168,53,o),
(100,53,cs),
(63,53,o),
(44,79,o),
(44,110,cs),
(44,164,o),
(102,203,o),
(190,203,cs),
(232,203,l),
(238,284,l),
(196,284,ls),
(73,284,o),
(-15,213,o),
(-15,110,cs),
(-15,31,o),
(35,-10,o),
(95,-10,cs)
);
},
{
closed = 1;
nodes = (
(564,-266,o),
(621,-219,o),
(671,-118,c),
(638,-87,l),
(600,-154,o),
(554,-187,o),
(500,-187,cs),
(434,-187,o),
(377,-138,o),
(377,-34,cs),
(377,357,l),
(332,357,l),
(332,-56,ls),
(332,-199,o),
(396,-266,o),
(488,-266,cs)
);
},
{
closed = 1;
nodes = (
(983,-10,o),
(1021,21,o),
(1021,81,cs),
(1021,522,l),
(1001,498,l),
(1041,498,ls),
(1081,498,o),
(1103,478,o),
(1103,436,cs),
(1103,0,l),
(1156,0,l),
(1156,420,ls),
(1156,509,o),
(1125,545,o),
(1035,545,cs),
(968,545,l),
(968,81,ls),
(968,54,o),
(960,37,o),
(944,37,cs),
(923,37,o),
(914,53,o),
(914,81,c),
(893,107,l),
(883,107,l),
(863,81,l),
(863,21,o),
(898,-10,o),
(940,-10,cs)
);
}
);
width = 1141;
}
);
unicode = 6981;
},
{
glyphname = "khotSasak-bali";
layers = (
{
layerId = m009;
shapes = (
{
closed = 1;
nodes = (
(614,-10,o),
(660,37,o),
(660,107,cs),
(660,238,o),
(500,285,o),
(390,285,cs),
(283,285,l),
(254,268,l),
(254,242,l),
(277,205,l),
(391,205,ls),
(480,205,o),
(600,182,o),
(600,109,cs),
(600,71,o),
(567,53,o),
(522,53,cs),
(440,53,o),
(377,113,o),
(377,245,cs),
(377,378,o),
(437,478,o),
(570,478,cs),
(684,478,o),
(742,406,o),
(742,264,cs),
(742,130,ls),
(742,45,o),
(811,-10,o),
(921,-10,cs),
(1029,-10,o),
(1096,35,o),
(1096,130,cs),
(1096,350,ls),
(1096,439,o),
(1144,487,o),
(1231,487,cs),
(1316,487,o),
(1362,440,o),
(1362,350,cs),
(1362,0,l),
(1417,0,l),
(1417,349,ls),
(1417,490,o),
(1360,555,o),
(1237,555,cs),
(1109,555,o),
(1041,484,o),
(1041,349,cs),
(1041,140,ls),
(1041,66,o),
(1000,37,o),
(922,37,cs),
(839,37,o),
(793,73,o),
(793,140,cs),
(793,275,ls),
(793,461,o),
(718,555,o),
(582,555,cs),
(413,555,o),
(326,406,o),
(326,248,cs),
(326,87,o),
(413,-10,o),
(531,-10,cs)
);
},
{
closed = 1;
nodes = (
(229,-10,o),
(297,116,o),
(297,387,cs),
(297,500,o),
(251,555,o),
(174,555,cs),
(86,555,o),
(19,481,o),
(19,377,c),
(74,377,l),
(76,447,o),
(114,487,o),
(164,487,cs),
(212,487,o),
(246,450,o),
(246,376,cs),
(246,144,o),
(198,53,o),
(130,53,cs),
(93,53,o),
(74,79,o),
(74,110,cs),
(74,164,o),
(132,203,o),
(220,203,cs),
(262,203,l),
(268,284,l),
(226,284,ls),
(103,284,o),
(15,213,o),
(15,110,cs),
(15,31,o),
(65,-10,o),
(125,-10,cs)
);
},
{
closed = 1;
nodes = (
(1686,-5,l),
(1686,415,ls),
(1686,504,o),
(1655,540,o),
(1565,540,cs),
(1498,540,l),
(1498,149,ls),
(1498,73,o),
(1454,50,o),
(1396,50,c),
(1396,0,l),
(1485,0,o),
(1551,29,o),
(1551,151,cs),
(1551,517,l),
(1531,493,l),
(1571,493,ls),
(1611,493,o),
(1633,473,o),
(1633,431,cs),
(1633,-5,l)
);
}
);
width = 1715;
}
);
unicode = 6982;
},
{
color = 9;
glyphname = "da-bali";
layers = (
{
.lastUpdate = 705314872.63;
anchors = (
{
name = bottom;
pos = (920,0);
},
{
name = class0;
pos = (959,0);
},
{
name = top;
pos = (414,650);
}
);
background = {
shapes = (
{
closed = 1;
nodes = (
(513,-10,o),
(539,140,o),
(656,140,cs),
(693,140,o),
(713,125,o),
(713,100,cs),
(713,71,o),
(687,53,o),
(657,53,cs),
(602,53,o),
(540,113,o),
(540,256,cs),
(540,411,o),
(595,478,o),
(719,478,cs),
(821,478,o),
(905,418,o),
(905,264,cs),
(905,0,l),
(956,0,l),
(956,275,ls),
(956,483,o),
(854,555,o),
(721,555,cs),
(571,555,o),
(475,439,o),
(475,259,cs),
(475,79,o),
(566,-10,o),
(659,-10,cs),
(727,-10,o),
(773,37,o),
(773,102,cs),
(773,165,o),
(729,206,o),
(666,206,cs),
(545,206,o),
(440,59,o),
(338,59,cs),
(283,59,o),
(251,103,o),
(251,197,cs),
(251,412,ls),
(251,500,o),
(205,555,o),
(140,555,cs),
(64,555,o),
(28,481,o),
(33,398,c),
(88,398,l),
(88,459,o),
(114,483,o),
(142,483,cs),
(169,483,o),
(200,461,o),
(200,401,cs),
(200,195,ls),
(200,41,o),
(252,-10,o),
(346,-10,cs)
);
}
);
};
layerId = m009;
shapes = (
{
closed = 1;
nodes = (
(443,-10,o),
(490,160,o),
(597,160,cs),
(627,160,o),
(653,141,o),
(653,103,cs),
(653,70,o),
(635,52,o),
(599,52,cs),
(545,52,o),
(482,124,o),
(481,248,c),
(479,258,l),
(414,260,l),
(410,250,l),
(410,79,o),
(501,-10,o),
(594,-10,cs),
(671,-10,o),
(717,38,o),
(717,104,cs),
(717,184,o),
(661,221,o),
(603,221,cs),
(478,221,o),
(394,55,o),
(284,55,cs),
(275,55,l),
(276,-10,l)
);
},
{
pos = (13,0);
ref = _la_tenas;
},
{
pos = (64,0);
ref = _na_bangkiang;
},
{
alignment = -1;
pos = (89,0);
ref = _stem_ending;
}
);
width = 959;
},
{
associatedMasterId = m009;
background = {
shapes = (
{
closed = 1;
nodes = (
(509,-10,o),
(535,140,o),
(652,140,cs),
(689,140,o),
(709,125,o),
(709,100,cs),
(709,71,o),
(683,53,o),
(653,53,cs),
(598,53,o),
(536,113,o),
(536,256,cs),
(536,411,o),
(591,478,o),
(715,478,cs),
(817,478,o),
(901,418,o),
(901,264,cs),
(901,0,l),
(952,0,l),
(952,275,ls),
(952,483,o),
(850,555,o),
(717,555,cs),
(567,555,o),
(471,439,o),
(471,259,cs),
(471,79,o),
(562,-10,o),
(655,-10,cs),
(723,-10,o),
(769,37,o),
(769,102,cs),
(769,165,o),
(725,206,o),
(662,206,cs),
(541,206,o),
(436,59,o),
(334,59,cs),
(279,59,o),
(247,103,o),
(247,197,cs),
(247,412,ls),
(247,500,o),
(201,555,o),
(136,555,cs),
(60,555,o),
(24,481,o),
(29,398,c),
(84,398,l),
(84,459,o),
(110,483,o),
(138,483,cs),
(165,483,o),
(196,461,o),
(196,401,cs),
(196,195,ls),
(196,41,o),
(248,-10,o),
(342,-10,cs)
);
}
);
};
layerId = "B02C56B9-8290-4D76-A421-807225112228";
name = "2 May 23 15.37";
shapes = (
{
closed = 1;
nodes = (
(439,-10,o),
(479,140,o),
(588,140,cs),
(617,140,o),
(636,127,o),
(636,100,cs),
(636,71,o),
(619,53,o),
(583,53,cs),
(528,53,o),
(472,124,o),
(472,267,c),
(470,277,l),
(405,279,l),
(401,269,l),
(401,79,o),
(492,-10,o),
(585,-10,cs),
(653,-10,o),
(699,37,o),
(699,102,cs),
(699,165,o),
(655,207,o),
(592,207,cs),
(473,207,o),
(388,55,o),
(278,55,cs),
(271,55,l),
(272,-10,l)
);
},
{
pos = (9,0);
ref = _la_tenas;
},
{
pos = (55,0);
ref = _na_bangkiang;
},
{
alignment = -1;
pos = (55,0);
ref = _stem_ending;
}
);
width = 942;
},
{
associatedMasterId = m009;
background = {
shapes = (
{
closed = 1;
nodes = (
(510,-10,o),
(536,140,o),
(653,140,cs),
(690,140,o),
(710,125,o),
(710,100,cs),
(710,71,o),
(684,53,o),
(654,53,cs),
(599,53,o),
(537,113,o),
(537,256,cs),
(537,411,o),
(592,478,o),
(716,478,cs),
(818,478,o),
(902,418,o),
(902,264,cs),
(902,0,l),
(953,0,l),
(953,275,ls),
(953,483,o),
(851,555,o),
(718,555,cs),
(568,555,o),
(472,439,o),
(472,259,cs),
(472,79,o),
(563,-10,o),
(656,-10,cs),
(724,-10,o),
(770,37,o),
(770,102,cs),
(770,165,o),
(726,206,o),
(663,206,cs),
(542,206,o),
(437,59,o),
(335,59,cs),
(280,59,o),
(248,103,o),
(248,197,cs),
(248,412,ls),
(248,500,o),
(202,555,o),
(137,555,cs),
(61,555,o),
(25,481,o),
(30,398,c),
(85,398,l),
(85,459,o),
(111,483,o),
(139,483,cs),
(166,483,o),
(197,461,o),
(197,401,cs),
(197,195,ls),
(197,41,o),
(249,-10,o),
(343,-10,cs)
);
}
);
};
layerId = "B0C23EB0-E9D5-4B1F-8838-48577BAEE32D";
name = "2 May 23 17.02";
shapes = (
{
closed = 1;
nodes = (
(440,-10,o),
(482,160,o),
(589,160,cs),
(618,160,o),
(650,143,o),
(650,106,cs),
(650,69,o),
(628,49,o),
(594,49,cs),
(529,49,o),
(473,124,o),
(473,267,c),
(471,277,l),
(406,279,l),
(402,269,l),
(402,79,o),
(493,-10,o),
(586,-10,cs),
(654,-10,o),
(695,38,o),
(695,104,cs),
(695,165,o),
(652,205,o),
(595,205,cs),
(470,205,o),
(391,55,o),
(281,55,cs),
(272,55,l),
(273,-10,l)
);
},
{
pos = (10,0);
ref = _la_tenas;
},
{
pos = (56,0);
ref = _na_bangkiang;
},
{
alignment = -1;
pos = (71,0);
ref = _stem_ending;
}
);
width = 900;
}
);
metricLeft = "ha-bali";
metricRight = "ha-bali";
unicode = 6948;
},
{
glyphname = "daMadu-bali";
layers = (
{
layerId = m009;
shapes = (
{
closed = 1;
nodes = (
(403,-10,o),
(403,95,o),
(461,95,cs),
(512,95,o),
(503,-10,o),
(611,-10,cs),
(681,-10,o),
(757,77,o),
(757,228,cs),
(757,339,o),
(712,437,o),
(603,456,c),
(602,460,l),
(624,482,o),
(662,504,o),
(708,504,cs),
(765,504,o),
(814,470,o),
(814,387,cs),
(814,0,l),
(867,0,l),
(867,381,ls),
(867,491,o),
(811,555,o),
(713,555,cs),
(636,555,o),
(569,515,o),
(545,438,c),
(549,427,l),
(668,395,o),
(708,319,o),
(708,225,cs),
(708,108,o),
(652,55,o),
(599,53,cs),
(535,51,o),
(522,158,o),
(461,158,cs),
(395,158,o),
(382,51,o),
(324,54,cs),
(275,56,o),
(231,102,o),
(231,174,cs),
(231,412,ls),
(231,500,o),
(185,555,o),
(120,555,cs),
(44,555,o),
(8,481,o),
(13,398,c),
(68,398,l),
(68,459,o),
(94,483,o),
(122,483,cs),
(149,483,o),
(180,461,o),
(180,401,cs),
(180,174,ls),
(180,72,o),
(227,-10,o),
(312,-10,cs)
);
}
);
width = 889;
}
);
unicode = 6949;
},
{
glyphname = "daMurdaAlpaprana-bali";
layers = (
{
layerId = m009;
shapes = (
{
closed = 1;
nodes = (
(403,-10,o),
(403,95,o),
(457,95,cs),
(512,95,o),
(525,-10,o),
(631,-10,cs),
(696,-10,o),
(749,29,o),
(749,151,cs),
(749,517,l),
(729,493,l),
(769,493,ls),
(809,493,o),
(831,473,o),
(831,431,cs),
(831,-5,l),
(884,-5,l),
(884,415,ls),
(884,504,o),
(853,540,o),
(763,540,cs),
(696,540,l),
(696,149,ls),
(696,73,o),
(667,54,o),
(619,54,cs),
(546,53,o),
(522,158,o),
(461,158,cs),
(395,158,o),
(382,51,o),
(324,54,cs),
(275,56,o),
(231,102,o),
(231,174,cs),
(231,412,ls),
(231,500,o),
(185,555,o),
(120,555,cs),
(44,555,o),
(8,481,o),
(13,398,c),
(68,398,l),
(68,459,o),
(94,483,o),
(122,483,cs),
(149,483,o),
(180,461,o),
(180,401,cs),
(180,174,ls),
(180,72,o),
(227,-10,o),
(312,-10,cs)
);
}
);
width = 889;
}
);
unicode = 6943;
},
{
glyphname = "daMurdaMahaprana-bali";
layers = (
{
layerId = m009;
shapes = (
{
closed = 1;
nodes = (
(403,-10,o),
(403,95,o),
(457,95,cs),
(512,95,o),
(525,-10,o),
(631,-10,cs),
(696,-10,o),
(749,29,o),
(749,151,cs),
(749,545,l),
(696,545,l),
(696,149,ls),
(696,73,o),
(667,54,o),
(619,54,cs),
(546,53,o),
(522,158,o),
(461,158,cs),
(395,158,o),
(382,51,o),
(324,54,cs),
(275,56,o),
(231,102,o),
(231,174,cs),
(231,412,ls),
(231,500,o),
(185,555,o),
(120,555,cs),
(44,555,o),
(8,481,o),
(13,398,c),
(68,398,l),
(68,459,o),
(94,483,o),
(122,483,cs),
(149,483,o),
(180,461,o),
(180,401,cs),
(180,174,ls),
(180,72,o),
(227,-10,o),
(312,-10,cs)
);
}
);
width = 780;
}
);
unicode = 6944;
},
{
color = 9;
glyphname = "ta-bali";
layers = (
{
.lastUpdate = 705314872.63;
anchors = (
{
name = bottom;
pos = (1138,0);
},
{
name = class0;
pos = (1177,0);
},
{
name = top;
pos = (539,650);
}
);
background = {
shapes = (
{
closed = 1;
nodes = (
(594,-11,o),
(673,52,o),
(673,176,cs),
(673,354,o),
(475,281,o),
(475,397,cs),
(475,456,o),
(524,487,o),
(624,487,cs),
(719,487,o),
(809,440,o),
(809,320,cs),
(809,129,ls),
(809,40,o),
(864,-11,o),
(931,-11,cs),
(997,-11,o),
(1045,39,o),
(1045,127,cs),
(1045,522,l),
(1025,498,l),
(1065,498,ls),
(1105,498,o),
(1127,478,o),
(1127,436,cs),
(1127,0,l),
(1180,0,l),
(1180,420,ls),
(1180,509,o),
(1149,545,o),
(1059,545,cs),
(992,545,l),
(992,125,ls),
(992,68,o),
(965,44,o),
(930,44,cs),
(895,44,o),
(864,67,o),
(864,119,cs),
(864,319,ls),
(864,490,o),
(775,555,o),
(633,555,cs),
(490,555,o),
(421,498,o),
(421,410,cs),
(421,241,o),
(620,302,o),
(620,160,cs),
(620,82,o),
(561,48,o),
(453,48,cs),
(330,48,o),
(269,96,o),
(269,186,cs),
(269,412,ls),
(269,500,o),
(223,555,o),
(158,555,cs),
(82,555,o),
(46,481,o),
(51,398,c),
(106,398,l),
(106,459,o),
(132,483,o),
(160,483,cs),
(187,483,o),
(218,461,o),
(218,401,cs),
(218,186,ls),
(218,64,o),
(286,-11,o),
(454,-11,cs)
);
}
);
};
layerId = m009;
shapes = (
{
closed = 1;
nodes = (
(396,-10,ls),
(547,-10,o),
(614,74,o),
(614,170,cs),
(614,243,o),
(576,299,o),
(477,319,cs),
(413,332,o),
(388,350,o),
(388,388,cs),
(388,444,o),
(441,483,o),
(539,483,cs),
(672,483,o),
(743,413,o),
(743,291,c),
(819,291,l),
(819,478,o),
(692,555,o),
(551,555,cs),
(409,555,o),
(319,485,o),
(319,380,cs),
(319,301,o),
(369,272,o),
(451,255,cs),
(526,240,o),
(539,208,o),
(539,173,cs),
(539,102,o),
(486,66,o),
(404,66,cs),
(377,66,l),
(365,-10,l)
);
},
{
pos = (51,0);
ref = _ha_tenas_ha;
},
{
pos = (-47,0);
ref = _ha_bangkiang;
},
{
pos = (-17,0);
ref = _ha_geluungan_ha;
}
);
width = 1177;
},
{
associatedMasterId = m009;
background = {
shapes = (
{
closed = 1;
nodes = (
(573,-11,o),
(652,52,o),
(652,176,cs),
(652,354,o),
(454,281,o),
(454,397,cs),
(454,456,o),
(503,487,o),
(603,487,cs),
(698,487,o),
(788,440,o),
(788,320,cs),
(788,129,ls),
(788,40,o),
(843,-11,o),
(910,-11,cs),
(976,-11,o),
(1024,39,o),
(1024,127,cs),
(1024,522,l),
(1004,498,l),
(1044,498,ls),
(1084,498,o),
(1106,478,o),
(1106,436,cs),
(1106,0,l),
(1159,0,l),
(1159,420,ls),
(1159,509,o),
(1128,545,o),
(1038,545,cs),
(971,545,l),
(971,125,ls),
(971,68,o),
(944,44,o),
(909,44,cs),
(874,44,o),
(843,67,o),
(843,119,cs),
(843,319,ls),
(843,490,o),
(754,555,o),
(612,555,cs),
(469,555,o),
(400,498,o),
(400,410,cs),
(400,241,o),
(599,302,o),
(599,160,cs),
(599,82,o),
(540,48,o),
(432,48,cs),
(309,48,o),
(248,96,o),
(248,186,cs),
(248,412,ls),
(248,500,o),
(202,555,o),
(137,555,cs),
(61,555,o),
(25,481,o),
(30,398,c),
(85,398,l),
(85,459,o),
(111,483,o),
(139,483,cs),
(166,483,o),
(197,461,o),
(197,401,cs),
(197,186,ls),
(197,64,o),
(265,-11,o),
(433,-11,cs)
);
}
);
};
layerId = "D38AAA8B-9F2D-4EC0-B257-0148F8050AC3";
name = "2 May 23 15.39";
shapes = (
{
closed = 1;
nodes = (
(429,-10,ls),
(530,-10,o),
(600,43,o),
(600,153,cs),
(600,343,o),
(393,319,o),
(393,404,cs),
(393,448,o),
(448,479,o),
(542,479,cs),
(630,479,o),
(722,451,o),
(722,291,c),
(798,291,l),
(798,472,o),
(712,555,o),
(549,555,cs),
(384,555,o),
(316,480,o),
(316,399,cs),
(316,262,o),
(524,297,o),
(524,157,cs),
(524,85,o),
(470,66,o),
(391,66,cs),
(356,66,l),
(344,-10,l)
);
},
{
pos = (30,0);
ref = _ha_tenas_ha;
},
{
pos = (-68,0);
ref = _ha_bangkiang;
},
{
pos = (-38,0);
ref = _ha_geluungan_ha;
}
);
width = 1120;
},
{
associatedMasterId = m009;
background = {
shapes = (
{
closed = 1;
nodes = (
(574,-11,o),
(653,52,o),
(653,176,cs),
(653,354,o),
(455,281,o),
(455,397,cs),
(455,456,o),
(504,487,o),
(604,487,cs),
(699,487,o),
(789,440,o),
(789,320,cs),
(789,129,ls),
(789,40,o),
(844,-11,o),
(911,-11,cs),
(977,-11,o),
(1025,39,o),
(1025,127,cs),
(1025,522,l),
(1005,498,l),
(1045,498,ls),
(1085,498,o),
(1107,478,o),
(1107,436,cs),
(1107,0,l),
(1160,0,l),
(1160,420,ls),
(1160,509,o),
(1129,545,o),
(1039,545,cs),
(972,545,l),
(972,125,ls),
(972,68,o),
(945,44,o),
(910,44,cs),
(875,44,o),
(844,67,o),
(844,119,cs),
(844,319,ls),
(844,490,o),
(755,555,o),
(613,555,cs),
(470,555,o),
(401,498,o),
(401,410,cs),
(401,241,o),
(600,302,o),
(600,160,cs),
(600,82,o),
(541,48,o),
(433,48,cs),
(310,48,o),
(249,96,o),
(249,186,cs),
(249,412,ls),
(249,500,o),
(203,555,o),
(138,555,cs),
(62,555,o),
(26,481,o),
(31,398,c),
(86,398,l),
(86,459,o),
(112,483,o),
(140,483,cs),
(167,483,o),
(198,461,o),
(198,401,cs),
(198,186,ls),
(198,64,o),
(266,-11,o),
(434,-11,cs)
);
}
);
};
layerId = "5722E2B1-9EFA-4F47-BB80-D15DF3D74D4E";
name = "2 May 23 15.59";
shapes = (
{
closed = 1;
nodes = (
(430,-10,ls),
(531,-10,o),
(583,43,o),
(583,153,cs),
(583,325,o),
(394,299,o),
(394,397,cs),
(394,448,o),
(467,479,o),
(543,479,cs),
(631,479,o),
(723,451,o),
(723,291,c),
(799,291,l),
(799,472,o),
(713,555,o),
(550,555,cs),
(413,555,o),
(335,470,o),
(335,399,cs),
(335,262,o),
(525,297,o),
(525,157,cs),
(525,85,o),
(471,66,o),
(392,66,cs),
(357,66,l),
(345,-10,l)
);
},
{
pos = (31,0);
ref = _ha_tenas_ha;
},
{
pos = (-67,0);
ref = _ha_bangkiang;
},
{
pos = (-37,0);
ref = _ha_geluungan_ha;
}
);
width = 1114;
},
{
associatedMasterId = m009;
background = {
shapes = (
{
closed = 1;
nodes = (
(574,-11,o),
(653,52,o),
(653,176,cs),
(653,354,o),
(455,281,o),
(455,397,cs),
(455,456,o),
(504,487,o),
(604,487,cs),
(699,487,o),
(789,440,o),
(789,320,cs),
(789,129,ls),
(789,40,o),
(844,-11,o),
(911,-11,cs),
(977,-11,o),
(1025,39,o),
(1025,127,cs),
(1025,522,l),
(1005,498,l),
(1045,498,ls),
(1085,498,o),
(1107,478,o),
(1107,436,cs),
(1107,0,l),
(1160,0,l),
(1160,420,ls),
(1160,509,o),
(1129,545,o),
(1039,545,cs),
(972,545,l),
(972,125,ls),
(972,68,o),
(945,44,o),
(910,44,cs),
(875,44,o),
(844,67,o),
(844,119,cs),
(844,319,ls),
(844,490,o),
(755,555,o),
(613,555,cs),
(470,555,o),
(401,498,o),
(401,410,cs),
(401,241,o),
(600,302,o),
(600,160,cs),
(600,82,o),
(541,48,o),
(433,48,cs),
(310,48,o),
(249,96,o),
(249,186,cs),
(249,412,ls),
(249,500,o),
(203,555,o),
(138,555,cs),
(62,555,o),
(26,481,o),
(31,398,c),
(86,398,l),
(86,459,o),
(112,483,o),
(140,483,cs),
(167,483,o),
(198,461,o),
(198,401,cs),
(198,186,ls),
(198,64,o),
(266,-11,o),
(434,-11,cs)
);
}
);
};
layerId = "FAD0FD3F-3582-4648-8673-98DA3840321F";
name = "4 May 23 15.34";
shapes = (
{
closed = 1;
nodes = (
(400,-10,ls),
(517,-10,o),
(587,53,o),
(587,153,cs),
(587,326,o),
(409,321,o),
(409,399,cs),
(409,450,o),
(469,485,o),
(551,485,cs),
(633,485,o),
(723,451,o),
(723,291,c),
(799,291,l),
(799,472,o),
(702,555,o),
(559,555,cs),
(422,555,o),
(336,477,o),
(336,399,cs),
(336,270,o),
(515,297,o),
(515,157,cs),
(515,85,o),
(461,66,o),
(392,66,cs),
(357,66,l),
(345,-10,l)
);
},
{
pos = (31,0);
ref = _ha_tenas_ha;
},
{
pos = (-67,0);
ref = _ha_bangkiang;
},
{
pos = (-37,0);
ref = _ha_geluungan_ha;
}
);
width = 1160;
},
{
associatedMasterId = m009;
background = {
shapes = (
{
closed = 1;
nodes = (
(574,-11,o),
(653,52,o),
(653,176,cs),
(653,354,o),
(455,281,o),
(455,397,cs),
(455,456,o),
(504,487,o),
(604,487,cs),
(699,487,o),
(789,440,o),
(789,320,cs),
(789,129,ls),
(789,40,o),
(844,-11,o),
(911,-11,cs),
(977,-11,o),
(1025,39,o),
(1025,127,cs),
(1025,522,l),
(1005,498,l),
(1045,498,ls),
(1085,498,o),
(1107,478,o),
(1107,436,cs),
(1107,0,l),
(1160,0,l),
(1160,420,ls),
(1160,509,o),
(1129,545,o),
(1039,545,cs),
(972,545,l),
(972,125,ls),
(972,68,o),
(945,44,o),
(910,44,cs),
(875,44,o),
(844,67,o),
(844,119,cs),
(844,319,ls),
(844,490,o),
(755,555,o),
(613,555,cs),
(470,555,o),
(401,498,o),
(401,410,cs),
(401,241,o),
(600,302,o),
(600,160,cs),
(600,82,o),
(541,48,o),
(433,48,cs),
(310,48,o),
(249,96,o),
(249,186,cs),
(249,412,ls),
(249,500,o),
(203,555,o),
(138,555,cs),
(62,555,o),
(26,481,o),
(31,398,c),
(86,398,l),
(86,459,o),
(112,483,o),
(140,483,cs),
(167,483,o),
(198,461,o),
(198,401,cs),
(198,186,ls),
(198,64,o),
(266,-11,o),
(434,-11,cs)
);
}
);
};
layerId = "146460DD-6658-4958-89B8-8279BA9FF819";
name = "4 May 23 15.54";
shapes = (
{
closed = 1;
nodes = (
(393,-10,ls),
(536,-10,o),
(591,84,o),
(591,168,cs),
(591,253,o),
(547,304,o),
(455,319,cs),
(391,330,o),
(366,345,o),
(366,387,cs),
(366,449,o),
(419,484,o),
(524,484,cs),
(649,484,o),
(723,413,o),
(723,272,c),
(799,291,l),
(799,491,o),
(667,555,o),
(539,555,cs),
(383,555,o),
(302,487,o),
(302,366,cs),
(302,283,o),
(349,272,o),
(431,255,cs),
(506,239,o),
(519,215,o),
(519,173,cs),
(519,115,o),
(475,66,o),
(392,66,cs),
(357,66,l),
(345,-10,l)
);
},
{
pos = (31,0);
ref = _ha_tenas_ha;
},
{
pos = (-67,0);
ref = _ha_bangkiang;
},
{
pos = (-37,0);
ref = _ha_geluungan_ha;
}
);
width = 1160;
}
);
metricLeft = "ha-bali";
metricRight = "ha-bali";
unicode = 6946;
},
{
glyphname = "taMurdaMahaprana-bali";
layers = (
{
layerId = m009;
shapes = (
{
closed = 1;
nodes = (
(878,0,l),
(878,349,ls),
(878,484,o),
(826,555,o),
(731,555,cs),
(663,555,o),
(620,519,o),
(604,423,c),
(603,423,l),
(590,519,o),
(545,555,o),
(479,555,cs),
(391,555,o),
(329,484,o),
(329,349,c),
(384,349,l),
(384,439,o),
(432,487,o),
(484,487,cs),
(537,487,o),
(568,437,o),
(581,333,c),
(627,333,l),
(639,429,o),
(676,487,o),
(728,487,cs),
(775,487,o),
(823,439,o),
(823,350,cs),
(823,0,l)
);
},
{
closed = 1;
nodes = (
(433,-11,o),
(477,52,o),
(510,127,c),
(473,151,l),
(441,84,o),
(416,48,o),
(354,48,cs),
(282,48,o),
(230,96,o),
(230,174,cs),
(230,412,ls),
(230,500,o),
(184,555,o),
(119,555,cs),
(43,555,o),
(7,481,o),
(12,398,c),
(67,398,l),
(67,459,o),
(93,483,o),
(121,483,cs),
(148,483,o),
(179,461,o),
(179,401,cs),
(179,174,ls),
(179,64,o),
(234,-11,o),
(338,-11,cs)
);
}
);
width = 905;
}
);
unicode = 6942;
},
{
glyphname = "taLatik-bali";
layers = (
{
layerId = m009;
shapes = (
{
closed = 1;
nodes = (
(565,-266,o),
(622,-219,o),
(672,-118,c),
(639,-87,l),
(601,-154,o),
(555,-187,o),
(501,-187,cs),
(435,-187,o),
(388,-138,o),
(388,-4,cs),
(388,115,o),
(407,201,o),
(440,201,cs),
(461,201,o),
(473,183,o),
(473,151,cs),
(473,77,o),
(416,48,o),
(354,48,cs),
(282,48,o),
(230,96,o),
(230,174,cs),
(230,412,ls),
(230,500,o),
(184,555,o),
(119,555,cs),
(43,555,o),
(7,481,o),
(12,398,c),
(67,398,l),
(67,459,o),
(93,483,o),
(121,483,cs),
(148,483,o),
(179,461,o),
(179,401,cs),
(179,174,ls),
(179,64,o),
(234,-11,o),
(338,-11,cs),
(463,-11,o),
(521,77,o),
(521,149,cs),
(521,204,o),
(492,248,o),
(437,248,cs),
(323,248,o),
(322,48,o),
(323,4,cs),
(329,-199,o),
(397,-266,o),
(488,-266,cs)
);
},
{
closed = 1;
nodes = (
(878,0,l),
(878,349,ls),
(878,484,o),
(826,555,o),
(731,555,cs),
(663,555,o),
(620,519,o),
(604,423,c),
(603,423,l),
(590,519,o),
(545,555,o),
(481,555,cs),
(391,555,o),
(329,484,o),
(329,349,c),
(384,349,l),
(384,439,o),
(432,487,o),
(484,487,cs),
(537,487,o),
(568,437,o),
(581,333,c),
(627,333,l),
(639,429,o),
(676,487,o),
(728,487,cs),
(775,487,o),
(823,439,o),
(823,350,cs),
(823,0,l)
);
}
);
width = 905;
}
);
unicode = 6941;
},
{
glyphname = "taTawa-bali";
layers = (
{
.lastUpdate = 705313817.021;
layerId = m009;
shapes = (
{
closed = 1;
nodes = (
(672,-141,l),
(528,121,ls),
(475,217,o),
(442,248,o),
(401,248,cs),
(356,248,o),
(319,188,o),
(319,114,c),
(346,114,l),
(346,147,o),
(368,181,o),
(401,181,cs),
(435,181,o),
(458,154,o),
(493,92,cs),
(634,-161,l)
);
},
{
ref = "wa-bali";
}
);
width = 709;
}
);
unicode = 6947;
},
{
glyphname = "tzirSasak-bali";
layers = (
{
.lastUpdate = 705313817.022;
layerId = m009;
shapes = (
{
ref = "ta-bali";
},
{
closed = 1;
nodes = (
(473,-266,o),
(530,-219,o),
(580,-118,c),
(547,-87,l),
(509,-154,o),
(463,-187,o),
(409,-187,cs),
(343,-187,o),
(286,-138,o),
(286,-34,cs),
(286,417,l),
(241,417,l),
(241,-56,ls),
(241,-199,o),
(305,-266,o),
(397,-266,cs)
);
}
);
width = 1120;
}
);
metricLeft = "ta-bali";
metricRight = "ta-bali";
unicode = 6983;
},
{
color = 9;
glyphname = "sa-bali";
layers = (
{
.lastUpdate = 705314872.63;
anchors = (
{
name = bottom;
pos = (818,0);
},
{
name = class0;
pos = (857,0);
},
{
name = top;
pos = (410,650);
}
);
background = {
shapes = (
{
closed = 1;
nodes = (
(610,-10,o),
(700,66,o),
(700,227,c),
(630,226,l),
(630,106,o),
(572,59,o),
(520,59,cs),
(430,59,o),
(393,214,o),
(293,249,c),
(278,253,l),
(265,186,l),
(341,174,o),
(377,-10,o),
(519,-10,cs)
);
}
);
};
layerId = m009;
shapes = (
{
closed = 1;
nodes = (
(564,-10,o),
(643,37,o),
(646,182,cs),
(648,291,l),
(580,291,l),
(580,223,ls),
(580,128,o),
(554,59,o),
(497,59,cs),
(406,59,o),
(385,233,o),
(277,253,c),
(265,188,l),
(344,168,o),
(350,-10,o),
(498,-10,cs)
);
},
{
alignment = -1;
pos = (-8,0);
ref = _na_tenas;
},
{
pos = (-337,0);
ref = _ha_geluungan_ha;
},
{
pos = (-8,0);
ref = _ca_awak;
}
);
width = 857;
},
{
associatedMasterId = m009;
layerId = "FD099883-FFB4-403A-8BAF-ED35C8685205";
name = "2 May 23 15.18";
shapes = (
{
closed = 1;
nodes = (
(619,-10,o),
(651,76,o),
(655,221,cs),
(657,291,l),
(581,291,l),
(581,262,ls),
(581,168,o),
(580,66,o),
(511,66,cs),
(431,66,o),
(386,213,o),
(285,251,c),
(273,179,l),
(352,130,o),
(388,-10,o),
(507,-10,cs)
);
},
{
alignment = -1;
ref = _na_tenas;
},
{
pos = (-325,0);
ref = _ha_geluungan_ha;
},
{
ref = _ca_awak;
}
);
width = 833;
},
{
associatedMasterId = m009;
layerId = "82537872-313D-4F67-BAAD-3E729C49346F";
name = "2 May 23 16.04";
shapes = (
{
closed = 1;
nodes = (
(579,-10,o),
(623,46,o),
(626,191,cs),
(628,291,l),
(582,291,l),
(582,262,ls),
(582,168,o),
(581,64,o),
(512,64,cs),
(432,64,o),
(383,213,o),
(286,251,c),
(274,188,l),
(353,139,o),
(389,-10,o),
(508,-10,cs)
);
},
{
alignment = -1;
pos = (1,0);
ref = _na_tenas;
},
{
pos = (-316,0);
ref = _ha_geluungan_ha;
},
{
pos = (1,0);
ref = _ca_awak;
}
);
width = 835;
},
{
associatedMasterId = m009;
background = {
shapes = (
{
pos = (1,0);
ref = "ca-bali";
},
{
ref = "na-bali";
}
);
};
layerId = "1937509B-C7DF-48B8-99EA-73A6FB8C1B8F";
name = "3 May 23 17.41";
shapes = (
{
closed = 1;
nodes = (
(630,-10,o),
(711,37,o),
(714,182,cs),
(716,291,l),
(648,291,l),
(648,223,ls),
(648,129,o),
(630,58,o),
(561,58,cs),
(458,58,o),
(406,233,o),
(308,253,c),
(296,188,l),
(365,169,o),
(416,-10,o),
(555,-10,cs)
);
},
{
alignment = -1;
pos = (23,0);
ref = _na_tenas;
},
{
pos = (-269,0);
ref = _ha_geluungan_ha;
},
{
pos = (23,0);
ref = _ca_awak;
}
);
width = 928;
},
{
associatedMasterId = m009;
background = {
shapes = (
{
closed = 1;
nodes = (
(641,-10,o),
(731,66,o),
(731,227,c),
(661,226,l),
(661,106,o),
(603,59,o),
(551,59,cs),
(461,59,o),
(424,214,o),
(324,249,c),
(309,253,l),
(296,186,l),
(372,174,o),
(408,-10,o),
(550,-10,cs)
);
}
);
};
layerId = "4D02B5C3-BBDF-4213-91E0-63E9EDC57A49";
name = "4 May 23 16.00";
shapes = (
{
closed = 1;
nodes = (
(608,-10,o),
(689,37,o),
(692,182,cs),
(694,291,l),
(626,291,l),
(626,223,ls),
(626,129,o),
(608,58,o),
(539,58,cs),
(436,58,o),
(406,233,o),
(308,253,c),
(296,188,l),
(365,169,o),
(394,-10,o),
(533,-10,cs)
);
},
{
alignment = -1;
pos = (23,0);
ref = _na_tenas;
},
{
pos = (-291,0);
ref = _ha_geluungan_ha;
},
{
pos = (23,0);
ref = _ca_awak;
}
);
width = 906;
}
);
metricLeft = "na-bali";
metricRight = "ha-bali";
unicode = 6962;
},
{
glyphname = "saSapa-bali";
lastChange = "2023-05-08 06:19:08 +0000";
layers = (
{
.lastUpdate = 705306305.393;
layerId = m009;
shapes = (
{
ref = "pa-bali";
},
{
closed = 1;
nodes = (
(651,-111,l),
(507,151,ls),
(454,247,o),
(421,278,o),
(380,278,cs),
(335,278,o),
(298,218,o),
(298,144,c),
(325,144,l),
(325,177,o),
(347,211,o),
(380,211,cs),
(414,211,o),
(437,184,o),
(472,122,cs),
(613,-131,l)
);
}
);
width = 882;
}
);
metricLeft = "pa-bali";
metricRight = "pa-bali";
unicode = 6961;
},
{
glyphname = "saSaga-bali";
layers = (
{
.lastUpdate = 705306305.376;
layerId = m009;
shapes = (
{
closed = 1;
nodes = (
(686,-52,l),
(627,145,ls),
(603,226,o),
(563,245,o),
(534,245,cs),
(457,245,o),
(444,146,o),
(454,96,c),
(481,100,l),
(474,133,o),
(488,178,o),
(531,178,cs),
(559,178,o),
(577,161,o),
(593,112,cs),
(651,-68,l)
);
},
{
pos = (40,0);
ref = "ga-bali";
}
);
width = 1046;
}
);
unicode = 6960;
},
{
glyphname = "zalSasak-bali";
layers = (
{
.lastUpdate = 705306305.387;
layerId = m009;
shapes = (
{
closed = 1;
nodes = (
(565,-266,o),
(622,-219,o),
(672,-118,c),
(639,-87,l),
(601,-154,o),
(555,-187,o),
(501,-187,cs),
(435,-187,o),
(378,-138,o),
(378,-34,cs),
(378,347,l),
(333,347,l),
(333,-56,ls),
(333,-199,o),
(397,-266,o),
(489,-266,cs)
);
},
{
ref = "sa-bali";
}
);
width = 750;
}
);
unicode = 6986;
},
{
glyphname = "asyuraSasak-bali";
layers = (
{
layerId = m009;
shapes = (
{
closed = 1;
nodes = (
(877,0,o),
(909,86,o),
(925,202,c),
(926,202,l),
(945,87,o),
(988,0,o),
(1076,0,cs),
(1163,0,o),
(1206,71,o),
(1206,186,cs),
(1206,522,l),
(1186,498,l),
(1226,498,ls),
(1266,498,o),
(1288,478,o),
(1288,436,cs),
(1288,0,l),
(1341,0,l),
(1341,420,ls),
(1341,509,o),
(1310,545,o),
(1220,545,cs),
(1153,545,l),
(1153,184,ls),
(1153,107,o),
(1118,68,o),
(1074,68,cs),
(982,68,o),
(949,237,o),
(949,512,c),
(903,512,l),
(903,237,o),
(871,68,o),
(778,68,cs),
(740,68,o),
(705,96,o),
(705,177,cs),
(705,420,ls),
(705,509,o),
(674,545,o),
(584,545,cs),
(517,545,l),
(517,96,l),
(531,64,l),
(544,64,l),
(570,96,l),
(570,522,l),
(550,498,l),
(590,498,ls),
(630,498,o),
(652,478,o),
(652,436,cs),
(652,186,ls),
(652,51,o),
(704,0,o),
(780,0,cs)
);
},
{
closed = 1;
nodes = (
(214,-10,o),
(287,116,o),
(287,387,cs),
(287,500,o),
(241,555,o),
(164,555,cs),
(76,555,o),
(9,481,o),
(9,377,c),
(64,377,l),
(66,447,o),
(104,487,o),
(154,487,cs),
(202,487,o),
(236,450,o),
(236,376,cs),
(236,144,o),
(182,56,o),
(123,56,cs),
(92,56,o),
(64,80,o),
(64,126,cs),
(64,191,o),
(116,229,o),
(170,229,cs),
(218,229,o),
(258,199,o),
(313,113,cs),
(360,39,o),
(398,-10,o),
(468,-10,cs),
(536,-10,o),
(570,35,o),
(570,104,c),
(517,126,l),
(517,86,o),
(500,66,o),
(472,66,cs),
(421,66,o),
(388,131,o),
(345,189,cs),
(308,240,o),
(256,294,o),
(179,294,cs),
(89,294,o),
(5,219,o),
(5,113,cs),
(5,31,o),
(57,-10,o),
(114,-10,cs)
);
}
);
width = 1515;
}
);
unicode = 6987;
},
{
color = 9;
glyphname = "wa-bali";
layers = (
{
.lastUpdate = 705314872.63;
anchors = (
{
name = bottom;
pos = (836,0);
},
{
name = class0;
pos = (875,0);
},
{
name = top;
pos = (428,650);
}
);
background = {
shapes = (
{
pos = (-15,0);
ref = "ca-bali";
},
{
closed = 1;
nodes = (
(433,-10,ls),
(553,-10,o),
(682,61,o),
(682,242,c),
(608,242,l),
(603,104,o),
(513,66,o),
(418,66,cs),
(377,66,l),
(365,-10,l)
);
}
);
};
layerId = m009;
shapes = (
{
alignment = -1;
pos = (51,0);
ref = _ha_tenas_ha;
},
{
alignment = -1;
pos = (54,0);
ref = _wa_ca_gelungan;
},
{
closed = 1;
nodes = (
(414,-10,ls),
(549,-10,o),
(678,59,o),
(678,227,c),
(608,226,l),
(603,105,o),
(512,66,o),
(407,66,cs),
(377,66,l),
(365,-10,l)
);
}
);
width = 875;
},
{
associatedMasterId = m009;
background = {
shapes = (
{
pos = (-35,0);
ref = "ca-bali";
}
);
};
layerId = "B6271D9F-CF74-4B40-B59F-CB625323FA42";
name = "2 May 23 17.36";
shapes = (
{
closed = 1;
nodes = (
(506,-10,o),
(615,69,o),
(615,232,c),
(541,232,l),
(539,105,o),
(458,66,o),
(357,66,c),
(345,-10,l)
);
},
{
pos = (31,0);
ref = _ha_tenas_ha;
},
{
pos = (11,0);
ref = _wa_ca_gelungan;
}
);
width = 847;
}
);
metricLeft = "ha-bali";
metricRight = "ha-bali";
unicode = 6959;
},
{
glyphname = "veSasak-bali";
layers = (
{
.lastUpdate = 705306305.396;
layerId = m009;
shapes = (
{
closed = 1;
nodes = (
(564,-266,o),
(621,-219,o),
(671,-118,c),
(638,-87,l),
(600,-154,o),
(554,-187,o),
(500,-187,cs),
(434,-187,o),
(377,-138,o),
(377,-34,cs),
(377,307,l),
(332,307,l),
(332,-56,ls),
(332,-199,o),
(396,-266,o),
(488,-266,cs)
);
},
{
ref = "wa-bali";
}
);
width = 679;
}
);
unicode = 6985;
},
{
color = 9;
glyphname = "la-bali";
layers = (
{
.lastUpdate = 705314872.63;
anchors = (
{
name = bottom;
pos = (1225,0);
},
{
name = class0;
pos = (1264,0);
},
{
name = top;
pos = (668,650);
}
);
background = {
shapes = (
{
pos = (19,0);
ref = "ha-bali";
}
);
};
layerId = m009;
shapes = (
{
closed = 1;
nodes = (
(1006,-10,o),
(1055,96,o),
(1055,250,cs),
(1055,291,l),
(987,291,l),
(987,255,ls),
(987,118,o),
(950,64,o),
(834,64,cs),
(727,64,o),
(681,102,o),
(681,177,cs),
(681,223,o),
(689,291,o),
(689,348,cs),
(689,486,o),
(609,555,o),
(489,555,c),
(488,479,l),
(576,479,o),
(614,429,o),
(614,329,cs),
(614,284,o),
(606,228,o),
(606,181,cs),
(606,38,o),
(690,-10,o),
(831,-10,cs)
);
},
{
pos = (13,0);
ref = _la_tenas;
},
{
alignment = -1;
pos = (70,0);
ref = _ha_geluungan_ha;
},
{
pos = (13,0);
ref = _la_baong;
}
);
width = 1264;
},
{
associatedMasterId = m009;
background = {
shapes = (
{
pos = (20,0);
ref = "ha-bali";
}
);
};
layerId = "E621CF28-4403-4A2C-A2B2-4F565A630316";
name = "2 May 23 15.20";
shapes = (
{
closed = 1;
nodes = (
(986,-10,o),
(1042,96,o),
(1042,260,cs),
(1042,291,l),
(966,291,l),
(966,266,ls),
(966,122,o),
(921,66,o),
(814,66,cs),
(724,66,o),
(682,104,o),
(682,177,cs),
(682,223,o),
(693,288,o),
(693,341,cs),
(693,483,o),
(610,555,o),
(490,555,c),
(489,479,l),
(577,479,o),
(615,429,o),
(615,329,cs),
(615,284,o),
(607,228,o),
(607,181,cs),
(607,38,o),
(689,-10,o),
(811,-10,cs)
);
},
{
pos = (14,0);
ref = _la_tenas;
},
{
alignment = -1;
pos = (60,0);
ref = _ha_geluungan_ha;
},
{
pos = (14,0);
ref = _la_baong;
}
);
width = 1218;
},
{
associatedMasterId = m009;
background = {
shapes = (
{
pos = (16,0);
ref = "ha-bali";
}
);
};
layerId = "987BD73A-DA7E-41D6-A276-3D8A4762C655";
name = "2 May 23 16.05";
shapes = (
{
closed = 1;
nodes = (
(950,-10,o),
(1000,96,o),
(1000,250,cs),
(1000,291,l),
(954,291,l),
(954,266,ls),
(954,122,o),
(918,56,o),
(810,56,cs),
(722,56,o),
(678,95,o),
(678,177,cs),
(678,223,o),
(689,288,o),
(689,341,cs),
(689,483,o),
(606,555,o),
(486,555,c),
(485,479,l),
(573,479,o),
(611,429,o),
(611,329,cs),
(611,284,o),
(603,228,o),
(603,181,cs),
(603,38,o),
(685,-10,o),
(807,-10,cs)
);
},
{
pos = (10,0);
ref = _la_tenas;
},
{
alignment = -1;
pos = (56,0);
ref = _ha_geluungan_ha;
},
{
pos = (10,0);
ref = _la_baong;
}
);
width = 1207;
}
);
metricLeft = "ha-bali";
metricRight = "ha-bali";
unicode = 6958;
},
{
color = 9;
glyphname = "ma-bali";
layers = (
{
.lastUpdate = 705314872.63;
anchors = (
{
name = bottom;
pos = (862,0);
},
{
name = class0;
pos = (901,0);
},
{
name = top;
pos = (454,650);
}
);
background = {
shapes = (
{
closed = 1;
nodes = (
(552,-10,o),
(643,57,o),
(643,181,cs),
(643,517,l),
(623,493,l),
(663,493,ls),
(703,493,o),
(725,473,o),
(725,431,cs),
(725,-5,l),
(778,-5,l),
(778,415,ls),
(778,504,o),
(747,540,o),
(657,540,cs),
(590,540,l),
(590,209,ls),
(590,97,o),
(525,70,o),
(409,70,cs),
(273,70,o),
(222,106,o),
(222,155,cs),
(222,208,o),
(282,252,o),
(416,252,c),
(416,298,l),
(290,298,o),
(222,347,o),
(222,407,cs),
(222,446,o),
(251,486,o),
(348,486,cs),
(397,486,o),
(443,477,o),
(507,441,c),
(522,508,l),
(469,540,o),
(416,555,o),
(350,555,cs),
(216,555,o),
(154,497,o),
(154,403,cs),
(154,334,o),
(190,291,o),
(286,275,c),
(286,274,l),
(190,261,o),
(154,216,o),
(154,150,cs),
(154,62,o),
(225,-10,o),
(409,-10,cs)
);
},
{
closed = 1;
nodes = (
(104,299,l),
(104,376,ls),
(104,476,o),
(157,512,o),
(266,512,cs),
(345,512,l),
(345,555,l),
(257,555,ls),
(116,555,o),
(52,501,o),
(52,372,cs),
(52,299,l)
);
}
);
};
layerId = m009;
shapes = (
{
closed = 1;
nodes = (
(584,-10,o),
(692,80,o),
(692,261,cs),
(692,291,l),
(624,291,l),
(624,266,ls),
(624,123,o),
(548,61,o),
(401,61,cs),
(304,61,o),
(242,89,o),
(242,153,cs),
(242,225,o),
(318,253,o),
(414,265,c),
(406,248,l),
(406,347,l),
(430,319,l),
(305,339,o),
(243,364,o),
(243,416,cs),
(243,451,o),
(272,480,o),
(345,480,cs),
(410,480,o),
(454,463,o),
(495,444,c),
(477,437,l),
(519,521,l),
(521,491,l),
(473,535,o),
(387,555,o),
(307,555,cs),
(291,555,ls),
(167,555,o),
(32,495,o),
(32,322,cs),
(32,273,o),
(55,208,o),
(89,167,c),
(73,172,l),
(135,199,l),
(133,185,l),
(114,230,o),
(100,267,o),
(100,324,cs),
(100,417,o),
(165,496,o),
(257,499,c),
(253,503,l),
(221,492,o),
(182,456,o),
(182,406,cs),
(182,342,o),
(231,307,o),
(297,294,c),
(297,290,l),
(228,273,o),
(171,221,o),
(171,142,cs),
(171,48,o),
(255,-10,o),
(394,-10,cs)
);
},
{
alignment = -1;
pos = (-293,0);
ref = _ha_geluungan_ha;
}
);
width = 901;
},
{
associatedMasterId = m009;
background = {
shapes = (
{
closed = 1;
nodes = (
(557,-10,o),
(648,57,o),
(648,181,cs),
(648,517,l),
(628,493,l),
(668,493,ls),
(708,493,o),
(730,473,o),
(730,431,cs),
(730,-5,l),
(783,-5,l),
(783,415,ls),
(783,504,o),
(752,540,o),
(662,540,cs),
(595,540,l),
(595,209,ls),
(595,97,o),
(530,70,o),
(414,70,cs),
(278,70,o),
(227,106,o),
(227,155,cs),
(227,208,o),
(287,252,o),
(421,252,c),
(421,298,l),
(295,298,o),
(227,347,o),
(227,407,cs),
(227,446,o),
(256,486,o),
(353,486,cs),
(402,486,o),
(448,477,o),
(512,441,c),
(527,508,l),
(474,540,o),
(421,555,o),
(355,555,cs),
(221,555,o),
(159,497,o),
(159,403,cs),
(159,334,o),
(195,291,o),
(291,275,c),
(291,274,l),
(195,261,o),
(159,216,o),
(159,150,cs),
(159,62,o),
(230,-10,o),
(414,-10,cs)
);
},
{
closed = 1;
nodes = (
(109,299,l),
(109,376,ls),
(109,476,o),
(162,512,o),
(271,512,cs),
(350,512,l),
(350,555,l),
(262,555,ls),
(121,555,o),
(57,501,o),
(57,372,cs),
(57,299,l)
);
}
);
};
layerId = "D96E6127-E041-4A45-91CE-BC92C2007791";
name = "2 May 23 15.22";
shapes = (
{
closed = 1;
nodes = (
(399,-10,ls),
(618,-10,o),
(672,99,o),
(672,260,cs),
(672,291,l),
(596,291,l),
(596,266,ls),
(596,123,o),
(556,62,o),
(406,62,cs),
(390,62,ls),
(305,62,o),
(247,86,o),
(247,149,cs),
(247,229,o),
(340,255,o),
(451,258,c),
(451,331,l),
(315,337,o),
(248,362,o),
(248,416,cs),
(248,451,o),
(277,483,o),
(350,483,cs),
(423,483,o),
(469,452,o),
(514,410,c),
(465,403,l),
(532,538,l),
(538,479,l),
(494,531,o),
(409,555,o),
(340,555,cs),
(313,555,ls),
(194,555,o),
(50,504,o),
(50,322,cs),
(50,199,l),
(124,199,l),
(124,336,ls),
(124,420,o),
(161,479,o),
(242,495,c),
(244,503,l),
(195,486,o),
(177,446,o),
(177,406,cs),
(177,332,o),
(236,307,o),
(302,294,c),
(302,289,l),
(232,274,o),
(170,220,o),
(170,139,cs),
(170,38,o),
(251,-10,o),
(387,-10,cs)
);
},
{
alignment = -1;
pos = (-302,0);
ref = _ha_geluungan_ha;
}
);
width = 848;
},
{
associatedMasterId = m009;
background = {
shapes = (
{
closed = 1;
nodes = (
(566,-10,o),
(657,57,o),
(657,181,cs),
(657,517,l),
(637,493,l),
(677,493,ls),
(717,493,o),
(739,473,o),
(739,431,cs),
(739,-5,l),
(792,-5,l),
(792,415,ls),
(792,504,o),
(761,540,o),
(671,540,cs),
(604,540,l),
(604,209,ls),
(604,97,o),
(539,70,o),
(423,70,cs),
(287,70,o),
(236,106,o),
(236,155,cs),
(236,208,o),
(296,252,o),
(430,252,c),
(430,298,l),
(304,298,o),
(236,347,o),
(236,407,cs),
(236,446,o),
(265,486,o),
(362,486,cs),
(411,486,o),
(457,477,o),
(521,441,c),
(536,508,l),
(483,540,o),
(430,555,o),
(364,555,cs),
(230,555,o),
(168,497,o),
(168,403,cs),
(168,334,o),
(204,291,o),
(300,275,c),
(300,274,l),
(204,261,o),
(168,216,o),
(168,150,cs),
(168,62,o),
(239,-10,o),
(423,-10,cs)
);
},
{
closed = 1;
nodes = (
(118,299,l),
(118,376,ls),
(118,476,o),
(171,512,o),
(280,512,cs),
(359,512,l),
(359,555,l),
(271,555,ls),
(130,555,o),
(66,501,o),
(66,372,cs),
(66,299,l)
);
}
);
};
layerId = "61D3694B-2868-4ACE-8733-BB197262E9F0";
name = "2 May 23 16.05";
shapes = (
{
closed = 1;
nodes = (
(408,-10,ls),
(597,-10,o),
(651,99,o),
(651,260,cs),
(651,291,l),
(605,291,l),
(605,266,ls),
(605,123,o),
(565,62,o),
(415,62,cs),
(399,62,ls),
(314,62,o),
(256,86,o),
(256,149,cs),
(256,229,o),
(349,255,o),
(460,258,c),
(460,331,l),
(324,337,o),
(257,362,o),
(257,416,cs),
(257,451,o),
(286,483,o),
(359,483,cs),
(432,483,o),
(478,452,o),
(523,410,c),
(474,403,l),
(541,538,l),
(547,479,l),
(503,531,o),
(418,555,o),
(349,555,cs),
(322,555,ls),
(203,555,o),
(59,504,o),
(59,322,cs),
(59,199,l),
(109,199,l),
(109,336,ls),
(109,430,o),
(179,492,o),
(251,495,c),
(253,503,l),
(204,486,o),
(186,446,o),
(186,406,cs),
(186,332,o),
(245,307,o),
(311,294,c),
(311,289,l),
(241,274,o),
(179,220,o),
(179,139,cs),
(179,38,o),
(260,-10,o),
(396,-10,cs)
);
},
{
alignment = -1;
pos = (-293,0);
ref = _ha_geluungan_ha;
}
);
width = 858;
}
);
metricRight = "ha-bali";
unicode = 6955;
},
{
color = 9;
glyphname = "ga-bali";
layers = (
{
.lastUpdate = 705314872.631;
anchors = (
{
name = bottom;
pos = (1172,0);
},
{
name = class0;
pos = (1211,0);
},
{
name = top;
pos = (584,650);
}
);
layerId = m009;
shapes = (
{
closed = 1;
nodes = (
(421,-10,ls),
(460,-10,o),
(472,1,o),
(472,13,cs),
(472,23,o),
(470,31,o),
(447,61,cs),
(394,130,o),
(365,194,o),
(365,276,cs),
(365,423,o),
(460,479,o),
(581,479,cs),
(708,479,o),
(804,418,o),
(804,265,cs),
(804,181,o),
(776,118,o),
(746,51,cs),
(738,34,o),
(734,25,o),
(734,17,cs),
(734,0,o),
(749,-10,o),
(775,-10,cs),
(913,-10,o),
(1002,84,o),
(1002,200,cs),
(1002,291,l),
(998,301,l),
(937,301,l),
(934,291,l),
(934,225,ls),
(934,108,o),
(870,61,o),
(786,50,c),
(799,36,l),
(847,112,o),
(878,182,o),
(878,275,cs),
(878,465,o),
(747,555,o),
(584,555,cs),
(411,555,o),
(291,452,o),
(291,276,cs),
(291,200,o),
(313,135,o),
(384,47,c),
(413,60,l),
(368,62,l),
(375,-10,l)
);
},
{
alignment = -1;
pos = (23,0);
ref = _nga_tenas;
},
{
alignment = -1;
pos = (17,0);
ref = _ha_geluungan_ha;
}
);
width = 1211;
},
{
associatedMasterId = m009;
layerId = "2F11F47D-D1D2-4E0D-BFFF-EEAC8D872991";
name = "3 May 23 12.28";
shapes = (
{
closed = 1;
nodes = (
(588,479,l),
(589,555,l),
(486,555,l),
(485,479,l)
);
},
{
pos = (10,0);
ref = _la_tenas;
},
{
pos = (-177,0);
ref = _ba_bangkiang;
},
{
alignment = -1;
pos = (-63,0);
ref = _ha_geluungan_ha;
},
{
pos = (10,0);
ref = _la_baong;
}
);
width = 1134;
},
{
associatedMasterId = m009;
layerId = "892DE945-8D7E-431F-B615-3346DCE1C714";
name = "4 May 23 16.18";
shapes = (
{
closed = 1;
nodes = (
(326,-10,o),
(375,38,o),
(375,110,cs),
(375,179,o),
(350,238,o),
(350,326,cs),
(350,433,o),
(418,481,o),
(524,481,cs),
(652,481,o),
(710,420,o),
(710,298,cs),
(710,220,o),
(684,123,o),
(658,43,cs),
(655,34,o),
(652,25,o),
(652,17,cs),
(652,0,o),
(667,-10,o),
(693,-10,cs),
(824,-10,o),
(912,84,o),
(912,200,cs),
(912,291,l),
(908,301,l),
(847,301,l),
(844,291,l),
(844,235,ls),
(844,128,o),
(796,63,o),
(704,53,c),
(727,36,l),
(757,117,o),
(784,220,o),
(784,306,cs),
(784,461,o),
(706,555,o),
(522,555,cs),
(380,555,o),
(278,473,o),
(278,331,cs),
(278,234,o),
(302,183,o),
(302,108,cs),
(302,73,o),
(280,55,o),
(255,55,c),
(256,-10,l)
);
},
{
pos = (-7,0);
ref = _la_tenas;
},
{
alignment = -1;
pos = (-73,0);
ref = _ha_geluungan_ha;
}
);
width = 1124;
}
);
metricLeft = "ha-bali";
metricRight = "ha-bali";
unicode = 6933;
},
{
glyphname = "gaGora-bali";
layers = (
{
layerId = m009;
shapes = (
{
closed = 1;
nodes = (
(683,-10,o),
(683,95,o),
(741,95,cs),
(792,95,o),
(783,-10,o),
(891,-10,cs),
(961,-10,o),
(1037,77,o),
(1037,228,cs),
(1037,339,o),
(992,437,o),
(883,456,c),
(882,460,l),
(904,482,o),
(942,504,o),
(988,504,cs),
(1045,504,o),
(1094,470,o),
(1094,387,cs),
(1094,0,l),
(1147,0,l),
(1147,381,ls),
(1147,491,o),
(1091,555,o),
(993,555,cs),
(916,555,o),
(849,515,o),
(825,438,c),
(829,427,l),
(948,395,o),
(988,319,o),
(988,225,cs),
(988,108,o),
(932,55,o),
(879,53,cs),
(815,51,o),
(802,158,o),
(741,158,cs),
(675,158,o),
(662,51,o),
(604,54,cs),
(555,56,o),
(511,102,o),
(511,174,c),
(511,540,l),
(444,540,ls),
(354,540,o),
(323,504,o),
(323,415,cs),
(323,0,l),
(376,0,l),
(376,431,ls),
(376,473,o),
(398,493,o),
(438,493,cs),
(478,493,l),
(458,517,l),
(458,174,l),
(458,72,o),
(507,-10,o),
(592,-10,cs)
);
},
{
closed = 1;
nodes = (
(362,0,l),
(362,69,l),
(311,69,ls),
(258,69,o),
(226,103,o),
(226,197,cs),
(226,412,ls),
(226,500,o),
(180,555,o),
(115,555,cs),
(39,555,o),
(3,481,o),
(8,398,c),
(63,398,l),
(63,459,o),
(89,483,o),
(117,483,cs),
(144,483,o),
(175,461,o),
(175,401,cs),
(175,195,ls),
(175,41,o),
(218,0,o),
(312,0,cs)
);
}
);
width = 1169;
}
);
unicode = 6934;
},
{
color = 9;
glyphname = "ba-bali";
lastChange = "2023-05-09 08:48:41 +0000";
layers = (
{
.lastUpdate = 705476579.822;
anchors = (
{
name = bottom;
pos = (1335,0);
},
{
name = class0;
pos = (1374,0);
},
{
name = top;
pos = (676,650);
}
);
background = {
shapes = (
{
closed = 1;
nodes = (
(403,0,l),
(403,350,ls),
(403,439,o),
(451,487,o),
(503,487,cs),
(556,487,o),
(587,437,o),
(600,333,c),
(646,333,l),
(658,429,o),
(695,487,o),
(747,487,cs),
(794,487,o),
(842,439,o),
(842,350,cs),
(842,0,l),
(897,0,l),
(897,349,ls),
(897,484,o),
(845,555,o),
(750,555,cs),
(682,555,o),
(639,519,o),
(623,423,c),
(622,423,l),
(609,519,o),
(564,555,o),
(498,555,cs),
(410,555,o),
(348,484,o),
(348,349,cs),
(348,69,l),
(297,71,o),
(267,105,o),
(267,197,cs),
(267,412,ls),
(267,500,o),
(221,555,o),
(156,555,cs),
(80,555,o),
(44,481,o),
(49,398,c),
(104,398,l),
(104,459,o),
(130,483,o),
(158,483,cs),
(185,483,o),
(216,461,o),
(216,401,cs),
(216,195,ls),
(216,44,o),
(257,0,o),
(348,0,cs)
);
},
{
closed = 1;
nodes = (
(1166,-5,l),
(1166,415,ls),
(1166,504,o),
(1135,540,o),
(1045,540,cs),
(978,540,l),
(978,149,ls),
(978,74,o),
(950,51,o),
(900,51,cs),
(871,51,l),
(871,0,l),
(897,0,l),
(975,0,o),
(1031,39,o),
(1031,151,cs),
(1031,493,l),
(1051,493,ls),
(1091,493,o),
(1113,473,o),
(1113,431,cs),
(1113,-5,l)
);
}
);
};
layerId = m009;
shapes = (
{
alignment = -1;
pos = (180,0);
ref = _ha_geluungan_ha;
},
{
pos = (23,0);
ref = _nga_body;
},
{
pos = (23,0);
ref = _nga_top;
},
{
alignment = -1;
pos = (23,0);
ref = _ba_bangkiang;
}
);
width = 1374;
}
);
metricLeft = "ha-bali";
metricRight = "ha-bali";
unicode = 6953;
},
{
glyphname = "baKembang-bali";
layers = (
{
layerId = m009;
shapes = (
{
closed = 1;
nodes = (
(490,-10,o),
(516,140,o),
(633,140,cs),
(670,140,o),
(690,125,o),
(690,100,cs),
(690,71,o),
(664,53,o),
(634,53,cs),
(579,53,o),
(517,113,o),
(517,256,cs),
(517,411,o),
(572,478,o),
(696,478,cs),
(798,478,o),
(882,418,o),
(882,264,cs),
(882,0,l),
(933,0,l),
(933,275,ls),
(933,483,o),
(831,555,o),
(698,555,cs),
(548,555,o),
(452,439,o),
(452,259,cs),
(452,79,o),
(543,-10,o),
(636,-10,cs),
(704,-10,o),
(750,37,o),
(750,102,cs),
(750,165,o),
(706,206,o),
(643,206,cs),
(522,206,o),
(417,59,o),
(309,59,cs),
(250,59,o),
(197,103,o),
(217,187,c),
(177,195,l),
(137,61,o),
(229,-10,o),
(323,-10,cs)
);
},
{
closed = 1;
nodes = (
(337,266,l),
(330,382,ls),
(323,499,o),
(272,555,o),
(206,555,cs),
(131,555,o),
(85,481,o),
(90,398,c),
(145,398,l),
(145,459,o),
(171,483,o),
(204,483,cs),
(236,483,o),
(270,460,o),
(277,381,cs),
(287,262,l)
);
}
);
width = 950;
}
);
unicode = 6954;
},
{
color = 9;
glyphname = "nga-bali";
lastChange = "2023-05-08 07:10:16 +0000";
layers = (
{
.lastUpdate = 705476579.844;
anchors = (
{
name = bottom;
pos = (1039,0);
},
{
name = class0;
pos = (1089,0);
},
{
name = top;
pos = (541,650);
}
);
background = {
shapes = (
{
closed = 0;
nodes = (
(641,309,l),
(662,418,o),
(710,479,o),
(787,479,cs)
);
},
{
closed = 0;
nodes = (
(798,555,ls),
(715,555,o),
(666,513,o),
(635,451,c)
);
}
);
};
layerId = m009;
shapes = (
{
closed = 1;
nodes = (
(1039,0,l),
(1039,339,ls),
(1039,481,o),
(955,555,o),
(845,555,c),
(836,479,l),
(893,479,o),
(963,453,o),
(963,329,cs),
(963,0,l)
);
},
{
pos = (23,0);
ref = _nga_body;
},
{
pos = (23,0);
ref = _nga_top;
}
);
width = 1089;
}
);
metricLeft = "ha-bali";
metricRight = "ha-bali";
unicode = 6935;
},
{
color = 9;
glyphname = "pa-bali";
lastChange = "2023-05-08 07:49:21 +0000";
layers = (
{
.lastUpdate = 705314872.631;
anchors = (
{
name = bottom;
pos = (803,0);
},
{
name = class0;
pos = (882,0);
},
{
name = top;
pos = (407,650);
}
);
background = {
shapes = (
{
pos = (31,0);
ref = "wa-bali";
}
);
};
layerId = m009;
shapes = (
{
closed = 1;
nodes = (
(434,-10,ls),
(589,-10,o),
(673,99,o),
(673,260,cs),
(673,291,l),
(605,291,l),
(605,266,ls),
(605,138,o),
(548,66,o),
(439,66,cs),
(377,66,l),
(365,-10,l)
);
},
{
pos = (51,0);
ref = _ha_tenas_ha;
},
{
alignment = -1;
pos = (-312,0);
ref = _ha_geluungan_ha;
}
);
width = 882;
},
{
associatedMasterId = m009;
background = {
shapes = (
{
pos = (10,0);
ref = "wa-bali";
}
);
};
layerId = "CE4C7E6F-BDEB-40E5-8A5B-0C6FE33E2E58";
name = "2 May 23 14.53";
shapes = (
{
closed = 1;
nodes = (
(519,-10,o),
(620,69,o),
(620,260,cs),
(620,291,l),
(544,291,l),
(544,266,ls),
(544,114,o),
(471,66,o),
(356,66,c),
(344,-10,l)
);
},
{
pos = (30,0);
ref = _ha_tenas_ha;
},
{
alignment = -1;
pos = (-362,0);
ref = _ha_geluungan_ha;
}
);
width = 796;
},
{
associatedMasterId = m009;
background = {
shapes = (
{
pos = (11,0);
ref = "wa-bali";
}
);
};
layerId = "D381F9CB-BECB-4104-A520-66953F839354";
name = "2 May 23 16.06";
shapes = (
{
closed = 1;
nodes = (
(520,-10,o),
(583,87,o),
(583,260,cs),
(583,291,l),
(537,291,l),
(537,266,ls),
(537,124,o),
(472,66,o),
(357,66,c),
(345,-10,l)
);
},
{
pos = (31,0);
ref = _ha_tenas_ha;
},
{
alignment = -1;
pos = (-361,0);
ref = _ha_geluungan_ha;
}
);
width = 790;
}
);
metricLeft = "ha-bali";
metricRight = "ha-bali";
unicode = 6951;
},
{
glyphname = "paKapal-bali";
layers = (
{
layerId = m009;
shapes = (
{
closed = 1;
nodes = (
(550,-11,o),
(616,52,o),
(616,206,cs),
(616,545,ls),
(616,660,o),
(585,710,o),
(512,710,cs),
(433,710,o),
(398,647,o),
(400,580,cs),
(404,473,o),
(494,420,o),
(578,420,cs),
(661,420,o),
(716,459,o),
(757,553,c),
(724,584,l),
(686,514,o),
(644,494,o),
(586,494,cs),
(532,494,o),
(455,526,o),
(455,590,cs),
(455,625,o),
(474,647,o),
(504,647,cs),
(536,647,o),
(563,626,o),
(563,545,cs),
(563,204,ls),
(563,82,o),
(497,48,o),
(408,48,cs),
(303,48,o),
(239,96,o),
(239,224,cs),
(239,412,ls),
(239,500,o),
(193,555,o),
(128,555,cs),
(52,555,o),
(16,481,o),
(21,398,c),
(76,398,l),
(76,459,o),
(102,483,o),
(130,483,cs),
(157,483,o),
(188,461,o),
(188,401,cs),
(188,224,ls),
(188,64,o),
(249,-11,o),
(406,-11,cs)
);
}
);
width = 770;
}
);
unicode = 6952;
},
{
glyphname = "efSasak-bali";
layers = (
{
.lastUpdate = 705306305.384;
layerId = m009;
shapes = (
{
closed = 1;
nodes = (
(633,-266,o),
(690,-219,o),
(740,-118,c),
(707,-87,l),
(669,-154,o),
(623,-187,o),
(569,-187,cs),
(503,-187,o),
(446,-138,o),
(446,-34,cs),
(446,337,l),
(401,337,l),
(401,-56,ls),
(401,-199,o),
(465,-266,o),
(557,-266,cs)
);
},
{
pos = (11,0);
ref = "pa-bali";
}
);
width = 781;
}
);
unicode = 6984;
},
{
color = 9;
glyphname = "ja-bali";
layers = (
{
.lastUpdate = 705314872.632;
anchors = (
{
name = bottom;
pos = (821,0);
},
{
name = class0;
pos = (860,0);
},
{
name = top;
pos = (434,650);
}
);
background = {
shapes = (
{
closed = 1;
nodes = (
(416,0,l),
(416,320,ls),
(416,436,o),
(487,487,o),
(606,487,cs),
(683,487,o),
(760,463,o),
(760,389,cs),
(760,322,o),
(693,275,o),
(575,238,c),
(575,203,l),
(698,195,o),
(779,170,o),
(779,31,cs),
(779,0,l),
(840,0,l),
(840,41,ls),
(840,162,o),
(759,228,o),
(679,228,c),
(679,231,l),
(754,250,o),
(815,320,o),
(815,399,cs),
(815,498,o),
(720,555,o),
(603,555,cs),
(453,555,o),
(361,481,o),
(361,319,cs),
(361,0,l)
);
},
{
closed = 1;
nodes = (
(416,0,l),
(416,69,l),
(365,69,ls),
(312,69,o),
(280,103,o),
(280,197,cs),
(280,412,ls),
(280,500,o),
(234,555,o),
(169,555,cs),
(93,555,o),
(57,481,o),
(62,398,c),
(117,398,l),
(117,459,o),
(143,483,o),
(171,483,cs),
(198,483,o),
(229,461,o),
(229,401,cs),
(229,195,ls),
(229,41,o),
(272,0,o),
(366,0,cs)
);
}
);
};
layerId = m009;
shapes = (
{
closed = 1;
nodes = (
(413,-10,ls),
(434,-10,o),
(446,1,o),
(446,13,cs),
(446,23,o),
(442,30,o),
(432,48,cs),
(391,122,o),
(364,202,o),
(364,292,cs),
(364,395,o),
(415,479,o),
(570,479,cs),
(673,479,o),
(724,453,o),
(724,387,cs),
(724,328,o),
(673,298,o),
(568,291,c),
(579,306,l),
(579,228,l),
(562,243,l),
(684,225,o),
(724,187,o),
(726,95,cs),
(728,0,l),
(804,0,l),
(804,83,ls),
(804,189,o),
(771,245,o),
(702,269,c),
(702,273,l),
(755,292,o),
(803,330,o),
(803,403,cs),
(803,502,o),
(710,555,o),
(582,555,cs),
(398,555,o),
(291,449,o),
(291,296,cs),
(291,221,o),
(310,138,o),
(347,62,c),
(375,-10,l)
);
},
{
alignment = -1;
pos = (23,0);
ref = _nga_tenas;
}
);
width = 860;
}
);
metricLeft = "ha-bali";
unicode = 6938;
},
{
glyphname = "jaJera-bali";
layers = (
{
layerId = m009;
shapes = (
{
closed = 1;
nodes = (
(666,-383,o),
(666,-278,o),
(720,-278,cs),
(775,-278,o),
(788,-383,o),
(894,-383,cs),
(959,-383,o),
(1012,-344,o),
(1012,-222,cs),
(1012,615,ls),
(1012,740,o),
(976,790,o),
(904,790,cs),
(829,790,o),
(791,727,o),
(794,663,cs),
(798,573,o),
(890,519,o),
(1014,519,cs),
(1083,519,o),
(1107,503,o),
(1146,441,c),
(1172,464,l),
(1136,555,o),
(1082,581,o),
(982,581,cs),
(908,581,o),
(852,616,o),
(852,672,cs),
(852,707,o),
(873,727,o),
(904,727,cs),
(935,727,o),
(959,706,o),
(959,635,cs),
(959,-224,ls),
(959,-300,o),
(930,-319,o),
(882,-319,cs),
(809,-320,o),
(785,-215,o),
(724,-215,cs),
(658,-215,o),
(645,-322,o),
(587,-319,cs),
(538,-317,o),
(506,-271,o),
(506,-196,cs),
(506,22,o),
(878,119,o),
(878,379,cs),
(878,484,o),
(826,555,o),
(731,555,cs),
(663,555,o),
(620,519,o),
(604,423,c),
(603,423,l),
(590,519,o),
(545,555,o),
(479,555,cs),
(391,555,o),
(329,484,o),
(329,349,cs),
(329,69,l),
(278,71,o),
(248,105,o),
(248,197,cs),
(248,412,ls),
(248,500,o),
(202,555,o),
(137,555,cs),
(61,555,o),
(25,481,o),
(30,398,c),
(85,398,l),
(85,459,o),
(111,483,o),
(139,483,cs),
(166,483,o),
(197,461,o),
(197,401,cs),
(197,195,ls),
(197,44,o),
(238,0,o),
(329,0,cs),
(384,0,l),
(384,350,ls),
(384,439,o),
(432,487,o),
(484,487,cs),
(537,487,o),
(568,437,o),
(581,333,c),
(627,333,l),
(639,429,o),
(676,487,o),
(737,487,cs),
(785,487,o),
(823,450,o),
(823,380,cs),
(823,176,o),
(443,65,o),
(443,-199,cs),
(443,-301,o),
(490,-383,o),
(575,-383,cs)
);
}
);
width = 1175;
}
);
unicode = 6939;
},
{
color = 9;
glyphname = "ya-bali";
lastChange = "2023-05-08 06:18:45 +0000";
layers = (
{
.lastUpdate = 705314872.632;
anchors = (
{
name = bottom;
pos = (1045,0);
},
{
name = class0;
pos = (1085,0);
},
{
name = top;
pos = (514,650);
}
);
background = {
shapes = (
{
closed = 1;
nodes = (
(463,0,o),
(495,86,o),
(511,202,c),
(512,202,l),
(531,87,o),
(574,0,o),
(662,0,cs),
(749,0,o),
(792,71,o),
(792,186,cs),
(792,522,l),
(772,498,l),
(812,498,ls),
(852,498,o),
(874,478,o),
(874,436,cs),
(874,0,l),
(927,0,l),
(927,420,ls),
(927,509,o),
(896,545,o),
(806,545,cs),
(739,545,l),
(739,184,ls),
(739,107,o),
(704,68,o),
(660,68,cs),
(568,68,o),
(535,237,o),
(535,512,c),
(489,512,l),
(489,237,o),
(457,68,o),
(364,68,cs),
(326,68,o),
(289,96,o),
(289,177,cs),
(289,412,ls),
(289,500,o),
(243,555,o),
(178,555,cs),
(102,555,o),
(66,481,o),
(71,398,c),
(126,398,l),
(126,459,o),
(152,483,o),
(180,483,cs),
(207,483,o),
(238,461,o),
(238,401,cs),
(238,186,ls),
(238,51,o),
(290,0,o),
(366,0,cs)
);
}
);
};
layerId = m009;
shapes = (
{
alignment = -1;
pos = (-1,0);
ref = _ya_bali;
},
{
pos = (-109,0);
ref = _ha_geluungan_ha;
}
);
width = 1085;
}
);
metricLeft = "ha-bali";
metricRight = "ha-bali";
unicode = 6956;
},
{
color = 9;
glyphname = "nya-bali";
layers = (
{
.lastUpdate = 705476579.845;
anchors = (
{
name = bottom;
pos = (1372,0);
},
{
name = class0;
pos = (1628,0);
},
{
name = top;
pos = (793,650);
}
);
background = {
shapes = (
{
closed = 0;
nodes = (
(901,0,ls),
(979,0,o),
(1035,39,o),
(1035,221,cs),
(1035,401,o),
(1086,494,o),
(1229,494,cs),
(1301,494,o),
(1397,441,o),
(1397,263,cs),
(1397,105,o),
(1320,43,o),
(1244,43,cs),
(1189,43,o),
(1157,61,o),
(1139,86,c),
(1117,44,l),
(1138,11,o),
(1177,-10,o),
(1242,-10,cs),
(1341,-10,o),
(1456,70,o),
(1456,276,cs),
(1456,496,o),
(1325,555,o),
(1231,555,cs),
(1062,555,o),
(982,425,o),
(982,219,cs),
(982,70,o),
(935,41,o),
(875,54,c)
);
}
);
};
layerId = m009;
shapes = (
{
alignment = -1;
pos = (23,0);
ref = _nga_body;
},
{
alignment = -1;
pos = (23,0);
ref = _ba_bangkiang;
},
{
alignment = -1;
pos = (23,0);
ref = _nga_top;
},
{
pos = (90,0);
ref = _nya_ekor;
}
);
width = 1628;
}
);
metricLeft = "ha-bali";
unicode = 6940;
},
{
glyphname = "ha_tedung-bali";
layers = (
{
layerId = m009;
shapes = (
{
closed = 1;
nodes = (
(460,-11,o),
(505,52,o),
(506,156,cs),
(507,350,ls),
(507,439,o),
(555,487,o),
(622,487,cs),
(687,487,o),
(733,440,o),
(733,350,cs),
(733,127,ls),
(733,40,o),
(788,-11,o),
(858,-11,cs),
(921,-11,o),
(969,39,o),
(969,127,cs),
(969,338,ls),
(969,424,o),
(1019,494,o),
(1104,494,cs),
(1179,494,o),
(1223,438,o),
(1223,352,cs),
(1223,262,o),
(1169,211,o),
(1110,211,cs),
(1075,211,o),
(1043,229,o),
(1025,254,c),
(1003,212,l),
(1024,179,o),
(1063,158,o),
(1108,158,cs),
(1190,158,o),
(1282,227,o),
(1282,365,cs),
(1282,493,o),
(1203,555,o),
(1106,555,cs),
(1030,555,o),
(916,522,o),
(916,329,cs),
(916,125,ls),
(916,68,o),
(891,44,o),
(856,44,cs),
(819,44,o),
(788,67,o),
(788,117,cs),
(788,349,ls),
(788,490,o),
(731,555,o),
(628,555,cs),
(520,555,o),
(451,484,o),
(452,349,cs),
(453,154,ls),
(453,82,o),
(407,48,o),
(350,48,cs),
(286,48,o),
(242,96,o),
(242,174,cs),
(242,412,ls),
(242,500,o),
(196,555,o),
(131,555,cs),
(55,555,o),
(19,481,o),
(24,398,c),
(79,398,l),
(79,459,o),
(105,483,o),
(133,483,cs),
(160,483,o),
(191,461,o),
(191,401,cs),
(191,174,ls),
(191,64,o),
(232,-11,o),
(351,-11,cs)
);
}
);
width = 1300;
}
);
},
{
glyphname = "na_tedung-bali";
layers = (
{
layerId = m009;
shapes = (
{
closed = 1;
nodes = (
(594,-10,o),
(640,37,o),
(640,107,cs),
(640,238,o),
(480,285,o),
(370,285,cs),
(263,285,l),
(234,268,l),
(234,242,l),
(257,205,l),
(371,205,ls),
(460,205,o),
(580,182,o),
(580,109,cs),
(580,71,o),
(547,53,o),
(502,53,cs),
(420,53,o),
(357,113,o),
(357,245,cs),
(357,378,o),
(417,488,o),
(539,488,cs),
(594,488,o),
(630,464,o),
(659,433,c),
(682,467,l),
(682,477,l),
(659,488,l),
(645,519,o),
(607,555,o),
(538,555,cs),
(397,555,o),
(306,406,o),
(306,248,cs),
(306,87,o),
(393,-10,o),
(511,-10,cs)
);
},
{
closed = 1;
nodes = (
(209,-10,o),
(277,116,o),
(277,387,cs),
(277,500,o),
(231,555,o),
(154,555,cs),
(66,555,o),
(-1,481,o),
(-1,377,c),
(54,377,l),
(56,447,o),
(94,487,o),
(144,487,cs),
(192,487,o),
(226,450,o),
(226,376,cs),
(226,144,o),
(178,53,o),
(110,53,cs),
(73,53,o),
(54,79,o),
(54,110,cs),
(54,164,o),
(112,203,o),
(200,203,cs),
(242,203,l),
(248,284,l),
(206,284,ls),
(83,284,o),
(-5,213,o),
(-5,110,cs),
(-5,31,o),
(45,-10,o),
(105,-10,cs)
);
},
{
closed = 1;
nodes = (
(910,174,o),
(1002,243,o),
(1002,375,cs),
(1002,493,o),
(923,555,o),
(822,555,cs),
(751,555,o),
(697,524,o),
(666,488,c),
(659,488,l),
(659,433,l),
(673,433,l),
(705,474,o),
(758,494,o),
(811,494,cs),
(899,494,o),
(943,438,o),
(943,362,cs),
(943,278,o),
(889,227,o),
(830,227,cs),
(795,227,o),
(763,245,o),
(745,270,c),
(723,228,l),
(744,195,o),
(783,174,o),
(828,174,cs)
);
}
);
width = 1040;
}
);
},
{
glyphname = "ca_tedung-bali";
layers = (
{
layerId = m009;
shapes = (
{
closed = 1;
nodes = (
(239,-10,o),
(312,116,o),
(312,387,cs),
(312,500,o),
(266,555,o),
(189,555,cs),
(101,555,o),
(34,481,o),
(34,377,c),
(89,377,l),
(91,447,o),
(129,487,o),
(179,487,cs),
(227,487,o),
(261,450,o),
(261,376,cs),
(261,144,o),
(207,56,o),
(148,56,cs),
(117,56,o),
(89,80,o),
(89,126,cs),
(89,191,o),
(141,229,o),
(195,229,cs),
(243,229,o),
(283,199,o),
(338,113,cs),
(385,39,o),
(435,-10,o),
(504,-10,cs),
(626,-10,o),
(640,149,o),
(640,217,cs),
(640,345,o),
(581,428,o),
(467,458,c),
(466,462,l),
(484,485,o),
(512,504,o),
(551,504,cs),
(605,504,o),
(637,467,o),
(656,433,c),
(672,433,l),
(704,467,o),
(751,494,o),
(810,494,cs),
(894,494,o),
(938,438,o),
(938,362,cs),
(938,278,o),
(884,227,o),
(825,227,cs),
(790,227,o),
(758,245,o),
(740,270,c),
(718,228,l),
(739,195,o),
(778,174,o),
(823,174,cs),
(905,174,o),
(997,243,o),
(997,375,cs),
(997,493,o),
(918,555,o),
(821,555,cs),
(765,555,o),
(709,533,o),
(672,489,c),
(669,489,l),
(651,521,o),
(610,555,o),
(552,555,cs),
(489,555,o),
(432,515,o),
(408,438,c),
(412,427,l),
(536,403,o),
(587,344,o),
(587,222,cs),
(587,147,o),
(575,66,o),
(507,66,cs),
(446,66,o),
(413,131,o),
(370,189,cs),
(333,240,o),
(281,294,o),
(204,294,cs),
(114,294,o),
(30,219,o),
(30,113,cs),
(30,31,o),
(82,-10,o),
(139,-10,cs)
);
}
);
width = 1027;
}
);
},
{
glyphname = "ra_tedung-bali";
layers = (
{
layerId = m009;
shapes = (
{
closed = 1;
nodes = (
(384,0,l),
(384,69,l),
(333,69,ls),
(280,69,o),
(248,103,o),
(248,197,cs),
(248,412,ls),
(248,500,o),
(202,555,o),
(137,555,cs),
(61,555,o),
(25,481,o),
(30,398,c),
(85,398,l),
(85,459,o),
(111,483,o),
(139,483,cs),
(166,483,o),
(197,461,o),
(197,401,cs),
(197,195,ls),
(197,41,o),
(240,0,o),
(334,0,cs)
);
},
{
closed = 1;
nodes = (
(726,459,o),
(791,494,o),
(854,494,cs),
(934,494,o),
(978,438,o),
(978,362,cs),
(978,278,o),
(924,227,o),
(865,227,cs),
(830,227,o),
(798,245,o),
(780,270,c),
(758,228,l),
(779,195,o),
(818,174,o),
(863,174,cs),
(945,174,o),
(1037,243,o),
(1037,375,cs),
(1037,484,o),
(957,555,o),
(851,555,cs),
(775,555,o),
(724,523,o),
(688,487,c),
(685,487,l),
(653,530,o),
(601,555,o),
(533,555,cs),
(417,555,o),
(329,484,o),
(329,349,cs),
(329,0,l),
(384,0,l),
(384,350,ls),
(384,439,o),
(442,487,o),
(536,487,cs),
(592,487,o),
(631,469,o),
(681,416,c),
(694,416,l)
);
}
);
width = 1067;
}
);
},
{
glyphname = "ka_tedung-bali";
layers = (
{
layerId = m009;
shapes = (
{
closed = 1;
nodes = (
(609,-10,o),
(655,37,o),
(655,107,cs),
(655,238,o),
(495,285,o),
(385,285,cs),
(278,285,l),
(249,268,l),
(249,242,l),
(272,205,l),
(386,205,ls),
(475,205,o),
(595,182,o),
(595,109,cs),
(595,71,o),
(562,53,o),
(517,53,cs),
(435,53,o),
(372,113,o),
(372,245,cs),
(372,378,o),
(432,478,o),
(565,478,cs),
(679,478,o),
(737,406,o),
(737,264,cs),
(737,70,l),
(788,70,l),
(788,275,ls),
(788,461,o),
(713,555,o),
(577,555,cs),
(408,555,o),
(321,406,o),
(321,248,cs),
(321,87,o),
(408,-10,o),
(526,-10,cs)
);
},
{
closed = 1;
nodes = (
(224,-10,o),
(292,116,o),
(292,387,cs),
(292,500,o),
(246,555,o),
(169,555,cs),
(81,555,o),
(14,481,o),
(14,377,c),
(69,377,l),
(71,447,o),
(109,487,o),
(159,487,cs),
(207,487,o),
(241,450,o),
(241,376,cs),
(241,144,o),
(193,53,o),
(125,53,cs),
(88,53,o),
(69,79,o),
(69,110,cs),
(69,164,o),
(127,203,o),
(215,203,cs),
(257,203,l),
(263,284,l),
(221,284,ls),
(98,284,o),
(10,213,o),
(10,110,cs),
(10,31,o),
(60,-10,o),
(120,-10,cs)
);
},
{
closed = 1;
nodes = (
(857,-10,o),
(895,21,o),
(895,81,cs),
(895,338,ls),
(895,424,o),
(945,494,o),
(1030,494,cs),
(1105,494,o),
(1149,438,o),
(1149,352,cs),
(1149,262,o),
(1095,211,o),
(1036,211,cs),
(1001,211,o),
(969,229,o),
(951,254,c),
(929,212,l),
(950,179,o),
(989,158,o),
(1034,158,cs),
(1116,158,o),
(1208,227,o),
(1208,365,cs),
(1208,493,o),
(1129,555,o),
(1032,555,cs),
(956,555,o),
(842,522,o),
(842,329,cs),
(842,81,ls),
(842,54,o),
(834,37,o),
(818,37,cs),
(797,37,o),
(788,53,o),
(788,81,c),
(767,107,l),
(757,107,l),
(737,81,l),
(737,21,o),
(772,-10,o),
(814,-10,cs)
);
}
);
width = 1228;
}
);
},
{
glyphname = "da_tedung-bali";
layers = (
{
layerId = m009;
shapes = (
{
closed = 1;
nodes = (
(490,-10,o),
(516,140,o),
(633,140,cs),
(670,140,o),
(690,125,o),
(690,100,cs),
(690,71,o),
(664,53,o),
(634,53,cs),
(579,53,o),
(517,113,o),
(517,256,cs),
(517,411,o),
(579,492,o),
(685,492,cs),
(741,492,o),
(782,468,o),
(807,433,c),
(818,433,l),
(846,469,o),
(885,494,o),
(943,494,cs),
(1028,494,o),
(1072,438,o),
(1072,362,cs),
(1072,278,o),
(1018,227,o),
(959,227,cs),
(924,227,o),
(892,245,o),
(874,270,c),
(852,228,l),
(873,195,o),
(912,174,o),
(957,174,cs),
(1039,174,o),
(1131,243,o),
(1131,375,cs),
(1131,493,o),
(1052,555,o),
(948,555,cs),
(890,555,o),
(854,535,o),
(818,499,c),
(810,499,l),
(779,535,o),
(741,555,o),
(686,555,cs),
(550,555,o),
(452,439,o),
(452,259,cs),
(452,79,o),
(543,-10,o),
(636,-10,cs),
(704,-10,o),
(750,37,o),
(750,102,cs),
(750,165,o),
(706,206,o),
(643,206,cs),
(522,206,o),
(417,59,o),
(315,59,cs),
(260,59,o),
(228,103,o),
(228,197,cs),
(228,412,ls),
(228,500,o),
(182,555,o),
(117,555,cs),
(41,555,o),
(5,481,o),
(10,398,c),
(65,398,l),
(65,459,o),
(91,483,o),
(119,483,cs),
(146,483,o),
(177,461,o),
(177,401,cs),
(177,195,ls),
(177,41,o),
(229,-10,o),
(323,-10,cs)
);
}
);
width = 950;
}
);
},
{
glyphname = "ta_tedung-bali";
layers = (
{
layerId = m009;
shapes = (
{
closed = 1;
nodes = (
(558,-11,o),
(637,52,o),
(637,176,cs),
(637,354,o),
(439,281,o),
(439,397,cs),
(439,456,o),
(488,487,o),
(588,487,cs),
(683,487,o),
(773,440,o),
(773,320,cs),
(773,129,ls),
(773,40,o),
(828,-11,o),
(895,-11,cs),
(961,-11,o),
(1009,39,o),
(1009,127,cs),
(1009,302,ls),
(1009,417,o),
(1074,494,o),
(1187,494,cs),
(1279,494,o),
(1323,438,o),
(1323,362,cs),
(1323,278,o),
(1269,227,o),
(1210,227,cs),
(1175,227,o),
(1143,245,o),
(1125,270,c),
(1103,228,l),
(1124,195,o),
(1163,174,o),
(1208,174,cs),
(1290,174,o),
(1382,243,o),
(1382,375,cs),
(1382,493,o),
(1303,555,o),
(1190,555,cs),
(1058,555,o),
(956,463,o),
(956,325,cs),
(956,125,ls),
(956,68,o),
(929,44,o),
(894,44,cs),
(859,44,o),
(828,67,o),
(828,119,cs),
(828,319,ls),
(828,490,o),
(739,555,o),
(597,555,cs),
(454,555,o),
(385,498,o),
(385,410,cs),
(385,241,o),
(584,302,o),
(584,160,cs),
(584,82,o),
(525,48,o),
(417,48,cs),
(294,48,o),
(233,96,o),
(233,186,cs),
(233,412,ls),
(233,500,o),
(187,555,o),
(122,555,cs),
(46,555,o),
(10,481,o),
(15,398,c),
(70,398,l),
(70,459,o),
(96,483,o),
(124,483,cs),
(151,483,o),
(182,461,o),
(182,401,cs),
(182,186,ls),
(182,64,o),
(250,-11,o),
(418,-11,cs)
);
}
);
width = 1412;
}
);
},
{
glyphname = "sa_tedung-bali";
layers = (
{
layerId = m009;
shapes = (
{
closed = 1;
nodes = (
(224,-10,o),
(297,116,o),
(297,387,cs),
(297,500,o),
(251,555,o),
(174,555,cs),
(86,555,o),
(19,481,o),
(19,377,c),
(74,377,l),
(76,447,o),
(114,487,o),
(164,487,cs),
(212,487,o),
(246,450,o),
(246,376,cs),
(246,144,o),
(192,56,o),
(133,56,cs),
(102,56,o),
(74,80,o),
(74,126,cs),
(74,191,o),
(126,229,o),
(180,229,cs),
(228,229,o),
(268,199,o),
(323,113,cs),
(370,39,o),
(421,-10,o),
(487,-10,cs),
(552,-10,o),
(599,37,o),
(599,125,cs),
(599,338,ls),
(599,424,o),
(649,494,o),
(734,494,cs),
(809,494,o),
(853,438,o),
(853,352,cs),
(853,262,o),
(799,211,o),
(740,211,cs),
(705,211,o),
(673,229,o),
(655,254,c),
(633,212,l),
(654,179,o),
(693,158,o),
(738,158,cs),
(820,158,o),
(912,227,o),
(912,365,cs),
(912,493,o),
(833,555,o),
(736,555,cs),
(660,555,o),
(547,522,o),
(546,329,cs),
(545,138,ls),
(545,93,o),
(519,65,o),
(485,65,cs),
(431,65,o),
(398,131,o),
(355,189,cs),
(318,240,o),
(266,294,o),
(189,294,cs),
(99,294,o),
(15,219,o),
(15,113,cs),
(15,31,o),
(67,-10,o),
(124,-10,cs)
);
}
);
width = 1000;
}
);
},
{
glyphname = "zalSasak_tedung-bali";
layers = (
{
.lastUpdate = 705306305.408;
layerId = m009;
shapes = (
{
pos = (36,0);
ref = "sa-bali";
},
{
closed = 1;
nodes = (
(621,-266,o),
(678,-219,o),
(728,-118,c),
(695,-87,l),
(657,-154,o),
(611,-187,o),
(557,-187,cs),
(491,-187,o),
(444,-138,o),
(444,-34,cs),
(444,387,l),
(389,387,l),
(389,-56,ls),
(389,-199,o),
(453,-266,o),
(545,-266,cs)
);
},
{
pos = (428,0);
ref = _tedung_bali_;
}
);
width = 1150;
}
);
},
{
glyphname = "wa_tedung-bali";
layers = (
{
layerId = m009;
shapes = (
{
closed = 1;
nodes = (
(672,433,l),
(700,468,o),
(751,494,o),
(810,494,cs),
(894,494,o),
(938,438,o),
(938,362,cs),
(938,278,o),
(884,227,o),
(825,227,cs),
(790,227,o),
(758,245,o),
(740,270,c),
(718,228,l),
(739,195,o),
(778,174,o),
(823,174,cs),
(905,174,o),
(997,243,o),
(997,375,cs),
(997,493,o),
(918,555,o),
(821,555,cs),
(765,555,o),
(716,538,o),
(679,494,c),
(676,494,l),
(660,533,o),
(622,555,o),
(577,555,cs),
(516,555,o),
(469,515,o),
(445,438,c),
(449,427,l),
(568,395,o),
(608,319,o),
(608,225,cs),
(608,100,o),
(544,48,o),
(421,48,cs),
(293,48,o),
(241,116,o),
(241,194,cs),
(241,412,ls),
(241,500,o),
(195,555,o),
(130,555,cs),
(54,555,o),
(18,481,o),
(23,398,c),
(78,398,l),
(78,459,o),
(104,483,o),
(132,483,cs),
(159,483,o),
(190,461,o),
(190,401,cs),
(190,194,ls),
(190,84,o),
(245,-11,o),
(422,-11,cs),
(573,-11,o),
(657,69,o),
(657,228,cs),
(657,339,o),
(612,437,o),
(503,456,c),
(502,460,l),
(520,488,o),
(544,501,o),
(574,501,cs),
(618,501,o),
(651,473,o),
(668,433,c)
);
}
);
width = 1027;
}
);
},
{
glyphname = "la_tedung-bali";
layers = (
{
layerId = m009;
shapes = (
{
closed = 1;
nodes = (
(871,-10,o),
(940,41,o),
(940,164,cs),
(940,338,ls),
(940,424,o),
(990,494,o),
(1075,494,cs),
(1150,494,o),
(1194,438,o),
(1194,352,cs),
(1194,262,o),
(1140,211,o),
(1081,211,cs),
(1046,211,o),
(1014,229,o),
(996,254,c),
(974,212,l),
(995,179,o),
(1034,158,o),
(1079,158,cs),
(1161,158,o),
(1253,227,o),
(1253,365,cs),
(1253,493,o),
(1174,555,o),
(1077,555,cs),
(1001,555,o),
(887,521,o),
(887,329,cs),
(887,147,ls),
(887,80,o),
(838,45,o),
(781,45,cs),
(726,45,o),
(675,77,o),
(675,146,cs),
(675,349,ls),
(675,490,o),
(618,555,o),
(495,555,cs),
(367,555,o),
(299,484,o),
(299,349,cs),
(299,85,ls),
(299,59,o),
(291,47,o),
(272,47,cs),
(251,47,o),
(242,62,o),
(242,84,cs),
(242,412,ls),
(242,500,o),
(196,555,o),
(131,555,cs),
(55,555,o),
(19,481,o),
(24,398,c),
(79,398,l),
(79,459,o),
(105,483,o),
(133,483,cs),
(160,483,o),
(191,461,o),
(191,401,cs),
(191,77,ls),
(191,23,o),
(221,-10,o),
(272,-10,cs),
(324,-10,o),
(354,24,o),
(354,84,cs),
(354,350,ls),
(354,439,o),
(402,487,o),
(489,487,cs),
(574,487,o),
(620,440,o),
(620,350,cs),
(620,156,ls),
(620,30,o),
(693,-10,o),
(776,-10,cs)
);
}
);
width = 1270;
}
);
},
{
glyphname = "ma_tedung-bali";
layers = (
{
layerId = m009;
shapes = (
{
closed = 1;
nodes = (
(523,-10,o),
(626,75,o),
(626,219,cs),
(626,338,ls),
(626,424,o),
(676,494,o),
(761,494,cs),
(836,494,o),
(880,438,o),
(880,352,cs),
(880,262,o),
(826,211,o),
(767,211,cs),
(732,211,o),
(700,229,o),
(682,254,c),
(660,212,l),
(681,179,o),
(720,158,o),
(765,158,cs),
(847,158,o),
(939,227,o),
(939,365,cs),
(939,493,o),
(860,555,o),
(763,555,cs),
(687,555,o),
(573,521,o),
(573,329,cs),
(573,222,ls),
(573,140,o),
(524,70,o),
(362,70,cs),
(244,70,o),
(193,106,o),
(193,155,cs),
(193,208,o),
(253,252,o),
(387,252,c),
(387,298,l),
(261,298,o),
(193,347,o),
(193,407,cs),
(193,446,o),
(222,486,o),
(319,486,cs),
(368,486,o),
(414,477,o),
(478,441,c),
(493,508,l),
(440,540,o),
(387,555,o),
(321,555,cs),
(187,555,o),
(125,497,o),
(125,403,cs),
(125,334,o),
(161,291,o),
(257,275,c),
(257,274,l),
(161,261,o),
(125,216,o),
(125,150,cs),
(125,62,o),
(196,-10,o),
(352,-10,cs)
);
},
{
closed = 1;
nodes = (
(75,299,l),
(75,376,ls),
(75,476,o),
(128,512,o),
(237,512,cs),
(316,512,l),
(316,555,l),
(228,555,ls),
(87,555,o),
(23,501,o),
(23,372,cs),
(23,299,l)
);
}
);
width = 989;
}
);
},
{
glyphname = "gaGora_tedung-bali";
layers = (
{
layerId = m009;
shapes = (
{
closed = 1;
nodes = (
(384,0,l),
(384,320,ls),
(384,439,o),
(432,487,o),
(569,487,cs),
(704,487,o),
(750,440,o),
(750,320,cs),
(750,0,l),
(805,0,l),
(805,319,ls),
(805,490,o),
(748,555,o),
(575,555,cs),
(397,555,o),
(329,484,o),
(329,319,cs),
(329,0,l)
);
},
{
closed = 1;
nodes = (
(384,0,l),
(384,69,l),
(333,69,ls),
(280,69,o),
(248,103,o),
(248,197,cs),
(248,412,ls),
(248,500,o),
(202,555,o),
(137,555,cs),
(61,555,o),
(25,481,o),
(30,398,c),
(85,398,l),
(85,459,o),
(111,483,o),
(139,483,cs),
(166,483,o),
(197,461,o),
(197,401,cs),
(197,195,ls),
(197,41,o),
(240,0,o),
(334,0,cs)
);
},
{
closed = 1;
nodes = (
(873,0,o),
(939,29,o),
(939,151,cs),
(939,338,ls),
(939,424,o),
(989,494,o),
(1074,494,cs),
(1149,494,o),
(1193,438,o),
(1193,352,cs),
(1193,262,o),
(1139,211,o),
(1080,211,cs),
(1045,211,o),
(1013,229,o),
(995,254,c),
(973,212,l),
(994,179,o),
(1033,158,o),
(1078,158,cs),
(1160,158,o),
(1252,227,o),
(1252,365,cs),
(1252,493,o),
(1173,555,o),
(1076,555,cs),
(1000,555,o),
(886,521,o),
(886,329,cs),
(886,150,ls),
(886,73,o),
(842,50,o),
(784,50,c),
(784,0,l)
);
}
);
width = 1282;
}
);
},
{
glyphname = "pa_tedung-bali";
layers = (
{
layerId = m009;
shapes = (
{
closed = 1;
nodes = (
(480,-11,o),
(526,52,o),
(526,156,cs),
(526,338,ls),
(526,424,o),
(576,494,o),
(661,494,cs),
(736,494,o),
(780,438,o),
(780,352,cs),
(780,262,o),
(726,211,o),
(667,211,cs),
(632,211,o),
(600,229,o),
(582,254,c),
(560,212,l),
(581,179,o),
(620,158,o),
(665,158,cs),
(747,158,o),
(839,227,o),
(839,365,cs),
(839,493,o),
(760,555,o),
(663,555,cs),
(587,555,o),
(473,521,o),
(473,329,cs),
(473,154,ls),
(473,82,o),
(427,48,o),
(358,48,cs),
(276,48,o),
(232,96,o),
(232,174,cs),
(232,412,ls),
(232,500,o),
(186,555,o),
(121,555,cs),
(45,555,o),
(9,481,o),
(14,398,c),
(69,398,l),
(69,459,o),
(95,483,o),
(123,483,cs),
(150,483,o),
(181,461,o),
(181,401,cs),
(181,174,ls),
(181,64,o),
(222,-11,o),
(359,-11,cs)
);
}
);
width = 850;
}
);
},
{
color = 9;
glyphname = "ya_tedung-bali";
layers = (
{
.lastUpdate = 705314872.632;
layerId = m009;
shapes = (
{
alignment = -1;
ref = _ya_bali;
},
{
closed = 1;
nodes = (
(902,187,l),
(943,140,o),
(989,123,o),
(1045,123,cs),
(1164,123,o),
(1215,214,o),
(1215,320,cs),
(1215,451,o),
(1136,555,o),
(1002,555,cs),
(902,555,o),
(809,494,o),
(809,351,cs),
(809,291,l),
(877,291,l),
(877,339,ls),
(877,453,o),
(933,487,o),
(998,487,cs),
(1096,487,o),
(1145,411,o),
(1145,318,cs),
(1145,239,o),
(1105,187,o),
(1043,187,cs),
(1002,187,o),
(958,207,o),
(931,240,c),
(965,232,l),
(918,143,l)
);
}
);
width = 1249;
},
{
associatedMasterId = m009;
layerId = "B1AC830F-1419-46A6-82FD-067B1B93D734";
name = "2 May 23 15.32";
shapes = (
{
alignment = -1;
ref = _ya_bali;
},
{
closed = 1;
nodes = (
(902,206,l),
(943,159,o),
(998,140,o),
(1046,140,cs),
(1152,140,o),
(1221,232,o),
(1221,348,cs),
(1221,470,o),
(1136,555,o),
(1013,555,cs),
(893,555,o),
(809,472,o),
(809,340,cs),
(809,291,l),
(885,291,l),
(885,350,ls),
(885,431,o),
(942,479,o),
(1008,479,cs),
(1086,479,o),
(1140,424,o),
(1140,343,cs),
(1140,262,o),
(1097,206,o),
(1033,206,cs),
(994,206,o),
(954,224,o),
(931,249,c),
(965,251,l),
(918,162,l)
);
}
);
width = 1259;
},
{
associatedMasterId = m009;
layerId = "365D4943-60CE-4310-8BE7-3F804E2D7662";
name = "2 May 23 16.09";
shapes = (
{
alignment = -1;
ref = _ya_bali;
},
{
closed = 1;
nodes = (
(902,187,l),
(943,140,o),
(998,123,o),
(1054,123,cs),
(1152,123,o),
(1221,213,o),
(1221,329,cs),
(1221,441,o),
(1136,555,o),
(1003,555,cs),
(893,555,o),
(809,494,o),
(809,362,cs),
(809,291,l),
(855,291,l),
(855,350,ls),
(855,464,o),
(913,499,o),
(979,499,cs),
(1086,499,o),
(1143,415,o),
(1143,324,cs),
(1143,243,o),
(1097,187,o),
(1033,187,cs),
(994,187,o),
(954,205,o),
(931,230,c),
(965,232,l),
(918,143,l)
);
}
);
width = 1276;
}
);
metricRight = "nya-bali";
},
{
color = 7;
glyphname = "ha-bali.001";
layers = (
{
layerId = m009;
shapes = (
{
closed = 1;
nodes = (
(456,-11,o),
(501,52,o),
(502,156,cs),
(503,350,ls),
(503,439,o),
(551,487,o),
(618,487,cs),
(683,487,o),
(729,440,o),
(729,350,cs),
(729,127,ls),
(729,40,o),
(784,-11,o),
(854,-11,cs),
(917,-11,o),
(965,39,o),
(965,127,cs),
(965,522,l),
(945,498,l),
(985,498,ls),
(1025,498,o),
(1047,478,o),
(1047,436,cs),
(1047,0,l),
(1100,0,l),
(1100,420,ls),
(1100,509,o),
(1069,545,o),
(979,545,cs),
(912,545,l),
(912,125,ls),
(912,68,o),
(887,44,o),
(852,44,cs),
(815,44,o),
(784,67,o),
(784,117,cs),
(784,349,ls),
(784,490,o),
(727,555,o),
(624,555,cs),
(516,555,o),
(447,484,o),
(448,349,cs),
(449,154,ls),
(449,82,o),
(403,48,o),
(346,48,cs),
(282,48,o),
(238,96,o),
(238,174,cs),
(238,412,ls),
(238,500,o),
(192,555,o),
(127,555,cs),
(51,555,o),
(15,481,o),
(20,398,c),
(75,398,l),
(75,459,o),
(101,483,o),
(129,483,cs),
(156,483,o),
(187,461,o),
(187,401,cs),
(187,174,ls),
(187,64,o),
(228,-11,o),
(347,-11,cs)
);
}
);
width = 1120;
}
);
},
{
glyphname = "zero-bali";
layers = (
{
layerId = m009;
shapes = (
{
closed = 1;
nodes = (
(404,60,o),
(467,129,o),
(467,277,cs),
(467,424,o),
(404,493,o),
(304,493,cs),
(204,493,o),
(141,424,o),
(141,277,cs),
(141,129,o),
(204,60,o),
(304,60,cs)
);
},
{
closed = 1;
nodes = (
(241,140,o),
(201,183,o),
(201,277,cs),
(201,370,o),
(241,413,o),
(304,413,cs),
(367,413,o),
(407,370,o),
(407,277,cs),
(407,183,o),
(367,140,o),
(304,140,cs)
);
}
);
width = 600;
}
);
unicode = 6992;
},
{
glyphname = "one-bali";
layers = (
{
layerId = m009;
shapes = (
{
closed = 1;
nodes = (
(384,0,l),
(384,350,ls),
(384,439,o),
(432,487,o),
(484,487,cs),
(537,487,o),
(568,437,o),
(581,333,c),
(627,333,l),
(639,429,o),
(676,487,o),
(728,487,cs),
(775,487,o),
(823,439,o),
(823,350,cs),
(823,0,l),
(878,0,l),
(878,349,ls),
(878,484,o),
(826,555,o),
(731,555,cs),
(663,555,o),
(620,519,o),
(604,423,c),
(603,423,l),
(590,519,o),
(545,555,o),
(479,555,cs),
(391,555,o),
(329,484,o),
(329,349,cs),
(329,69,l),
(278,71,o),
(248,105,o),
(248,197,cs),
(248,412,ls),
(248,500,o),
(202,555,o),
(137,555,cs),
(61,555,o),
(25,481,o),
(30,398,c),
(85,398,l),
(85,459,o),
(111,483,o),
(139,483,cs),
(166,483,o),
(197,461,o),
(197,401,cs),
(197,195,ls),
(197,44,o),
(238,0,o),
(329,0,cs)
);
},
{
closed = 1;
nodes = (
(931,0,ls),
(1026,0,o),
(1109,34,o),
(1109,176,cs),
(1109,545,ls),
(1109,660,o),
(1078,710,o),
(1005,710,cs),
(926,710,o),
(891,647,o),
(893,580,cs),
(897,473,o),
(987,420,o),
(1071,420,cs),
(1154,420,o),
(1209,459,o),
(1250,553,c),
(1217,584,l),
(1179,514,o),
(1137,494,o),
(1079,494,cs),
(1025,494,o),
(948,526,o),
(948,590,cs),
(948,625,o),
(967,647,o),
(997,647,cs),
(1029,647,o),
(1056,626,o),
(1056,545,cs),
(1056,174,ls),
(1056,69,o),
(1001,51,o),
(931,51,cs),
(852,51,l),
(852,0,l)
);
}
);
width = 1280;
}
);
unicode = 6993;
},
{
glyphname = "four-bali";
layers = (
{
layerId = m009;
shapes = (
{
closed = 1;
nodes = (
(378,-10,o),
(446,44,o),
(446,132,cs),
(446,190,o),
(416,243,o),
(336,250,c),
(336,253,l),
(390,272,o),
(411,315,o),
(411,357,cs),
(411,420,o),
(364,448,o),
(314,448,cs),
(276,448,o),
(233,431,o),
(193,382,c),
(213,348,l),
(244,376,o),
(268,394,o),
(298,394,cs),
(327,394,o),
(345,377,o),
(345,351,cs),
(345,314,o),
(307,261,o),
(233,261,c),
(233,227,l),
(338,227,o),
(377,195,o),
(377,144,cs),
(377,89,o),
(332,60,o),
(263,60,cs),
(161,60,o),
(71,126,o),
(71,263,cs),
(71,359,o),
(115,439,o),
(186,480,c),
(158,520,l),
(69,472,o),
(13,382,o),
(13,275,cs),
(13,93,o),
(138,-10,o),
(268,-10,cs)
);
}
);
width = 600;
}
);
unicode = 6996;
},
{
glyphname = "five-bali";
layers = (
{
layerId = m009;
shapes = (
{
closed = 1;
nodes = (
(547,-340,l),
(547,-271,ls),
(547,-38,o),
(695,127,o),
(695,300,cs),
(695,506,o),
(561,611,o),
(385,611,cs),
(201,611,o),
(73,459,o),
(73,285,cs),
(73,93,o),
(198,-10,o),
(328,-10,cs),
(438,-10,o),
(506,44,o),
(506,132,cs),
(506,190,o),
(476,243,o),
(396,250,c),
(396,253,l),
(450,272,o),
(471,315,o),
(471,357,cs),
(471,420,o),
(424,448,o),
(374,448,cs),
(336,448,o),
(293,431,o),
(253,382,c),
(273,348,l),
(304,376,o),
(328,394,o),
(358,394,cs),
(387,394,o),
(405,377,o),
(405,351,cs),
(405,314,o),
(367,261,o),
(293,261,c),
(293,227,l),
(398,227,o),
(437,195,o),
(437,144,cs),
(437,89,o),
(392,60,o),
(323,60,cs),
(221,60,o),
(131,126,o),
(131,273,cs),
(131,422,o),
(229,547,o),
(388,547,cs),
(536,547,o),
(622,449,o),
(622,291,cs),
(622,125,o),
(477,-26,o),
(477,-282,cs),
(477,-340,l)
);
}
);
width = 600;
}
);
unicode = 6997;
},
{
glyphname = "seven-bali";
layers = (
{
layerId = m009;
shapes = (
{
closed = 1;
nodes = (
(900,-11,o),
(966,34,o),
(966,156,cs),
(966,545,ls),
(966,660,o),
(935,710,o),
(862,710,cs),
(783,710,o),
(748,647,o),
(750,580,cs),
(754,473,o),
(844,420,o),
(928,420,cs),
(1011,420,o),
(1066,459,o),
(1107,553,c),
(1074,584,l),
(1036,514,o),
(994,494,o),
(936,494,cs),
(882,494,o),
(805,526,o),
(805,590,cs),
(805,625,o),
(824,647,o),
(854,647,cs),
(886,647,o),
(913,626,o),
(913,545,cs),
(913,154,ls),
(913,78,o),
(869,44,o),
(811,44,cs),
(756,44,o),
(705,77,o),
(705,146,cs),
(705,349,ls),
(705,490,o),
(648,555,o),
(525,555,cs),
(397,555,o),
(329,484,o),
(329,349,cs),
(329,85,ls),
(329,59,o),
(321,47,o),
(302,47,cs),
(281,47,o),
(272,62,o),
(272,84,cs),
(272,412,ls),
(272,500,o),
(226,555,o),
(161,555,cs),
(85,555,o),
(49,481,o),
(54,398,c),
(109,398,l),
(109,459,o),
(135,483,o),
(163,483,cs),
(190,483,o),
(221,461,o),
(221,401,cs),
(221,77,ls),
(221,23,o),
(251,-10,o),
(302,-10,cs),
(354,-10,o),
(384,24,o),
(384,84,cs),
(384,350,ls),
(384,439,o),
(432,487,o),
(519,487,cs),
(604,487,o),
(650,440,o),
(650,350,cs),
(650,156,ls),
(650,30,o),
(723,-11,o),
(811,-11,cs)
);
}
);
width = 1130;
}
);
unicode = 6999;
},
{
glyphname = "eight-bali";
layers = (
{
layerId = m009;
shapes = (
{
closed = 1;
nodes = (
(550,-11,o),
(616,52,o),
(616,206,cs),
(616,545,ls),
(616,660,o),
(585,710,o),
(512,710,cs),
(433,710,o),
(398,647,o),
(400,580,cs),
(404,473,o),
(494,420,o),
(578,420,cs),
(661,420,o),
(716,459,o),
(757,553,c),
(724,584,l),
(686,514,o),
(644,494,o),
(586,494,cs),
(532,494,o),
(455,526,o),
(455,590,cs),
(455,625,o),
(474,647,o),
(504,647,cs),
(536,647,o),
(563,626,o),
(563,545,cs),
(563,204,ls),
(563,82,o),
(497,48,o),
(408,48,cs),
(303,48,o),
(239,96,o),
(239,224,cs),
(239,412,ls),
(239,500,o),
(193,555,o),
(128,555,cs),
(52,555,o),
(16,481,o),
(21,398,c),
(76,398,l),
(76,459,o),
(102,483,o),
(130,483,cs),
(157,483,o),
(188,461,o),
(188,401,cs),
(188,224,ls),
(188,64,o),
(249,-11,o),
(406,-11,cs)
);
}
);
width = 770;
}
);
unicode = 7000;
},
{
glyphname = "nine-bali";
layers = (
{
layerId = m009;
shapes = (
{
closed = 1;
nodes = (
(415,0,o),
(447,86,o),
(463,202,c),
(464,202,l),
(483,87,o),
(526,0,o),
(614,0,cs),
(701,0,o),
(744,71,o),
(744,186,cs),
(744,545,ls),
(744,660,o),
(713,710,o),
(640,710,cs),
(561,710,o),
(526,647,o),
(528,580,cs),
(532,473,o),
(622,420,o),
(706,420,cs),
(789,420,o),
(844,459,o),
(885,553,c),
(852,584,l),
(814,514,o),
(772,494,o),
(714,494,cs),
(660,494,o),
(583,526,o),
(583,590,cs),
(583,625,o),
(602,647,o),
(632,647,cs),
(664,647,o),
(691,626,o),
(691,545,cs),
(691,184,ls),
(691,103,o),
(656,68,o),
(612,68,cs),
(520,68,o),
(487,237,o),
(487,512,c),
(441,512,l),
(441,237,o),
(409,68,o),
(316,68,cs),
(278,68,o),
(241,96,o),
(241,177,cs),
(241,412,ls),
(241,500,o),
(195,555,o),
(130,555,cs),
(54,555,o),
(18,481,o),
(23,398,c),
(78,398,l),
(78,459,o),
(104,483,o),
(132,483,cs),
(159,483,o),
(190,461,o),
(190,401,cs),
(190,186,ls),
(190,51,o),
(242,0,o),
(318,0,cs)
);
}
);
width = 905;
}
);
unicode = 7001;
},
{
color = 0;
glyphname = zero;
layers = (
{
anchors = (
{
name = tail_Q;
pos = (276,43);
}
);
layerId = m009;
shapes = (
{
closed = 1;
nodes = (
(397,-10,o),
(477,120,o),
(477,348,cs),
(477,575,o),
(396,710,o),
(265,710,cs),
(130,710,o),
(50,569,o),
(50,348,cs),
(50,126,o),
(130,-10,o),
(265,-10,cs)
);
},
{
closed = 1;
nodes = (
(176,65,o),
(131,160,o),
(131,348,cs),
(131,535,o),
(175,635,o),
(265,635,cs),
(351,635,o),
(397,539,o),
(397,348,cs),
(397,156,o),
(351,65,o),
(265,65,cs)
);
}
);
width = 527;
}
);
unicode = 48;
},
{
color = 0;
glyphname = one;
layers = (
{
background = {
shapes = (
{
pos = (-67,0);
ref = two;
}
);
};
layerId = m009;
shapes = (
{
closed = 1;
nodes = (
(226,0,l),
(226,700,l),
(144,700,l),
(34,613,l),
(60,555,l),
(173,633,l),
(144,633,l),
(144,0,l)
);
}
);
width = 301;
}
);
unicode = 49;
},
{
color = 0;
glyphname = two;
layers = (
{
layerId = m009;
shapes = (
{
closed = 1;
nodes = (
(440,0,l),
(440,70,l),
(85,70,l),
(127,41,l),
(376,359,ls),
(433,432,o),
(455,485,o),
(455,536,cs),
(455,640,o),
(369,710,o),
(258,710,cs),
(185,710,o),
(107,679,o),
(50,623,c),
(53,674,l),
(117,539,l),
(80,555,l),
(134,604,o),
(196,632,o),
(254,632,cs),
(329,632,o),
(375,598,o),
(375,539,cs),
(375,502,o),
(357,462,o),
(318,412,cs),
(49,69,l),
(49,0,l)
);
}
);
width = 493;
}
);
unicode = 50;
},
{
color = 0;
glyphname = three;
layers = (
{
background = {
shapes = (
{
pos = (-73,0);
ref = two;
}
);
};
layerId = m009;
shapes = (
{
closed = 1;
nodes = (
(180,68,o),
(112,88,o),
(47,145,c),
(84,161,l),
(18,26,l),
(16,77,l),
(72,21,o),
(138,-10,o),
(225,-10,cs),
(364,-10,o),
(457,70,o),
(457,192,cs),
(457,276,o),
(414,343,o),
(330,362,c),
(330,365,l),
(391,386,o),
(440,456,o),
(440,534,cs),
(440,640,o),
(348,710,o),
(235,710,cs),
(160,710,o),
(89,679,o),
(31,623,c),
(35,674,l),
(97,539,l),
(60,555,l),
(102,596,o),
(157,632,o),
(229,632,cs),
(304,632,o),
(361,592,o),
(361,528,cs),
(361,452,o),
(281,395,o),
(204,395,cs),
(137,395,l),
(136,325,l),
(207,325,ls),
(304,325,o),
(381,275,o),
(381,191,cs),
(381,108,o),
(308,68,o),
(233,68,cs)
);
}
);
width = 510;
}
);
unicode = 51;
},
{
color = 0;
glyphname = four;
layers = (
{
layerId = m009;
shapes = (
{
closed = 1;
nodes = (
(436,1,l),
(436,187,l),
(418,161,l),
(516,161,l),
(516,231,l),
(418,231,l),
(436,203,l),
(436,700,l),
(352,700,l),
(44,231,l),
(44,161,l),
(367,161,l),
(354,179,l),
(354,1,l)
);
},
{
closed = 1;
nodes = (
(417,666,l),
(354,646,l),
(354,213,l),
(367,231,l),
(90,231,l),
(117,200,l)
);
}
);
width = 546;
}
);
unicode = 52;
},
{
color = 0;
glyphname = five;
layers = (
{
background = {
shapes = (
{
pos = (-29,0);
ref = three;
}
);
};
layerId = m009;
shapes = (
{
closed = 1;
nodes = (
(374,-10,o),
(451,85,o),
(451,201,cs),
(451,332,o),
(351,409,o),
(233,409,cs),
(200,409,o),
(165,403,o),
(128,387,c),
(158,376,l),
(182,670,l),
(128,630,l),
(413,630,l),
(413,700,l),
(108,700,l),
(81,360,l),
(118,321,l),
(144,333,o),
(175,342,o),
(214,342,cs),
(314,341,o),
(375,282,o),
(375,204,cs),
(375,128,o),
(317,66,o),
(224,66,cs),
(170,66,o),
(115,87,o),
(52,150,c),
(95,162,l),
(27,26,l),
(25,78,l),
(81,22,o),
(148,-10,o),
(231,-10,cs)
);
}
);
width = 484;
}
);
unicode = 53;
},
{
color = 0;
glyphname = six;
layers = (
{
background = {
shapes = (
{
pos = (46,0);
ref = five;
}
);
};
layerId = m009;
shapes = (
{
closed = 1;
nodes = (
(407,-10,o),
(501,79,o),
(501,200,cs),
(501,323,o),
(406,416,o),
(287,416,cs),
(213,416,o),
(154,378,o),
(94,305,c),
(101,231,l),
(153,302,o),
(204,344,o),
(279,344,cs),
(365,344,o),
(425,289,o),
(425,203,cs),
(425,119,o),
(368,65,o),
(284,65,cs),
(193,65,o),
(127,130,o),
(127,281,cs),
(127,485,o),
(250,630,o),
(427,630,cs),
(461,630,l),
(461,700,l),
(429,700,ls),
(209,700,o),
(47,520,o),
(47,273,cs),
(47,94,o),
(141,-10,o),
(280,-10,cs)
);
}
);
width = 528;
}
);
unicode = 54;
},
{
color = 0;
glyphname = seven;
layers = (
{
background = {
shapes = (
{
pos = (21,0);
ref = four;
}
);
};
layerId = m009;
shapes = (
{
closed = 1;
nodes = (
(170,0,l),
(412,630,l),
(412,700,l),
(34,700,l),
(34,630,l),
(373,630,l),
(346,665,l),
(85,0,l)
);
}
);
width = 454;
}
);
unicode = 55;
},
{
color = 0;
glyphname = eight;
layers = (
{
background = {
shapes = (
{
closed = 1;
nodes = (
(357,-10,o),
(446,59,o),
(446,158,cs),
(446,272,o),
(373,306,o),
(272,392,cs),
(210,445,o),
(135,488,o),
(135,559,cs),
(135,601,o),
(173,649,o),
(240,649,cs),
(310,649,o),
(349,606,o),
(349,548,cs),
(349,487,o),
(307,427,o),
(257,377,c),
(294,345,l),
(378,426,o),
(430,480,o),
(430,555,cs),
(430,636,o),
(364,710,o),
(240,710,cs),
(115,710,o),
(52,632,o),
(52,562,cs),
(52,468,o),
(123,415,o),
(227,324,cs),
(300,260,o),
(361,225,o),
(361,155,cs),
(361,98,o),
(316,64,o),
(240,64,cs),
(166,64,o),
(111,105,o),
(111,173,cs),
(111,237,o),
(140,286,o),
(223,360,c),
(185,387,l),
(76,304,o),
(24,255,o),
(24,156,cs),
(24,66,o),
(110,-10,o),
(235,-10,cs)
);
}
);
};
layerId = m009;
shapes = (
{
closed = 1;
nodes = (
(357,-10,o),
(456,59,o),
(456,171,cs),
(456,288,o),
(346,331,o),
(267,388,cs),
(202,435,o),
(124,470,o),
(124,553,cs),
(124,608,o),
(173,649,o),
(240,649,cs),
(307,649,o),
(356,608,o),
(356,550,cs),
(356,473,o),
(295,430,o),
(233,385,c),
(286,342,l),
(362,398,o),
(438,446,o),
(438,546,cs),
(438,639,o),
(355,710,o),
(240,710,cs),
(125,710,o),
(42,639,o),
(42,547,cs),
(42,440,o),
(136,399,o),
(216,339,cs),
(291,283,o),
(374,242,o),
(374,166,cs),
(374,103,o),
(323,64,o),
(240,64,cs),
(164,64,o),
(107,103,o),
(107,169,cs),
(107,241,o),
(173,293,o),
(246,347,c),
(191,389,l),
(114,336,o),
(24,282,o),
(24,173,cs),
(24,59,o),
(123,-10,o),
(240,-10,cs)
);
}
);
width = 485;
}
);
unicode = 56;
},
{
color = 0;
glyphname = nine;
layers = (
{
layerId = m009;
shapes = (
{
closed = 1;
nodes = (
(99,-10,ls),
(319,-10,o),
(481,170,o),
(481,413,cs),
(481,596,o),
(387,700,o),
(252,700,cs),
(121,700,o),
(27,601,o),
(27,480,cs),
(27,357,o),
(122,264,o),
(239,264,cs),
(324,264,o),
(385,312,o),
(434,385,c),
(427,459,l),
(382,389,o),
(333,336,o),
(249,336,cs),
(163,336,o),
(103,391,o),
(103,477,cs),
(103,561,o),
(160,625,o),
(247,625,cs),
(335,625,o),
(401,560,o),
(401,409,cs),
(401,205,o),
(278,60,o),
(101,60,cs),
(67,60,l),
(67,-10,l)
);
}
);
width = 528;
}
);
unicode = 57;
},
{
glyphname = "panti-bali";
layers = (
{
layerId = m009;
shapes = (
{
closed = 1;
nodes = (
(1270,-135,o),
(1302,-62,o),
(1302,45,c),
(1252,45,l),
(1252,-33,o),
(1233,-73,o),
(1195,-73,cs),
(1167,-73,o),
(1137,-51,o),
(1137,19,cs),
(1138,349,l),
(1139,484,o),
(1059,555,o),
(951,555,cs),
(848,555,o),
(772,490,o),
(772,349,cs),
(772,117,ls),
(772,67,o),
(741,44,o),
(674,44,cs),
(607,44,o),
(572,67,o),
(572,117,cs),
(572,349,ls),
(572,490,o),
(496,555,o),
(393,555,cs),
(285,555,o),
(205,484,o),
(206,349,cs),
(207,131,ls),
(207,89,o),
(180,68,o),
(141,68,cs),
(88,68,o),
(67,105,o),
(65,178,c),
(10,178,l),
(10,61,o),
(70,0,o),
(143,0,cs),
(214,0,o),
(260,56,o),
(260,123,cs),
(261,350,ls),
(261,439,o),
(320,487,o),
(387,487,cs),
(452,487,o),
(517,440,o),
(517,350,cs),
(517,127,ls),
(517,40,o),
(572,-11,o),
(672,-11,cs),
(772,-11,o),
(827,40,o),
(827,127,cs),
(827,350,ls),
(827,440,o),
(892,487,o),
(957,487,cs),
(1024,487,o),
(1083,439,o),
(1083,350,c),
(1084,8,ls),
(1084,-90,o),
(1138,-135,o),
(1196,-135,cs)
);
}
);
width = 1322;
}
);
unicode = 7002;
},
{
glyphname = "pamada-bali";
layers = (
{
.lastUpdate = 705306305.374;
layerId = m009;
shapes = (
{
closed = 1;
nodes = (
(615,-510,o),
(620,-405,o),
(684,-405,cs),
(749,-405,o),
(762,-510,o),
(868,-510,cs),
(933,-510,o),
(986,-471,o),
(986,-349,cs),
(986,522,l),
(966,498,l),
(1006,498,ls),
(1046,498,o),
(1068,478,o),
(1068,436,cs),
(1068,-505,l),
(1121,-505,l),
(1121,420,ls),
(1121,509,o),
(1090,545,o),
(1000,545,cs),
(933,545,l),
(933,-351,ls),
(933,-421,o),
(903,-446,o),
(864,-446,cs),
(783,-446,o),
(759,-342,o),
(685,-342,cs),
(612,-342,o),
(595,-445,o),
(521,-445,cs),
(471,-445,o),
(420,-398,o),
(420,-296,cs),
(420,-230,o),
(442,-165,o),
(487,-73,c),
(439,-53,l),
(393,-152,o),
(367,-223,o),
(367,-306,cs),
(367,-428,o),
(425,-510,o),
(514,-510,cs)
);
},
{
ref = "nga-bali";
},
{
closed = 1;
nodes = (
(1196,-268,l),
(1063,-143,ls),
(1006,-89,o),
(966,-48,o),
(921,-48,cs),
(887,-48,o),
(864,-71,o),
(829,-137,cs),
(803,-185,o),
(776,-201,o),
(743,-201,cs),
(703,-201,o),
(675,-178,o),
(649,-129,c),
(626,-145,l),
(648,-212,o),
(680,-266,o),
(743,-266,cs),
(791,-266,o),
(819,-235,o),
(853,-177,cs),
(878,-135,o),
(899,-108,o),
(936,-108,cs),
(963,-108,o),
(984,-122,o),
(1045,-179,cs),
(1177,-301,l)
);
}
);
width = 1184;
}
);
unicode = 7003;
},
{
glyphname = "carikPamungkah-bali";
layers = (
{
layerId = m009;
shapes = (
{
closed = 1;
nodes = (
(254,306,o),
(316,342,o),
(363,400,c),
(340,431,l),
(300,382,o),
(252,351,o),
(193,351,cs),
(148,351,o),
(113,370,o),
(113,405,cs),
(113,430,o),
(131,447,o),
(157,447,cs),
(181,447,o),
(200,433,o),
(207,414,c),
(195,409,l),
(233,463,l),
(230,444,l),
(220,473,o),
(194,492,o),
(154,492,cs),
(94,492,o),
(47,449,o),
(47,399,cs),
(47,345,o),
(99,306,o),
(173,306,cs)
);
},
{
closed = 1;
nodes = (
(254,76,o),
(316,112,o),
(363,170,c),
(340,201,l),
(300,152,o),
(252,121,o),
(193,121,cs),
(148,121,o),
(113,140,o),
(113,175,cs),
(113,200,o),
(131,217,o),
(157,217,cs),
(181,217,o),
(200,203,o),
(207,184,c),
(195,179,l),
(233,233,l),
(230,214,l),
(220,243,o),
(194,262,o),
(154,262,cs),
(94,262,o),
(47,219,o),
(47,169,cs),
(47,115,o),
(99,76,o),
(173,76,cs)
);
}
);
width = 410;
}
);
unicode = 7005;
},
{
glyphname = "carikSiki-bali";
layers = (
{
layerId = m009;
shapes = (
{
closed = 1;
nodes = (
(491,-211,l),
(328,402,ls),
(300,509,o),
(265,555,o),
(209,555,cs),
(145,555,o),
(108,495,o),
(108,421,c),
(135,421,l),
(135,455,o),
(161,479,o),
(197,479,cs),
(242,479,o),
(271,443,o),
(293,362,cs),
(453,-231,l)
);
}
);
width = 600;
}
);
unicode = 7006;
},
{
glyphname = "pameneng-bali";
layers = (
{
layerId = m009;
shapes = (
{
closed = 1;
nodes = (
(308,-10,o),
(376,74,o),
(376,167,cs),
(376,240,o),
(334,318,o),
(266,327,c),
(266,330,l),
(316,352,o),
(341,403,o),
(341,448,cs),
(341,512,o),
(291,555,o),
(220,555,cs),
(176,555,o),
(133,538,o),
(93,489,c),
(113,455,l),
(144,483,o),
(168,501,o),
(206,501,cs),
(249,501,o),
(275,477,o),
(275,436,cs),
(275,395,o),
(249,352,o),
(163,338,c),
(163,304,l),
(268,304,o),
(314,245,o),
(314,180,cs),
(314,111,o),
(262,60,o),
(195,60,cs),
(135,60,o),
(66,101,o),
(66,190,c),
(32,190,l),
(32,73,o),
(89,-10,o),
(199,-10,cs)
);
}
);
width = 420;
}
);
unicode = 7008;
},
{
glyphname = period;
kernLeft = period;
kernRight = period;
layers = (
{
layerId = m009;
shapes = (
{
closed = 1;
nodes = (
(158,0,l),
(158,90,l),
(63,90,l),
(63,0,l)
);
}
);
width = 221;
}
);
metricRight = "=|";
unicode = 46;
},
{
color = 4;
glyphname = comma;
layers = (
{
layerId = m009;
shapes = (
{
closed = 1;
nodes = (
(109,-100,l),
(175,90,l),
(79,90,l),
(63,-100,l)
);
}
);
width = 238;
}
);
metricLeft = period;
metricRight = period;
unicode = 44;
},
{
glyphname = colon;
layers = (
{
layerId = m009;
shapes = (
{
closed = 1;
nodes = (
(161,455,l),
(161,545,l),
(66,545,l),
(66,455,l)
);
},
{
closed = 1;
nodes = (
(161,0,l),
(161,90,l),
(66,90,l),
(66,0,l)
);
}
);
width = 227;
}
);
metricRight = "=|";
unicode = 58;
},
{
glyphname = semicolon;
layers = (
{
background = {
shapes = (
{
ref = period;
}
);
};
layerId = m009;
shapes = (
{
closed = 1;
nodes = (
(145,455,l),
(145,545,l),
(50,545,l),
(50,455,l)
);
},
{
closed = 1;
nodes = (
(80,-100,l),
(146,90,l),
(50,90,l),
(34,-100,l)
);
}
);
width = 195;
}
);
unicode = 59;
},
{
glyphname = exclam;
layers = (
{
layerId = m009;
shapes = (
{
closed = 1;
nodes = (
(147,195,l),
(158,700,l),
(69,700,l),
(80,195,l)
);
},
{
closed = 1;
nodes = (
(155,0,l),
(155,90,l),
(67,90,l),
(67,0,l)
);
}
);
width = 223;
}
);
unicode = 33;
},
{
glyphname = question;
layers = (
{
background = {
shapes = (
{
closed = 1;
nodes = (
(412,0,l),
(412,70,l),
(57,70,l),
(99,41,l),
(348,359,ls),
(405,432,o),
(427,485,o),
(427,536,cs),
(427,640,o),
(341,710,o),
(230,710,cs),
(157,710,o),
(79,679,o),
(22,623,c),
(25,674,l),
(89,539,l),
(52,555,l),
(106,604,o),
(168,632,o),
(226,632,cs),
(301,632,o),
(347,598,o),
(347,539,cs),
(347,502,o),
(329,462,o),
(290,412,cs),
(21,69,l),
(21,0,l)
);
}
);
};
layerId = m009;
shapes = (
{
closed = 1;
nodes = (
(240,195,l),
(240,218,ls),
(240,274,o),
(264,305,o),
(318,353,cs),
(368,398,o),
(427,446,o),
(427,535,cs),
(427,643,o),
(341,710,o),
(231,710,cs),
(157,710,o),
(79,679,o),
(22,623,c),
(25,674,l),
(89,539,l),
(52,555,l),
(106,604,o),
(168,632,o),
(230,632,cs),
(301,632,o),
(347,596,o),
(347,538,cs),
(347,482,o),
(304,440,o),
(262,400,cs),
(215,356,o),
(167,305,o),
(167,222,cs),
(167,195,l)
);
},
{
closed = 1;
nodes = (
(243,0,l),
(243,90,l),
(155,90,l),
(155,0,l)
);
}
);
width = 465;
}
);
unicode = 63;
},
{
glyphname = periodcentered;
layers = (
{
layerId = m009;
shapes = (
{
closed = 1;
nodes = (
(140,255,l),
(140,345,l),
(45,345,l),
(45,255,l)
);
}
);
width = 185;
}
);
unicode = 183;
},
{
glyphname = bullet;
layers = (
{
layerId = m009;
shapes = (
{
closed = 1;
nodes = (
(169,218,l),
(169,340,l),
(40,340,l),
(40,218,l)
);
}
);
width = 209;
}
);
unicode = 8226;
},
{
glyphname = asterisk;
layers = (
{
layerId = m009;
shapes = (
{
closed = 1;
nodes = (
(205,513,l),
(188,513,l),
(278,390,l),
(331,435,l),
(228,539,l),
(228,522,l),
(359,559,l),
(334,625,l),
(207,567,l),
(218,557,l),
(233,700,l),
(159,700,l),
(174,559,l),
(181,570,l),
(60,625,l),
(35,559,l),
(163,523,l),
(163,538,l),
(65,440,l),
(117,392,l)
);
}
);
width = 394;
}
);
unicode = 42;
},
{
glyphname = numbersign;
layers = (
{
background = {
shapes = (
{
pos = (-19,0);
ref = H;
}
);
};
layerId = m009;
shapes = (
{
closed = 1;
nodes = (
(456,0,l),
(530,700,l),
(453,700,l),
(379,0,l)
);
},
{
closed = 1;
nodes = (
(563,175,l),
(570,245,l),
(20,245,l),
(13,175,l)
);
},
{
closed = 1;
nodes = (
(164,0,l),
(238,700,l),
(161,700,l),
(87,0,l)
);
},
{
closed = 1;
nodes = (
(591,445,l),
(598,515,l),
(48,515,l),
(41,445,l)
);
}
);
width = 611;
}
);
unicode = 35;
},
{
glyphname = slash;
layers = (
{
layerId = m009;
shapes = (
{
closed = 1;
nodes = (
(102,-10,l),
(471,710,l),
(397,710,l),
(25,-10,l)
);
}
);
width = 500;
}
);
unicode = 47;
},
{
glyphname = backslash;
layers = (
{
layerId = m009;
shapes = (
{
closed = 1;
nodes = (
(474,-10,l),
(102,710,l),
(29,710,l),
(397,-10,l)
);
}
);
width = 500;
}
);
unicode = 92;
},
{
glyphname = hyphen;
layers = (
{
layerId = m009;
shapes = (
{
closed = 1;
nodes = (
(288,266,l),
(288,338,l),
(47,338,l),
(47,266,l)
);
}
);
width = 335;
}
);
unicode = 45;
},
{
glyphname = endash;
layers = (
{
layerId = m009;
shapes = (
{
closed = 1;
nodes = (
(528,266,l),
(528,338,l),
(47,338,l),
(47,266,l)
);
}
);
width = 575;
}
);
metricLeft = hyphen;
metricRight = hyphen;
unicode = 8211;
},
{
glyphname = emdash;
layers = (
{
background = {
shapes = (
{
pos = (-37,0);
ref = M;
}
);
};
layerId = m009;
shapes = (
{
closed = 1;
nodes = (
(711,266,l),
(711,338,l),
(47,338,l),
(47,266,l)
);
}
);
width = 758;
}
);
metricLeft = hyphen;
metricRight = hyphen;
unicode = 8212;
},
{
glyphname = underscore;
layers = (
{
background = {
shapes = (
{
pos = (15,0);
ref = comma;
}
);
};
layerId = m009;
shapes = (
{
closed = 1;
nodes = (
(456,-100,l),
(456,-38,l),
(45,-38,l),
(45,-100,l)
);
}
);
width = 501;
}
);
unicode = 95;
},
{
glyphname = parenleft;
layers = (
{
layerId = m009;
shapes = (
{
closed = 1;
nodes = (
(268,-250,l),
(184,-86,o),
(131,77,o),
(131,232,cs),
(131,394,o),
(190,547,o),
(268,700,c),
(181,700,l),
(103,546,o),
(43,393,o),
(43,232,cs),
(43,76,o),
(97,-87,o),
(181,-250,c)
);
}
);
width = 292;
}
);
unicode = 40;
},
{
glyphname = braceleft;
layers = (
{
layerId = m009;
shapes = (
{
closed = 1;
nodes = (
(331,-196,l),
(241,-196,o),
(198,-161,o),
(198,-86,cs),
(198,107,ls),
(198,175,o),
(180,208,o),
(135,222,c),
(135,225,l),
(180,240,o),
(198,290,o),
(198,350,cs),
(198,530,ls),
(198,605,o),
(241,640,o),
(331,640,c),
(331,710,l),
(179,710,o),
(111,659,o),
(111,530,cs),
(111,310,ls),
(111,264,o),
(87,244,o),
(47,244,c),
(47,203,l),
(87,203,o),
(111,183,o),
(111,137,cs),
(111,-86,ls),
(111,-215,o),
(179,-266,o),
(331,-266,c)
);
}
);
width = 364;
}
);
unicode = 123;
},
